<?xml version="1.0" encoding="UTF-8"?>
<svg width="109px" height="109px" viewBox="0 0 109 109" version="1.1" xmlns="http://www.w3.org/2000/svg" xmlns:xlink="http://www.w3.org/1999/xlink">
    <title>B169C5D2-CC75-496E-846E-2720006167F7</title>
    <defs>
        <filter id="filter-1">
            <feColorMatrix in="SourceGraphic" type="matrix" values="0 0 0 0 1.000000 0 0 0 0 1.000000 0 0 0 0 1.000000 0 0 0 1.000000 0"></feColorMatrix>
        </filter>
    </defs>
    <g id="Page-1" stroke="none" stroke-width="1" fill="none" fill-rule="evenodd">
        <g id="3_BD_Home" transform="translate(-632.000000, -174.000000)">
            <g id="Purchasing" transform="translate(632.000000, 174.000000)">
                <circle id="Oval" fill="#0E7ABF" cx="54.5" cy="54.5" r="54.5"></circle>
                <g filter="url(#filter-1)" id="purchasing">
                    <g transform="translate(16.500000, 28.500000)" id="Group-3" fill="#000000">
                        <path d="M81.0209041,0 L71.6955054,0 C67.8711569,0 64.4658614,2.48320155 63.2224097,6.17999032 L59.2198657,18.0797483 C59.151329,18.0702437 59.0837714,18.0587381 59.0132765,18.0587381 L12.5772066,18.0587381 C11.7660257,18.0587381 11.1085628,18.7305632 11.1085628,19.5594643 C11.1085628,20.3878651 11.7660257,21.0601904 12.5772066,21.0601904 L58.2172715,21.0601904 L55.5810559,28.8974827 C55.5134983,28.8874778 55.4454511,28.8759722 55.3744666,28.8759722 L18.355341,28.8759722 C17.54416,28.8759722 16.8866972,29.5477973 16.8866972,30.3766984 C16.8866972,31.2055995 17.54416,31.8774246 18.355341,31.8774246 L54.5784617,31.8774246 L52.2296107,38.8608036 L11.1511535,38.8608036 C10.1960455,38.8608036 9.34521115,38.2059868 9.08281345,37.2675327 L1.99709657,11.988801 C1.91387342,11.6926577 1.97017143,11.3810069 2.15228327,11.1353881 C2.33390555,10.889269 2.61098968,10.7477005 2.91255122,10.7477005 L30.9964479,10.7477005 C31.5373984,10.7477005 31.9755438,10.2999839 31.9755438,9.7472164 C31.9755438,9.19494917 31.5373984,8.74673229 30.9964479,8.74673229 L2.91255122,8.74673229 C1.9902429,8.74673229 1.14381451,9.17844118 0.588667145,9.93080523 C0.0335197814,10.682669 -0.139290641,11.6336292 0.114295191,12.5395675 L7.20001207,37.8182992 C7.70179871,39.6101662 9.32709787,40.8617718 11.1511535,40.8617718 L51.5564823,40.8617718 L50.4040864,44.2894304 C49.4328233,47.1773277 46.7716407,49.1177667 43.7834401,49.1177667 L12.6795222,49.1177667 C12.5581143,49.1177667 12.4435601,49.143279 12.3358595,49.1847991 C9.21009591,49.5574794 6.77508446,52.276295 6.77508446,55.5683879 C6.77508446,59.1151041 9.59830743,62 13.0692023,62 C16.5396077,62 19.3633202,59.1151041 19.3633202,55.5683879 C19.3633202,53.8420526 18.6906813,52.2752945 17.6029058,51.1187349 L39.1077677,51.1187349 C38.0199922,52.2752945 37.3473533,53.8420526 37.3473533,55.5683879 C37.3473533,59.1151041 40.1710658,62 43.6414712,62 C47.111387,62 49.9350995,59.1151041 49.9350995,55.5683879 C49.9350995,53.4298532 48.9041115,51.5369372 47.3277672,50.3673713 C49.5963323,49.3668872 51.4179402,47.4304502 52.2560463,44.9392448 L65.0743695,6.82980474 C66.0456326,3.94140713 68.7068152,2.00096821 71.6955054,2.00096821 L81.0209041,2.00096821 C81.561365,2.00096821 82,1.55275133 82,1.00048411 C82,0.448216879 81.561365,0 81.0209041,0" id="Fill-1"></path>
                    </g>
                </g>
            </g>
        </g>
    </g>
</svg>