<?xml version="1.0" encoding="UTF-8"?>
<svg width="61px" height="69px" viewBox="0 0 61 69" version="1.1" xmlns="http://www.w3.org/2000/svg" xmlns:xlink="http://www.w3.org/1999/xlink">
    <title>Logistics</title>
    <g id="Logistics" stroke="none" stroke-width="1" fill="none" fill-rule="evenodd">
        <path d="M50.7622303,1.36262619 C52.7269386,2.048597 54.8080553,5.61695466 55.1689719,11.9820787 C55.4049233,11.832243 55.6708805,11.73592 55.9533114,11.7079744 L56.1246386,11.6995313 L58.5443053,11.6995313 C59.6321386,11.6995313 60.5171469,12.7103561 60.5171469,13.9533634 C60.4871553,14.6821444 60.6401636,15.9301882 60.2553553,16.5758671 C60.3968414,16.8583306 60.483964,17.1743707 60.5093689,17.5012533 L60.5171469,17.6985021 L60.5171469,25.1918014 C60.5171469,26.3807649 59.7078879,27.3572968 58.6854958,27.4404058 L58.5448136,27.4461371 L56.1246386,27.4461371 C55.8684386,27.4457342 55.6206973,27.3898896 55.391565,27.2858234 L55.2233636,27.1988452 L55.2233636,39.427962 C55.2214658,40.1321313 54.7346858,40.7582059 53.8956909,41.1702363 L53.7105636,41.2552028 L53.7105636,41.8469912 C55.0318236,42.169478 55.88789,42.8955998 55.9728084,43.7800846 L55.9797636,43.9210204 L55.9797636,58.9086262 C55.9783233,60.9777868 55.4763065,62.8915093 54.621881,64.1431973 L54.4674719,64.3571079 L54.4674719,66.4432247 C54.4674719,67.6095459 53.5512419,68.5680435 52.3940946,68.6491864 L52.2348719,68.6547503 L47.6120886,68.6547503 C46.434435,68.6547503 45.4674677,67.7469623 45.3856098,66.6009175 L45.3799969,66.4432247 L45.3799969,65.658035 L15.1438219,65.658035 L15.1438219,66.4432247 C15.1438219,67.6095459 14.2275919,68.5680435 13.0704446,68.6491864 L12.9112219,68.6547503 L8.28894692,68.6547503 C7.1112933,68.6547503 6.14386097,67.7469623 6.06196261,66.6009175 L6.05634692,66.4432247 L6.05634692,64.3596262 C5.16049414,63.1871019 4.60878774,61.3227433 4.54939554,59.2722982 L4.54405525,58.9086262 L4.54405525,43.9235386 C4.545504,43.0206711 5.33603859,42.2650758 6.6079614,41.900729 L6.81274692,41.8464875 L6.81274692,41.2552028 C5.92363803,40.8744437 5.37815344,40.2694911 5.30813387,39.5787512 L5.30045525,39.4294729 L5.30045525,27.1988452 C5.08166859,27.3265707 4.84108459,27.4078799 4.59041525,27.4355524 L4.40070525,27.4461371 L1.97900525,27.4461371 C0.938955252,27.4456554 0.0840116166,26.5207966 0.0116347598,25.3525521 L0.00667191909,25.1918014 L0.00667191909,17.6995094 C0.00718025243,17.3026335 0.0986802524,16.9148233 0.268463586,16.5763707 C-0.115836414,15.9347211 0.0341219191,14.6730787 0.00667191909,13.9533634 C0.00667191909,12.7643999 0.81639599,11.787868 1.83838372,11.7051998 L1.97900525,11.6995313 L4.39918025,11.6995313 C4.74891359,11.6995313 5.07780525,11.8042904 5.36298025,11.9876189 C5.66442192,7.22309335 7.05623859,2.34776488 9.71787192,1.38277218 C14.2252636,-0.463103735 46.1770636,-0.452023443 50.7622303,1.36262619 Z M30.2616553,1.52177948 C19.2872469,1.52278678 11.4121469,2.14882327 10.4102219,2.72902765 C8.58470355,3.3097254 6.94552354,7.48329226 6.8306387,13.5704402 L6.82545525,13.9533634 L6.82545525,16.725451 C6.82545525,17.2658671 6.38168025,17.7060568 5.83623859,17.7060568 C5.37518025,17.7599474 4.89073859,17.573597 4.67774692,17.1379401 C4.43374692,16.8020058 4.43374692,16.3482174 4.67927192,16.0107722 C4.76426525,15.8939255 4.81997859,15.7400101 4.83912445,15.5753288 L4.84651359,15.4502101 L4.84651359,13.9533634 C4.84651359,13.5707912 4.65546159,13.2751136 4.46309199,13.2198038 L4.39918025,13.2104802 L1.97900525,13.2104802 C1.78914275,13.2104802 1.57869275,13.4679006 1.53850138,13.8292682 L1.53167192,13.9533634 L1.53167192,15.4517211 C1.53167192,15.6612393 1.59267192,15.8657211 1.69891359,16.0112758 C1.94443859,16.3492247 1.94443859,16.8035167 1.69840525,17.1414656 C1.61381859,17.2575065 1.55786125,17.4112606 1.53886179,17.5756519 L1.53167192,17.7005167 L1.53167192,25.1918014 C1.53167192,25.5748269 1.72313567,25.8705498 1.91558762,25.9258642 L1.97951359,25.9351882 L4.39918025,25.9351882 C4.48702025,25.9347853 4.58364425,25.8741056 4.66354612,25.7722314 L4.7850178,25.5894511 C4.97258653,25.3377727 5.2685997,25.1857576 5.58308859,25.1857576 C6.17831515,25.112571 6.74852218,25.4519443 6.81831066,26.0441046 L6.82545525,26.1658598 L6.82545525,39.427962 C6.83104692,39.4944437 7.04607192,39.7573488 7.65556359,39.9578014 C8.02293609,40.0788284 8.28160659,40.3936346 8.32966696,40.7634333 L8.33774692,40.8885459 L8.33774692,42.2806335 C8.33774692,42.7616189 7.98801359,43.1680641 7.50662192,43.2471371 C6.56864525,43.4003809 6.12972088,43.7646562 6.07495312,43.8993561 L6.06905525,43.9245459 L6.06905525,58.9086262 C6.07007192,60.8240058 6.56264692,62.6033999 7.35513859,63.5512685 C7.47225859,63.6914846 7.54675992,63.8607109 7.57187565,64.03806 L7.58134692,64.1722685 L7.58134692,66.4432247 C7.58134692,66.7973324 7.84788303,67.0909217 8.19301312,67.1373941 L8.28894692,67.1438014 L12.9112219,67.1438014 C13.2686226,67.1438014 13.5653693,66.8797211 13.6123451,66.5381589 L13.6188219,66.4432247 L13.6188219,65.1271882 C13.6188219,64.6253733 14.0014646,64.2104123 14.492839,64.1536924 L14.6080386,64.147086 L45.9152719,64.147086 C46.4222255,64.147086 46.8410792,64.5262032 46.8983289,65.0130501 L46.9049969,65.1271882 L46.9049969,66.4432247 C46.9049969,66.7973324 47.171533,67.0909217 47.5162716,67.1373941 L47.6120886,67.1438014 L52.2348719,67.1438014 C52.5927386,67.1438014 52.8890969,66.8797211 52.9360048,66.5381589 L52.9424719,66.4432247 L52.9424719,64.1702539 C52.9424719,63.9446189 53.0227886,63.7240204 53.1681719,63.5492539 C53.9166363,62.6540447 54.3975824,61.0180337 54.4499954,59.2258857 L54.4547636,58.9081225 L54.4547636,43.9235386 C54.4542553,43.8187795 54.0216636,43.4123342 53.0182136,43.2476408 C52.5764719,43.1760806 52.2449327,42.8285903 52.1927438,42.3999151 L52.1855636,42.2811371 L52.1855636,40.8885459 C52.1855636,40.4664875 52.4590469,40.0922758 52.8667303,39.9578014 C53.4790764,39.7569614 53.6669492,39.5084863 53.6946282,39.4393609 L53.6983636,39.4259474 L53.6983636,26.1658598 C53.6983636,25.6254437 54.1421386,25.1857576 54.6875803,25.1857576 C55.1161053,25.1469766 55.5852969,25.2804437 55.8028636,25.6863853 C55.8732169,25.8092758 55.9669943,25.8944531 56.0584292,25.9238662 L56.1261636,25.9351882 L58.5443053,25.9351882 C58.7341678,25.9351882 58.9450295,25.6777679 58.9853032,25.3160331 L58.9921469,25.1918014 L58.9921469,17.6995094 C58.9921469,17.4904948 58.9311469,17.2870204 58.8254136,17.1414656 C58.5793803,16.8035167 58.5793803,16.3492247 58.8254136,16.0112758 C58.9100003,15.894832 58.9659576,15.740675 58.9849571,15.5758808 L58.9921469,15.4507138 L58.9921469,13.9533634 C58.9921469,13.5707912 58.8006832,13.2751136 58.6082312,13.2198038 L58.5443053,13.2104802 L56.1246386,13.2104802 C55.9131719,13.2104802 55.6773053,13.5282831 55.6773053,13.9533634 C55.7131791,14.3681908 55.5763596,15.5047739 55.788621,15.9263325 L55.9028968,16.097126 C56.2897066,16.7491721 55.7026556,17.7137649 54.9407303,17.7060568 C54.3464568,17.7801878 53.774969,17.4386602 53.7054356,16.8470569 L53.6983636,16.725451 L53.6983636,13.9533634 C53.6546469,7.62248751 51.9578303,3.29160429 50.1044469,2.72600575 C49.0252553,2.14781597 41.1318553,1.52278678 30.2616553,1.52177948 Z M14.5723983,42.154851 C15.0275894,42.154851 15.4095462,42.4921283 15.4871419,42.9418099 L15.5000662,43.0564419 L15.9989517,52.3814251 C16.0099954,52.5914183 15.9341302,52.7846516 15.804007,52.925633 C15.7391855,52.9961237 15.6609195,53.053305 15.5730504,53.0927403 C15.5144709,53.1193592 15.4518368,53.138091 15.3861439,53.1476212 L15.2854349,53.154851 L11.9281608,53.154851 C11.4519799,53.154851 11.059844,52.7867692 11.0062541,52.3126712 L11.0000128,52.2015012 L11.0000128,43.1082008 C11.0000128,42.6193432 11.3581357,42.216343 11.8198806,42.1612657 L11.9281608,42.154851 L14.5723983,42.154851 Z M49.0718588,42.154851 C49.1357204,42.154851 49.1981415,42.1617522 49.2586419,42.1740757 C49.5606641,42.2376653 49.8098684,42.452095 49.9270281,42.7370155 C49.9587188,42.8129285 49.9805928,42.8940996 49.9916544,42.9787761 L50.0000128,43.1082008 L50.0000128,52.2015012 C50.0000128,52.3331168 49.9745641,52.458324 49.9270281,52.5726865 C49.8098684,52.857607 49.5606641,53.0720368 49.2586419,53.1351333 L49.1665108,53.1497984 L49.1665108,53.1497984 L49.0718588,53.154851 L45.714563,53.154851 C45.6122884,53.154851 45.5148154,53.1326686 45.4269457,53.0927403 C45.3390759,53.053305 45.2603293,52.9961237 45.1955074,52.925633 C45.1633365,52.8901412 45.1345267,52.8521846 45.1090781,52.8107775 C45.052539,52.7179812 45.0154465,52.6113209 45.0038776,52.4974513 L45.0010416,52.3814251 L45.4999304,43.0559489 C45.5071328,42.9297558 45.537383,42.8099709 45.5873199,42.7020166 C45.7192045,42.4137003 45.9880481,42.2056179 46.3061699,42.1629369 L46.4276042,42.154851 L49.0718588,42.154851 Z M40.9634714,50.654851 C41.2596963,50.654851 41.5000128,51.1027502 41.5000128,51.654851 C41.5000128,52.1652582 41.2952461,52.5854462 41.0307546,52.6470703 L40.9634714,52.654851 L20.0361033,52.654851 C19.7398783,52.654851 19.5000128,52.2077922 19.5000128,51.654851 C19.5000128,51.1452195 19.7043952,50.7243752 19.9688276,50.6626454 L20.0361033,50.654851 L40.9634714,50.654851 Z M41.921758,48.154851 C42.0014503,48.154851 42.0772551,48.1834104 42.1467429,48.2338094 C42.3542343,48.3858464 42.5000128,48.7411593 42.5000128,49.155271 C42.5000128,49.5685427 42.3542343,49.9246956 42.1467429,50.0758926 C42.1004177,50.1094919 42.0512849,50.1333848 42.0000645,50.1455801 L41.921758,50.154851 L19.0782675,50.154851 C18.7590125,50.154851 18.5000128,49.70714 18.5000128,49.155271 C18.5000128,48.6450781 18.720699,48.2243509 19.0057533,48.1626426 L19.0782675,48.154851 L41.921758,48.154851 Z M42.8810147,45.654851 C43.222764,45.654851 43.5000128,46.1027502 43.5000128,46.654851 C43.5000128,47.1644826 43.2637772,47.5853269 42.9586381,47.6470566 L42.8810147,47.654851 L18.1190108,47.654851 C17.7767413,47.654851 17.5000128,47.2069519 17.5000128,46.654851 C17.5000128,46.1452195 17.7358051,45.7243752 18.0412851,45.6626454 L18.1190108,45.654851 L42.8810147,45.654851 Z M42.8883085,43.154851 C43.2260309,43.154851 43.5000128,43.6019098 43.5000128,44.154851 C43.5000128,44.6644826 43.2665608,45.0853269 42.9650173,45.1470566 L42.8883085,45.154851 L18.111717,45.154851 C17.7739946,45.154851 17.5000128,44.7069519 17.5000128,44.154851 C17.5000128,43.6444438 17.7334647,43.2242558 18.0350082,43.1626317 L18.111717,43.154851 L42.8883085,43.154851 Z M49.6362742,9.15485101 C50.8167108,9.15485101 51.8401905,10.0066459 52.0593285,11.1927997 C52.5000128,12.154851 52.6333021,16.2569023 52.5000128,19.154851 C52.6333021,21.2569023 52.4564847,24.5410049 52.4915869,26.6394664 C52.6008651,27.9509741 51.6333443,29.0625655 50.3942668,29.1493944 L50.2380261,29.154851 L10.761597,29.154851 C9.56642995,29.154851 8.58495449,28.201596 8.50523981,27.0000976 L8.50001275,26.8420305 L8.50001275,16.1471587 C8.50101567,14.4307484 8.64744197,12.7702356 8.9347785,11.2081843 C9.14348134,10.0731416 10.0794716,9.23765117 11.1926108,9.16065445 L11.3608416,9.15485101 L49.6362742,9.15485101 Z M49.2692055,10.6933125 L11.3553255,10.6933125 C10.8974926,10.6933125 10.4943188,11.020492 10.410575,11.4810049 C10.1753903,12.7679279 10.0415632,14.129843 10.0111093,15.5365177 L10.0043925,16.1420305 L10.0043925,26.8527997 C10.0043925,27.2382698 10.2833365,27.5586722 10.64385,27.6093958 L10.7440459,27.6163895 L49.8829924,27.6163895 C50.2571651,27.6163895 50.5668688,27.3285405 50.6158877,26.9562687 L50.6226458,26.8527997 L50.6226458,16.1410049 C50.62064,14.5189536 50.48324,12.9507484 50.2144574,11.480492 C50.1302122,11.020492 49.7270384,10.6933125 49.2692055,10.6933125 Z" id="Combined-Shape" fill="#0A2540"></path>
    </g>
</svg>