<?xml version="1.0" encoding="UTF-8"?>
<svg width="84px" height="63px" viewBox="0 0 84 63" version="1.1" xmlns="http://www.w3.org/2000/svg" xmlns:xlink="http://www.w3.org/1999/xlink">
    <title>purchasing</title>
    <g id="purchasing" stroke="none" stroke-width="1" fill="none" fill-rule="evenodd">
        <path d="M82.9970237,0 L73.4441763,0 C69.526551,0 66.0381995,2.52325319 64.7644197,6.27966758 L60.6642527,18.3713571 C60.5940443,18.3616992 60.524839,18.3500081 60.4526247,18.3500081 L12.8839678,18.3500081 C12.0530019,18.3500081 11.3795034,19.032669 11.3795034,19.8749395 C11.3795034,20.7167016 12.0530019,21.3998709 12.8839678,21.3998709 L59.637205,21.3998709 L56.9366914,29.3635711 C56.867486,29.3534049 56.7977792,29.3417137 56.7250634,29.3417137 L18.8030322,29.3417137 C17.9720664,29.3417137 17.2985678,30.0243747 17.2985678,30.8666452 C17.2985678,31.7089156 17.9720664,32.3915766 18.8030322,32.3915766 L55.9096437,32.3915766 L53.5035036,39.4875908 L11.4231328,39.4875908 C10.4447295,39.4875908 9.57314313,38.8222124 9.30434549,37.8686219 L2.04580624,12.1821688 C1.96055326,11.881249 2.01822439,11.5645716 2.20477798,11.3149911 C2.39083008,11.0649024 2.67467236,10.9210505 2.98358905,10.9210505 L31.7524588,10.9210505 C32.3066032,10.9210505 32.7554351,10.4661126 32.7554351,9.90442956 C32.7554351,9.3432548 32.3066032,8.88780862 31.7524588,8.88780862 L2.98358905,8.88780862 C2.03878541,8.88780862 1.17171242,9.32648056 0.60302488,10.0909795 C0.0343373371,10.8549701 -0.142687974,11.8212684 0.117082879,12.7418186 L7.37562212,38.4282717 C7.88964746,40.2490399 9.55458806,41.5208327 11.4231328,41.5208327 L52.8139574,41.5208327 L51.6334544,45.003776 C50.6385019,47.9382524 47.9124124,49.9099887 44.8513289,49.9099887 L12.9887788,49.9099887 C12.8644097,49.9099887 12.7470615,49.9359125 12.6367341,49.9781023 C9.4347324,50.3567936 6.94033042,53.119461 6.94033042,56.4646523 C6.94033042,60.0685735 9.83241249,63 13.3879634,63 C16.9430127,63 19.8355963,60.0685735 19.8355963,56.4646523 C19.8355963,54.7104728 19.1465516,53.1184444 18.032245,51.9432306 L40.0616157,51.9432306 C38.9473091,53.1184444 38.2582644,54.7104728 38.2582644,56.4646523 C38.2582644,60.0685735 41.1508479,63 44.7058973,63 C48.2604452,63 51.1530287,60.0685735 51.1530287,56.4646523 C51.1530287,54.291625 50.0968947,52.3681782 48.4821029,51.1797483 C50.805999,50.1631273 52.6720363,48.1954575 53.530584,45.6640713 L66.6615493,6.93996289 C67.6565017,4.00497822 70.3825912,2.03324189 73.4441763,2.03324189 L82.9970237,2.03324189 C83.5506666,2.03324189 84,1.57779571 84,1.01662095 C84,0.455446184 83.5506666,0 82.9970237,0" id="Fill-1" fill="#0A2540"></path>
    </g>
</svg>