<?xml version="1.0" encoding="UTF-8"?>
<svg width="78px" height="78px" viewBox="0 0 78 78" version="1.1" xmlns="http://www.w3.org/2000/svg" xmlns:xlink="http://www.w3.org/1999/xlink">
    <title>Quality_Control</title>
    <g id="Quality_Control" stroke="none" stroke-width="1" fill="none" fill-rule="evenodd">
        <path d="M44.3587786,0 C47.1495115,0 49.4198473,2.27033588 49.4198473,5.0610687 L49.4198473,5.0610687 L49.4198473,10.1638168 C50.3070229,10.4829618 51.1787176,10.8425954 52.0248092,11.2385496 L52.0248092,11.2385496 L55.6300763,7.63328244 C56.5857252,6.67703817 57.8569466,6.15068702 59.2085496,6.15068702 C60.5607481,6.15068702 61.8319695,6.67703817 62.7876183,7.63328244 L62.7876183,7.63328244 L70.3667176,15.2064275 C71.3235573,16.1626718 71.8499084,17.4338931 71.8499084,18.7854962 C71.849313,20.1376947 71.3229618,21.408916 70.367313,22.3645649 L70.367313,22.3645649 L66.7614504,25.9751908 C67.1621679,26.8331908 67.5212061,27.7036947 67.8367786,28.5801527 L67.8367786,28.5801527 L72.9389313,28.5801527 C75.7296641,28.5801527 78,30.8504885 78,33.6412214 L78,33.6412214 L78,44.3587786 C78,47.1495115 75.7296641,49.4198473 72.9389313,49.4198473 L72.9389313,49.4198473 L67.8421374,49.4198473 C67.5235878,50.3064275 67.1633588,51.1787176 66.768,52.0248092 L66.768,52.0248092 L70.3732672,55.6300763 C71.328916,56.5863206 71.8558626,57.8569466 71.8558626,59.2085496 C71.8558626,60.5607481 71.328916,61.8319695 70.3732672,62.7876183 L70.3732672,62.7876183 L62.7935725,70.367313 C60.8197557,72.3411298 57.6086565,72.3399389 55.6354351,70.367313 L55.6354351,70.367313 L52.0248092,66.7614504 C51.1668092,67.1621679 50.2963053,67.5212061 49.4198473,67.8367786 L49.4198473,67.8367786 L49.4198473,72.9389313 C49.4198473,75.7296641 47.1495115,78 44.3587786,78 L44.3587786,78 L33.6412214,78 C30.8504885,78 28.5801527,75.7296641 28.5801527,72.9389313 L28.5801527,72.9389313 L28.5801527,67.8421374 C27.6935725,67.5229924 26.8212824,67.1633588 25.9757863,66.768 L25.9757863,66.768 L22.3705191,70.3732672 C20.3972977,72.3458931 17.1861985,72.3464885 15.2129771,70.3732672 L15.2129771,70.3732672 L7.63328244,62.7935725 C5.65946565,60.8197557 5.65946565,57.6092519 7.63328244,55.6354351 L7.63328244,55.6354351 L11.2385496,52.0248092 C10.8372366,51.1656183 10.4787939,50.2951145 10.1638168,49.4198473 L10.1638168,49.4198473 L5.0610687,49.4198473 C2.27033588,49.4198473 0,47.1495115 0,44.3587786 L0,44.3587786 L0,33.6412214 C0,30.8504885 2.27033588,28.5801527 5.0610687,28.5801527 L5.0610687,28.5801527 L10.1638168,28.5801527 C10.4829618,27.6929771 10.8425954,26.8212824 11.2385496,25.9751908 L11.2385496,25.9751908 L7.63328244,22.3705191 C6.67703817,21.4142748 6.15068702,20.1436489 6.15068702,18.7914504 C6.15068702,17.4398473 6.67703817,16.168626 7.63328244,15.2129771 L7.63328244,15.2129771 L15.2064275,7.63328244 C16.1626718,6.67703817 17.4338931,6.15068702 18.7854962,6.15068702 C20.1376947,6.15068702 21.408916,6.67703817 22.3645649,7.63328244 L22.3645649,7.63328244 L25.9751908,11.2385496 C26.8349771,10.8372366 27.7054809,10.4781985 28.5801527,10.1638168 L28.5801527,10.1638168 L28.5801527,5.0610687 C28.5801527,2.27033588 30.8504885,0 33.6412214,0 L33.6412214,0 Z M44.3587786,1.78625954 L33.6412214,1.78625954 C31.835313,1.78625954 30.3664122,3.25516031 30.3664122,5.0610687 L30.3664122,5.0610687 L30.3664122,10.3781679 C30.3622443,11.0188397 29.9555725,11.5815115 29.3541985,11.7845496 C28.4181985,12.1138168 27.4756489,12.502626 26.5640611,12.9354962 C26.0127023,13.2129618 25.3249924,13.1057863 24.8700916,12.658626 L24.8700916,12.658626 L21.1016794,8.89676336 C20.4824427,8.27752672 19.6607634,7.93694656 18.7854962,7.93694656 L18.7854962,7.93694656 L18.5680074,7.94400546 C17.7751927,7.99563677 17.0369962,8.32903053 16.4699084,8.89557252 L16.4699084,8.89557252 L8.89616794,16.4752672 C8.27752672,17.0945038 7.93694656,17.9167786 7.93694656,18.7914504 C7.93694656,19.6661221 8.27752672,20.4883969 8.89557252,21.1070382 L8.89557252,21.1070382 L12.6532672,24.8647328 C13.1057863,25.3249924 13.2129618,26.0127023 12.9265649,26.5825191 C12.5032214,27.4732672 12.1144122,28.4158168 11.7803817,29.364916 C11.5815115,29.9555725 11.0188397,30.3622443 10.3841221,30.3664122 L10.3841221,30.3664122 L5.0610687,30.3664122 C3.25516031,30.3664122 1.78625954,31.835313 1.78625954,33.6412214 L1.78625954,33.6412214 L1.78625954,44.3587786 C1.78625954,46.164687 3.25516031,47.6335878 5.0610687,47.6335878 L5.0610687,47.6335878 L10.3781679,47.6335878 C11.0194351,47.6389466 11.5815115,48.0456183 11.7845496,48.6463969 C12.1144122,49.5829924 12.502626,50.525542 12.9354962,51.4365344 C13.2129618,51.9878931 13.1057863,52.6756031 12.658626,53.1299084 L12.658626,53.1299084 L8.89676336,56.8983206 C7.61899237,58.1760916 7.61899237,60.2535115 8.89557252,61.5300916 L8.89557252,61.5300916 L16.4758626,69.1103817 C17.7524427,70.3875573 19.830458,70.3869618 21.1070382,69.1103817 L21.1070382,69.1103817 L24.8647328,65.3532824 C25.1535115,65.0692672 25.5321985,64.9210076 25.9150534,64.9210076 C26.1419084,64.9210076 26.3705496,64.9728092 26.5825191,65.0793893 C27.4732672,65.5027328 28.4158168,65.891542 29.364916,66.2255725 C29.9555725,66.4250382 30.3622443,66.9871145 30.3664122,67.6218321 L30.3664122,67.6218321 L30.3664122,72.9389313 C30.3664122,74.7448397 31.835313,76.2137405 33.6412214,76.2137405 L33.6412214,76.2137405 L44.3587786,76.2137405 C46.164687,76.2137405 47.6335878,74.7448397 47.6335878,72.9389313 L47.6335878,72.9389313 L47.6335878,67.6218321 C47.6389466,66.9811603 48.0456183,66.4184885 48.6463969,66.2160458 C49.5847786,65.8855878 50.5267328,65.4967786 51.4365344,65.0645038 C51.9861069,64.7870382 52.6750076,64.8942137 53.1299084,65.341374 L53.1299084,65.341374 L56.8983206,69.1038321 C58.1760916,70.3810076 60.2535115,70.3816031 61.5300916,69.1044275 L61.5300916,69.1044275 L69.1103817,61.5247328 C69.7290229,60.9060916 70.0696031,60.0838168 70.0696031,59.2085496 C70.0696031,58.3344733 69.7290229,57.5116031 69.1103817,56.8929618 L69.1103817,56.8929618 L65.3532824,53.1358626 C64.9007634,52.6756031 64.7929924,51.9872977 65.0793893,51.4180763 C65.5027328,50.5267328 65.891542,49.5847786 66.2255725,48.635084 C66.4256336,48.0450229 66.9871145,47.6389466 67.6206412,47.6335878 L67.6206412,47.6335878 L72.9389313,47.6335878 C74.7448397,47.6335878 76.2137405,46.164687 76.2137405,44.3587786 L76.2137405,44.3587786 L76.2137405,33.6412214 C76.2137405,31.835313 74.7448397,30.3664122 72.9389313,30.3664122 L72.9389313,30.3664122 L67.6218321,30.3664122 C66.9817557,30.3622443 66.419084,29.9555725 66.2160458,29.3541985 C65.8855878,28.4158168 65.4967786,27.4732672 65.0645038,26.5640611 C64.7870382,26.0127023 64.8948092,25.3249924 65.341374,24.8700916 L65.341374,24.8700916 L69.1038321,21.1016794 C69.7230687,20.4824427 70.0636489,19.6607634 70.0636489,18.7854962 C70.0636489,17.9114198 69.7230687,17.0885496 69.1044275,16.4699084 L69.1044275,16.4699084 L61.5247328,8.89616794 C60.9060916,8.27752672 60.0838168,7.93694656 59.2085496,7.93694656 L59.2085496,7.93694656 L58.9910608,7.94400546 C58.1982462,7.99563677 57.4600496,8.32903053 56.8929618,8.89557252 L56.8929618,8.89557252 L53.1358626,12.6532672 C52.6750076,13.1057863 51.9872977,13.2129618 51.4180763,12.9265649 C50.5267328,12.5032214 49.5847786,12.1144122 48.635084,11.7803817 C48.0456183,11.5815115 47.6389466,11.0194351 47.6335878,10.385313 L47.6335878,10.385313 L47.6335878,5.0610687 C47.6335878,3.25516031 46.164687,1.78625954 44.3587786,1.78625954 L44.3587786,1.78625954 Z M39.0003015,16.5454545 C43.9167083,16.5454545 48.4659221,18.1378087 52.1686022,20.8281095 C51.7658355,21.2754881 51.3624659,21.7270872 50.9578903,22.1859216 C47.581403,19.7771919 43.454853,18.3542628 39.0003015,18.3542628 C27.6161125,18.3542628 18.3542871,27.6159639 18.3542871,39 C18.3542871,50.3840361 27.6161125,59.6457372 39.0003015,59.6457372 C50.3844904,59.6457372 59.6457129,50.3840361 59.6457129,39 C59.6457129,34.9796222 58.4868542,31.2269481 56.491109,28.0506808 C56.8468461,27.5104501 57.2110244,26.96419 57.5848497,26.4125035 C60.0255678,30.0053996 61.4545455,34.3387012 61.4545455,39 C61.4545455,51.3812924 51.3817601,61.4545455 39.0003015,61.4545455 C26.6188429,61.4545455 16.5454545,51.3812924 16.5454545,39 C16.5454545,26.6187076 26.6188429,16.5454545 39.0003015,16.5454545 Z M63.4633763,15.6265591 C63.4633763,15.6265591 64.261838,15.0831505 64.7259476,15.5587817 C64.9975332,15.8370259 65.1900572,16.326926 64.6885291,16.724078 C47.3969757,30.4169049 40.5717278,48.1091953 40.5717278,48.1091953 C38.6525229,51.7507464 36.1340191,50.8761796 35.1315664,50.2536973 C34.479761,49.8500053 34.2220564,49.2061196 34.2220564,49.2061196 C28.8193136,37.2998824 23.9042177,33.4413245 23.9042177,33.4413245 C23.1938705,32.7415522 24.0291471,31.6446278 24.8650272,31.9775696 C25.6746443,32.300155 35.1566752,40.6140115 36.3767931,41.6854244 L36.4728461,41.7698005 C36.494577,41.7888978 36.5057896,41.7987587 36.5057896,41.7987587 C48.7591284,24.0214492 63.4633763,15.6265591 63.4633763,15.6265591 Z" id="®®" fill="#0A2540"></path>
    </g>
</svg>