<?xml version="1.0" encoding="UTF-8"?>
<svg width="69px" height="69px" viewBox="0 0 69 69" version="1.1" xmlns="http://www.w3.org/2000/svg" xmlns:xlink="http://www.w3.org/1999/xlink">
    <title>Warehouse_White</title>
    <g id="Warehouse_White" stroke="none" stroke-width="1" fill="none" fill-rule="evenodd">
        <path d="M34.7636982,0.0422870011 L34.844288,0.0831677868 L68.645726,23.1105328 C68.7993391,23.2132773 68.9348209,23.5199999 68.8985581,23.7602408 C68.7681129,23.9911641 68.5509061,24.1630897 68.3461351,24.2024629 L68.2594267,24.2110072 L67.186653,24.2110072 L67.186653,68.1690437 C67.186653,68.5261771 67.000594,68.7447027 66.671992,68.7814832 L66.5691786,68.7870218 L32.5562078,68.7870218 C32.163361,68.7870218 31.9382297,68.5618904 31.9382297,68.1690437 C31.9382297,67.8123682 32.1242886,67.5934679 32.4532691,67.5566156 L32.5562078,67.5510656 L65.9517041,67.5510656 L65.9517041,24.2110072 L2.9637698,24.2110072 L2.9637698,30.6703138 C2.9637698,31.0626568 2.73863841,31.2877882 2.34629535,31.2877882 C1.98916197,31.2877882 1.7706363,31.1017292 1.73385588,30.7731272 L1.72831724,30.6703138 L1.72831724,24.2110072 L0.656047171,24.2110072 C0.344791696,24.2110072 0.0849084847,24.0432919 0.0249741781,23.8040583 C-0.0287904204,23.5898813 0.000736039435,23.3217193 0.14796896,23.1885197 L0.218375638,23.1402481 L34.1724194,0.085686035 C34.3187656,-0.0118780943 34.585741,-0.0258158271 34.7636982,0.0422870011 Z M31.2347383,28.7869714 C31.6273844,28.7869714 31.8524008,29.0163316 31.8524008,29.4165574 L31.8524008,29.4165574 L31.8524008,41.9154029 L45.3820791,41.9154029 C45.7747252,41.9154029 46.000245,42.1452761 46.000245,42.5449888 C46.000245,42.9452145 45.7747252,43.1745747 45.3820791,43.1745747 L45.3820791,43.1745747 L31.8524008,43.1745747 L31.8524008,62.8841545 C31.8524008,63.1868893 31.6163098,63.5137404 31.2352417,63.5137404 L31.2352417,63.5137404 L29.3646354,63.5137404 L29.3213437,63.9114006 C29.0233354,66.6452505 26.7102472,68.7869714 24.0558589,68.7869714 C21.3460975,68.7869714 19.0828451,66.6914304 18.7903741,63.9129399 L18.7903741,63.9129399 L18.7485925,63.5137404 L14.2673932,63.5137404 L14.2241014,63.9114006 C13.9260931,66.6452505 11.6130049,68.7869714 8.95861662,68.7869714 C6.20455665,68.7869714 3.89247523,66.652434 3.694642,63.927307 L3.694642,63.927307 L3.66443846,63.5137404 L0.617907489,63.5137404 C0.225261396,63.5137404 0.00024498104,63.2838671 0.00024498104,62.8841545 L0.00024498104,62.8841545 L0.00024498104,47.6027137 C0.00024498104,45.5251314 1.33121456,43.8021082 3.23756168,43.4136839 L3.23756168,43.4136839 L3.58993638,43.3423617 L3.58993638,33.0750314 C3.58993638,32.6753187 3.81495279,32.4459586 4.2070955,32.4459586 L4.2070955,32.4459586 L18.2492273,32.4459586 C20.1847711,32.4459586 21.933053,33.6481752 22.7012299,35.5087119 L22.7012299,35.5087119 L29.6485488,48.4780792 L30.6175792,48.971691 L30.6175792,29.4165574 C30.6175792,29.0163316 30.8425956,28.7869714 31.2347383,28.7869714 Z M24.0558589,59.317014 C21.7971371,59.317014 20.0277127,61.1200824 20.0277127,63.4224068 C20.0277127,65.7247312 21.7971371,67.5277996 24.0558589,67.5277996 C26.3145807,67.5277996 28.0840051,65.7247312 28.0840051,63.4224068 C28.0840051,61.1200824 26.3145807,59.317014 24.0558589,59.317014 Z M8.95861662,59.317014 C6.6993914,59.317014 4.93047041,61.1200824 4.93047041,63.4224068 C4.93047041,65.7247312 6.6993914,67.5277996 8.95861662,67.5277996 C11.142333,67.5277996 12.9867628,65.6477647 12.9867628,63.4224068 C12.9867628,61.1200824 11.2173384,59.317014 8.95861662,59.317014 Z M46.3944092,51.7869714 C46.6565753,51.7869714 46.9375694,51.9752349 46.9911466,52.2857894 L47.000245,52.3937463 L47.000245,63.1801965 C47.000245,63.5273489 46.8211797,63.7411147 46.5048711,63.7803963 L46.3944092,63.7869714 L35.6065753,63.7869714 C35.2598394,63.7869714 35.0461006,63.6079209 35.0068202,63.2909174 L35.000245,63.1801965 L35.000245,52.3937463 C35.000245,52.047039 35.1793103,51.8329172 35.4959794,51.7935599 L35.6065753,51.7869714 L46.3944092,51.7869714 Z M61.3939396,51.7869714 C61.7406612,51.7869714 61.9543913,51.9664225 61.9936701,52.2831457 L62.000245,52.3937463 L62.000245,63.1801965 C62.000245,63.5273489 61.8211871,63.7411147 61.504531,63.7803963 L61.3939396,63.7869714 L50.6065504,63.7869714 C50.2598287,63.7869714 50.0460987,63.6079209 50.0068199,63.2909174 L50.000245,63.1801965 L50.000245,52.3937463 C50.000245,52.047039 50.1793029,51.8329172 50.495959,51.7935599 L50.6065504,51.7869714 L61.3939396,51.7869714 Z M45.7870897,61.1071725 L36.2134003,61.1071725 L36.2134003,62.5734216 L45.7870897,62.5734216 L45.7870897,61.1071725 Z M60.5522334,61.1091506 L51.2138448,61.1091506 L51.2138448,62.5729271 L60.5522334,62.5729271 L60.5522334,61.1091506 Z M30.6175792,55.7652669 L1.23506661,55.7652669 L1.23506661,62.2550817 L3.69766236,62.2550817 L3.78575603,61.9256651 C4.38529641,59.6844008 6.51615656,58.0578422 8.8534076,58.0578422 C11.2289165,58.0578422 13.2198335,59.5812657 13.9235761,61.9379797 L13.9235761,61.9379797 L14.0177105,62.2550817 L18.795408,62.2550817 L18.8829983,61.9256651 C19.4825387,59.6844008 21.6133988,58.0578422 23.9506499,58.0578422 C26.3266621,58.0578422 28.3170758,59.5812657 29.0208184,61.9379797 L29.0208184,61.9379797 L29.1154562,62.2550817 L30.6175792,62.2550817 L30.6175792,55.7652669 Z M14.0418733,44.5733124 L4.2070955,44.5733124 C2.56855314,44.5733124 1.23506661,45.9807731 1.23506661,47.7104667 L1.23506661,47.7104667 L1.23506661,54.5066082 L30.7232916,54.5066082 L30.7232916,50.5643843 L25.7291353,47.8233509 L25.7291353,51.3694539 C25.7291353,51.7696796 25.5041189,51.9990398 25.1114728,51.9990398 L25.1114728,51.9990398 L14.6595359,51.9990398 C14.2673932,51.9990398 14.0418733,51.7696796 14.0418733,51.3694539 L14.0418733,51.3694539 L14.0418733,44.5733124 Z M18.6871787,33.5968642 L4.8252614,33.5968642 L4.8252614,43.2074137 L13.709131,43.2074137 C14.6318493,43.2074137 15.3824074,43.9724607 15.3824074,44.9124781 L15.3824074,44.9124781 L15.3824074,50.632628 L24.6000261,50.632628 L24.6000261,47.7109799 C24.6000261,47.3938779 24.6911401,46.9608131 25.1260712,46.694509 L25.1260712,46.694509 L25.1628188,46.6693666 C25.4135083,46.4784897 25.8383715,46.4487294 26.2415888,46.5888084 L26.2415888,46.5888084 L28.4258086,48.8192974 L21.5716173,35.9643535 L21.5373866,35.9643535 C20.9861719,34.7703467 19.9300546,33.987854 18.6871787,33.8380259 L18.6871787,33.8380259 L18.6871787,33.5968642 Z M61.3939396,36.7869714 C61.7406612,36.7869714 61.9543913,36.9660293 61.9936701,37.2826854 L62.000245,37.3932768 L62.000245,48.1806661 C62.000245,48.5273877 61.8211871,48.7411177 61.504531,48.7803965 L61.3939396,48.7869714 L50.6065504,48.7869714 C50.2696206,48.7869714 50.0480571,48.5318039 50.0071136,48.2684246 L50.000245,48.1806661 L50.000245,37.3932768 C50.000245,37.0465552 50.1793029,36.8328251 50.495959,36.7935463 L50.6065504,36.7869714 L61.3939396,36.7869714 Z M60.6338325,46.0600809 L51.2138448,46.0600809 L51.2138448,47.5738661 L60.6338325,47.5738661 L60.6338325,46.0600809 Z M46.3944092,27.7869714 C46.7407,27.7869714 46.9543943,27.9660293 46.9936703,28.2830459 L47.000245,28.3937714 L47.000245,39.1806661 C47.000245,39.5273877 46.8211797,39.7411177 46.5048711,39.7803965 L46.3944092,39.7869714 L35.6065753,39.7869714 C35.2598394,39.7869714 35.0461006,39.6079135 35.0068202,39.2912574 L35.000245,39.1806661 L35.000245,28.3937714 C35.000245,28.0466047 35.1793103,27.8328301 35.4959794,27.7935468 L35.6065753,27.7869714 L46.3944092,27.7869714 Z M45.913697,36.8048985 L36.2134003,36.8048985 L36.2134003,38.4700129 L45.913697,38.4700129 L45.913697,36.8048985 Z M34.4574851,1.3030072 L2.6117187,22.9755546 L66.3032516,22.9755546 L34.4574851,1.3030072 Z M35.000245,6.78697144 C38.3085776,6.78697144 41.000245,9.47874972 41.000245,12.7872187 C41.000245,16.0951932 38.3085776,18.7869714 35.000245,18.7869714 C31.6924069,18.7869714 29.000245,16.0951932 29.000245,12.7872187 C29.000245,9.47874972 31.6924069,6.78697144 35.000245,6.78697144 Z M35.000245,8.00007673 C32.3609967,8.00007673 30.2133003,10.1473671 30.2133003,12.7872187 C30.2133003,15.4265758 32.3609967,17.5738661 35.000245,17.5738661 C37.6394933,17.5738661 39.7866952,15.4265758 39.7866952,12.7872187 C39.7866952,10.1473671 37.6394933,8.00007673 35.000245,8.00007673 Z" id="Combined-Shape" fill="#FFFFFF"></path>
    </g>
</svg>