<?xml version="1.0" encoding="UTF-8"?>
<svg width="34px" height="35px" viewBox="0 0 34 35" version="1.1" xmlns="http://www.w3.org/2000/svg" xmlns:xlink="http://www.w3.org/1999/xlink">
    <title>arrow_down</title>
    <g id="Page-1" stroke="none" stroke-width="1" fill="none" fill-rule="evenodd">
        <g id="1a_BD_Home" transform="translate(-703.000000, -1900.000000)" fill="#FFFFFF" fill-rule="nonzero">
            <g id="down" transform="translate(703.000000, 1900.500000)">
                <path d="M17,0 C7.62635937,0 0,7.62562891 0,17 C0,26.3743711 7.62635937,34 17,34 C26.3736406,34 34,26.3743711 34,17 C34,7.62562891 26.3736406,0 17,0 Z M17,32.5833555 C8.40729687,32.5833555 1.41664453,25.5927031 1.41664453,17 C1.41664453,8.40729687 8.40729687,1.41664453 17,1.41664453 C25.5927031,1.41664453 32.5833555,8.40729687 32.5833555,17 C32.5833555,25.5927031 25.5927031,32.5833555 17,32.5833555 Z" id="Shape"></path>
                <path d="M24.7908608,13.2253793 L17.5,21.1430233 L10.2091392,13.2253793 C9.93242494,12.9248736 9.48418362,12.9248736 9.20753573,13.2253793 C8.93082142,13.525885 8.93082142,14.0126653 9.20753573,14.3130989 L16.999165,22.7746387 C17.137489,22.9248555 17.3187777,23 17.5,23 C17.6812223,23 17.8624446,22.9248555 18.000835,22.7746387 L25.7924643,14.3130989 C26.0691786,14.0125932 26.0691786,13.5258129 25.7924643,13.2253793 C25.51575,12.9248736 25.0675087,12.9248736 24.7908608,13.2253793 Z" id="Path"></path>
            </g>
        </g>
    </g>
</svg>