<?xml version="1.0" encoding="UTF-8"?>
<svg width="109px" height="109px" viewBox="0 0 109 109" version="1.1" xmlns="http://www.w3.org/2000/svg" xmlns:xlink="http://www.w3.org/1999/xlink">
    <title>A6D6B731-C8BA-496C-8EA2-53DAF85202DD</title>
    <defs>
        <filter id="filter-1">
            <feColorMatrix in="SourceGraphic" type="matrix" values="0 0 0 0 1.000000 0 0 0 0 1.000000 0 0 0 0 1.000000 0 0 0 1.000000 0"></feColorMatrix>
        </filter>
    </defs>
    <g id="Page-1" stroke="none" stroke-width="1" fill="none" fill-rule="evenodd">
        <g id="3_BD_Home" transform="translate(-666.000000, -2171.000000)">
            <g id="Customer_Service" transform="translate(666.000000, 2171.000000)">
                <g id="Group-5" fill="#0E7ABF">
                    <circle id="Oval" cx="54.5" cy="54.5" r="54.5"></circle>
                </g>
                <g filter="url(#filter-1)">
                    <g transform="translate(20.499849, 20.689443)">
                        <path d="M33.7793778,-4.97379915e-14 C41.2689481,-4.97379915e-14 48.3107259,2.91694815 53.6076741,8.21339259 C58.9046222,13.5093333 61.8210667,20.5511111 61.820563,28.0411852 L61.820563,28.0411852 L61.820563,28.7373037 L61.9822519,28.7609778 C65.1616296,29.2238815 67.5587556,31.9977778 67.5587556,35.2139259 L67.5587556,35.2139259 L67.5587556,49.5589037 C67.5587556,53.1558519 64.632237,56.0828741 61.0347852,56.0828741 C57.4373333,56.0828741 54.5103111,53.1558519 54.5103111,49.5589037 L54.5103111,49.5589037 L54.5103111,35.2139259 C54.5103111,31.9982815 56.9079407,29.2243852 60.0863111,28.7614815 L60.0863111,28.7614815 L60.2485037,28.7378074 L60.2485037,28.0411852 C60.2485037,13.4463704 48.3741926,1.57205926 33.7793778,1.57205926 C19.1840593,1.57205926 7.31025185,13.4463704 7.31025185,28.0411852 L7.31025185,28.0411852 L7.31025185,28.7378074 L7.47194074,28.7609778 C10.6508148,29.2238815 13.0484444,31.9982815 13.0484444,35.2139259 L13.0484444,35.2139259 L13.0484444,49.5589037 C13.0484444,52.790163 10.7319111,55.4985778 7.54094815,55.9987556 L7.54094815,55.9987556 L7.35659259,56.0279704 L7.38278519,56.2123259 C7.83863704,59.3821333 10.4936593,61.6830519 13.6967111,61.6830519 L13.6967111,61.6830519 L28.4990519,61.6830519 L28.5272593,61.5274074 C28.9826074,58.9776593 31.1918519,57.1275556 33.7793778,57.1275556 C36.7245333,57.1275556 39.1206519,59.5236741 39.1206519,62.4688296 C39.1206519,65.4144889 36.7245333,67.8106074 33.7793778,67.8106074 C31.1918519,67.8106074 28.9826074,65.9605037 28.5272593,63.4107556 L28.5272593,63.4107556 L28.4990519,63.2551111 L13.6967111,63.2551111 C9.71291852,63.2551111 6.24340741,60.1502815 5.79762963,56.1871407 L5.79762963,56.1871407 L5.78100741,56.0410667 L5.63543704,56.0214222 C2.42281481,55.5837037 -2.84217094e-13,52.8052741 -2.84217094e-13,49.5589037 L-2.84217094e-13,49.5589037 L-2.84217094e-13,35.2139259 C-2.84217094e-13,31.9982815 2.39762963,29.2238815 5.5765037,28.7609778 L5.5765037,28.7609778 L5.73819259,28.7378074 L5.73819259,28.0411852 C5.73819259,20.5516148 8.65514074,13.509837 13.9515852,8.21339259 C19.2480296,2.91694815 26.2898074,-4.97379915e-14 33.7793778,-4.97379915e-14 Z M26.7530086,22.810557 C30.5794481,22.810557 32.6875352,25.0223009 32.6875352,28.0568645 C32.6875352,30.8602818 30.6317232,33.0981063 28.1846238,35.2582001 L28.1846238,35.2582001 L26.623097,36.5443356 L26.623097,36.5959855 L33.0001511,36.5959855 L33.0001511,39.810557 L21.0001511,39.810557 L21.0001511,37.4443747 L23.1869098,35.4898579 C26.8834377,32.2236365 28.6794265,30.3458276 28.7311841,28.3913109 C28.7311841,27.0284676 27.8984043,25.9479093 25.9461075,25.9479093 C24.4886135,25.9479093 23.2127886,26.6684519 22.3282512,27.3368332 L22.3282512,27.3368332 L21.2087342,24.533416 C22.4840416,23.5817269 24.4622171,22.810557 26.7530086,22.810557 Z M45.0113792,22.810557 L45.0113792,32.7749804 L47.0001511,32.7749804 L47.0001511,35.7568709 L45.0113792,35.7568709 L45.0113792,39.810557 L41.3409698,39.810557 L41.3409698,35.7568709 L34.0001511,35.7568709 L34.0001511,33.1676081 L40.2710673,22.810557 L45.0113792,22.810557 Z M41.4686891,25.8444512 L41.3668178,25.8444512 C40.8311063,26.9427687 40.3982798,27.9365589 39.8372271,29.0088746 L39.8372271,29.0088746 L37.6198782,32.7229767 L37.6198782,32.7749804 L41.3409698,32.7749804 L41.3409698,29.0088746 C41.3409698,27.9890826 41.3926657,26.9427687 41.4686891,25.8444512 L41.4686891,25.8444512 Z" id="Combined-Shape" fill="#0A2540"></path>
                    </g>
                </g>
            </g>
        </g>
    </g>
</svg>