<?xml version="1.0" standalone="no"?>
<!DOCTYPE svg PUBLIC "-//W3C//DTD SVG 20010904//EN"
 "http://www.w3.org/TR/2001/REC-SVG-20010904/DTD/svg10.dtd">
<svg version="1.0" xmlns="http://www.w3.org/2000/svg"
 width="1404.000000pt" height="1734.000000pt" viewBox="0 0 1404.000000 1734.000000"
 preserveAspectRatio="xMidYMid meet">

<g transform="translate(0.000000,1734.000000) scale(0.100000,-0.100000)"
fill="#000000" stroke="none">
<path d="M0 8670 l0 -8670 7020 0 7020 0 0 8670 0 8670 -7020 0 -7020 0 0
-8670z m7835 8051 c6 -21 -3 -51 -16 -51 -15 0 -10 -37 6 -50 13 -11 12 -16
-10 -42 -21 -25 -25 -40 -25 -92 0 -89 -34 -130 -74 -90 -12 11 -16 35 -16 85
0 44 -6 81 -16 101 -15 29 -15 32 5 59 12 15 21 32 21 38 0 5 14 21 31 35 37
31 85 35 94 7z m-327 -79 c3 -53 5 -60 20 -55 9 4 22 14 29 24 16 21 43 28 71
18 21 -8 32 -39 13 -39 -12 0 -51 -63 -51 -83 0 -9 14 -32 31 -51 36 -42 35
-70 -3 -74 -19 -2 -36 5 -52 21 -36 36 -49 37 -63 5 -14 -32 -43 -37 -67 -12
-12 11 -16 36 -16 95 0 43 -3 79 -7 79 -19 0 -80 -27 -90 -40 -7 -8 -13 -38
-13 -67 0 -55 -17 -83 -50 -83 -30 0 -40 32 -40 132 0 113 12 139 57 123 15
-6 42 -8 58 -5 17 4 38 3 48 -2 25 -13 37 -1 37 37 0 40 21 56 59 46 24 -7 26
-12 29 -69z m-1725 42 c23 -15 44 -31 45 -35 5 -12 39 -11 47 1 9 15 58 12 80
-4 16 -11 20 -30 23 -90 4 -67 7 -76 23 -76 17 0 19 8 19 70 0 78 19 110 65
110 34 0 42 -21 50 -141 10 -150 10 -149 -118 -149 -111 1 -147 15 -147 59 0
23 -28 40 -39 25 -3 -5 -25 -24 -47 -42 -36 -27 -50 -32 -98 -32 -69 0 -107
18 -141 67 -21 31 -25 49 -25 106 0 67 1 68 45 112 44 44 46 45 110 45 53 0
73 -5 108 -26z m755 14 c5 -7 15 -40 22 -73 19 -89 26 -96 39 -37 6 29 17 68
25 87 13 30 20 35 49 35 43 0 50 -9 75 -90 l19 -64 17 31 c9 18 16 44 16 58 0
41 17 65 48 65 48 0 57 -12 44 -62 -6 -23 -16 -63 -21 -88 -24 -109 -41 -164
-53 -172 -7 -4 -31 -7 -52 -6 -37 3 -40 5 -55 53 -30 89 -35 93 -55 38 -34
-95 -33 -93 -73 -93 -21 0 -44 4 -51 9 -13 8 -29 65 -53 186 -5 28 -15 62 -21
77 -5 15 -8 34 -4 43 7 18 69 20 84 3z m1414 -88 c9 -125 1 -208 -22 -220 -13
-7 -52 -5 -61 4 -1 0 -5 70 -8 154 -4 97 -2 154 4 156 6 3 26 4 45 3 l35 -2 7
-95z m-1599 11 c19 -19 2 -56 -33 -72 -38 -18 -47 -39 -49 -111 -1 -42 -4 -48
-25 -54 -35 -8 -63 3 -70 29 -3 12 -6 60 -6 106 0 113 8 122 103 115 39 -2 75
-8 80 -13z m782 5 c19 -8 35 -19 35 -24 0 -5 9 -19 20 -32 13 -14 20 -37 20
-62 0 -32 -7 -46 -44 -83 -40 -42 -47 -45 -96 -45 -87 0 -140 50 -140 132 0
102 100 157 205 114z m1067 -13 c28 -25 48 -67 48 -98 0 -41 -30 -95 -64 -116
-34 -21 -106 -25 -137 -8 -28 14 -79 88 -79 113 0 41 46 110 81 124 44 16 126
8 151 -15z m296 9 c11 -11 22 -39 26 -63 l8 -44 16 24 c10 14 22 38 27 55 8
24 16 31 35 31 23 0 25 -3 23 -45 -3 -108 -40 -200 -79 -200 -40 0 -63 20 -71
62 -12 59 -39 64 -48 8 -5 -27 -15 -46 -31 -56 -30 -21 -72 -11 -83 19 -22 59
-42 136 -44 172 -2 38 -1 40 27 40 16 0 32 -7 36 -15 4 -8 16 -32 26 -53 l19
-38 10 46 c15 70 64 96 103 57z m-4598 -544 c6 -13 15 -30 22 -39 6 -9 8 -24
5 -33 -10 -24 -80 -18 -85 7 -3 15 33 87 44 87 3 0 9 -10 14 -22z m93 -42
c-10 -46 -26 -48 -33 -4 -7 42 9 73 28 55 9 -9 10 -24 5 -51z m6145 34 c7 0
12 -6 12 -12 0 -7 7 -2 16 10 12 18 19 20 30 11 10 -8 11 -16 4 -29 -6 -10
-10 -28 -10 -39 0 -14 -5 -19 -15 -15 -8 4 -15 12 -15 20 0 10 -6 8 -21 -7
-29 -29 -53 -21 -59 21 -3 19 -1 43 4 52 9 15 12 15 26 3 9 -8 22 -15 28 -15z
m-4193 3 c29 3 29 -66 1 -71 -11 -2 -25 4 -32 13 -8 11 -21 16 -34 12 -11 -3
-23 0 -28 7 -4 7 -16 18 -27 24 -18 10 -18 11 10 12 17 0 37 4 44 9 9 6 22 6
31 1 9 -5 25 -8 35 -7z m3687 -38 c-7 -55 -22 -52 -22 6 0 41 3 49 13 41 8 -7
11 -25 9 -47z m-5520 24 c13 19 24 22 64 19 26 -2 49 -7 50 -13 2 -5 -8 -23
-21 -39 -19 -24 -26 -27 -38 -18 -11 10 -20 8 -42 -10 l-28 -22 -23 30 c-24
29 -30 55 -17 68 4 4 15 -3 24 -15 l16 -22 15 22z m891 -5 c-4 -10 -9 -12 -15
-6 -12 12 -1 35 12 27 5 -3 6 -13 3 -21z m1125 9 c2 -8 -5 -13 -17 -13 -11 0
-23 -4 -26 -10 -3 -5 -17 -10 -31 -10 -15 0 -24 -6 -24 -15 0 -8 -4 -15 -10
-15 -5 0 -10 11 -10 25 0 20 8 30 33 40 37 17 79 16 85 -2z m225 11 c9 -10 -4
-34 -18 -34 -17 0 -28 17 -20 30 7 11 28 13 38 4z m363 -5 c11 -19 -13 -34
-31 -19 -13 11 -13 15 -3 21 18 12 26 11 34 -2z m421 -18 c16 16 52 -9 46 -32
-7 -25 -30 -31 -48 -13 -8 9 -15 11 -15 5 0 -6 -7 -11 -15 -11 -9 0 -15 9 -15
24 0 14 -5 28 -11 32 -8 4 -7 9 2 15 9 6 19 2 29 -12 11 -14 18 -17 27 -8z
m313 -38 c0 -7 -4 -13 -10 -13 -5 0 -13 -1 -17 -1 -13 -3 -21 70 -9 74 11 4
35 -37 36 -60z m-3143 35 c-3 -8 -6 -5 -6 6 -1 11 2 17 5 13 3 -3 4 -12 1 -19z
m289 11 c3 -6 15 -9 25 -6 16 4 19 0 19 -29 0 -32 -2 -34 -27 -28 -39 9 -40
10 -51 44 -10 26 -9 30 8 30 10 0 22 -5 26 -11z m1193 -21 c-5 -18 -9 -34 -9
-35 0 -2 -9 -3 -20 -3 -40 0 -14 69 27 70 8 0 9 -9 2 -32z m1191 23 c0 -5 -9
-7 -20 -4 -11 3 -20 7 -20 9 0 2 9 4 20 4 11 0 20 -4 20 -9z m1576 -43 c-17
-28 -26 -21 -26 17 0 34 1 34 18 18 14 -14 16 -22 8 -35z m1814 46 c0 -12 -31
-35 -41 -32 -8 3 -6 10 5 21 17 17 36 23 36 11z m-5153 -24 c16 0 23 -6 23
-19 0 -15 -7 -19 -35 -19 -32 0 -35 2 -35 31 0 24 3 28 12 19 7 -7 22 -12 35
-12z m1263 -22 c0 -10 -4 -18 -9 -18 -13 0 -21 27 -14 46 5 13 7 13 14 2 5 -7
9 -21 9 -30z m90 7 c0 -27 -15 -41 -25 -25 -10 16 4 62 15 55 6 -3 10 -17 10
-30z m-910 0 c0 -14 -4 -25 -10 -25 -11 0 -14 33 -3 43 11 11 13 8 13 -18z
m1167 -22 c-4 -17 -4 -17 -12 0 -4 9 -4 25 0 35 8 16 8 16 12 0 3 -10 3 -26 0
-35z m1203 22 c0 -20 -5 -25 -25 -25 -18 0 -25 5 -25 18 0 24 8 32 32 32 13 0
18 -7 18 -25z m1500 0 c0 -16 -6 -25 -15 -25 -28 0 -18 40 13 49 1 1 2 -10 2
-24z m347 -6 c-16 -26 -27 -24 -27 5 0 19 4 23 19 19 17 -4 18 -8 8 -24z m126
25 c21 -8 9 -44 -14 -44 -14 0 -19 7 -19 25 0 25 7 29 33 19z m-5576 -36 c-3
-7 -5 -2 -5 12 0 14 2 19 5 13 2 -7 2 -19 0 -25z m903 11 c0 -11 -4 -17 -10
-14 -5 3 -10 13 -10 21 0 8 5 14 10 14 6 0 10 -9 10 -21z m117 -11 c-3 -7 -5
-2 -5 12 0 14 2 19 5 13 2 -7 2 -19 0 -25z m695 -10 c-13 -13 -24 5 -16 27 7
16 8 16 17 0 6 -11 6 -20 -1 -27z m158 38 c0 -3 -4 -8 -10 -11 -5 -3 -10 -1
-10 4 0 6 5 11 10 11 6 0 10 -2 10 -4z m740 -16 c0 -11 -4 -20 -10 -20 -5 0
-10 9 -10 20 0 11 5 20 10 20 6 0 10 -9 10 -20z m237 -12 c-3 -7 -5 -2 -5 12
0 14 2 19 5 13 2 -7 2 -19 0 -25z m936 12 c-3 -11 -14 -20 -24 -20 -12 0 -19
7 -19 20 0 14 7 20 24 20 19 0 23 -4 19 -20z m465 13 c-9 -2 -19 -12 -21 -21
-3 -12 -5 -10 -6 6 -1 17 4 22 22 21 15 -1 17 -3 5 -6z m429 -25 c-3 -7 -5 -2
-5 12 0 14 2 19 5 13 2 -7 2 -19 0 -25z m296 15 c-4 -10 -13 -24 -20 -31 -11
-11 -13 -8 -13 17 0 24 4 31 20 31 14 0 18 -5 13 -17z m322 7 c-3 -5 -10 -10
-16 -10 -5 0 -9 5 -9 10 0 6 7 10 16 10 8 0 12 -4 9 -10z m522 -22 c-3 -7 -5
-2 -5 12 0 14 2 19 5 13 2 -7 2 -19 0 -25z m-2640 0 c-3 -8 -6 -5 -6 6 -1 11
2 17 5 13 3 -3 4 -12 1 -19z m-828 -435 c52 -43 409 -323 479 -376 66 -49 87
-65 109 -86 12 -11 39 -33 61 -48 93 -66 180 -139 185 -155 5 -16 -5 -18 -110
-18 -77 0 -125 -5 -146 -14 -18 -8 -79 -16 -137 -19 -100 -5 -170 -23 -185
-47 -4 -6 -55 -10 -125 -10 -92 0 -122 -3 -134 -15 -11 -11 -40 -15 -120 -15
l-105 0 35 35 c19 19 37 35 40 35 8 0 74 74 74 83 0 4 7 7 15 7 8 0 15 7 15
15 0 8 6 15 13 15 14 0 77 66 77 81 0 5 7 9 15 9 18 0 20 40 4 90 -6 19 -17
60 -24 90 -7 30 -21 80 -30 110 -9 30 -21 75 -27 100 -6 25 -14 50 -18 55 -5
6 -11 31 -15 58 -9 56 4 61 54 20z m-2694 -1068 c-5 -2 -22 -6 -36 -9 -22 -5
-35 -24 -75 -103 -51 -105 -104 -196 -115 -201 -4 -2 -19 -26 -34 -55 -32 -64
-62 -104 -70 -95 -6 6 50 129 85 183 10 17 28 48 40 70 54 107 87 161 103 173
10 8 23 20 30 27 7 8 28 14 47 14 19 0 31 -2 25 -4z m603 -2 c-21 -2 -57 -2
-80 0 -24 2 -7 4 37 4 44 0 63 -2 43 -4z m140 0 c-10 -2 -28 -2 -40 0 -13 2
-5 4 17 4 22 1 32 -1 23 -4z m80 0 c-10 -2 -28 -2 -40 0 -13 2 -5 4 17 4 22 1
32 -1 23 -4z m355 0 c-7 -2 -21 -2 -30 0 -10 3 -4 5 12 5 17 0 24 -2 18 -5z
m34 -65 c-3 -8 -6 -5 -6 6 -1 11 2 17 5 13 3 -3 4 -12 1 -19z m90 -150 c-3 -7
-5 -2 -5 12 0 14 2 19 5 13 2 -7 2 -19 0 -25z m30 -50 c-3 -7 -5 -2 -5 12 0
14 2 19 5 13 2 -7 2 -19 0 -25z m93 -149 c0 -11 -4 -18 -10 -14 -5 3 -7 12 -3
20 7 21 13 19 13 -6z m27 -61 c-3 -7 -5 -2 -5 12 0 14 2 19 5 13 2 -7 2 -19 0
-25z m-1787 -18 c0 -11 -6 -20 -14 -20 -9 0 -12 7 -9 20 3 11 9 20 14 20 5 0
9 -9 9 -20z m-30 -42 c0 -7 -4 -19 -9 -26 -7 -11 -10 -10 -15 3 -3 9 -4 21 0
26 8 13 24 11 24 -3z m-43 -70 c-3 -8 -6 -5 -6 6 -1 11 2 17 5 13 3 -3 4 -12
1 -19z m1950 -20 c-3 -8 -6 -5 -6 6 -1 11 2 17 5 13 3 -3 4 -12 1 -19z m-1974
-18 c-3 -11 -7 -20 -9 -20 -2 0 -4 9 -4 20 0 11 4 20 9 20 5 0 7 -9 4 -20z
m2004 -42 c-3 -7 -5 -2 -5 12 0 14 2 19 5 13 2 -7 2 -19 0 -25z m-2034 -18
c-8 -29 -21 -25 -15 5 2 14 8 23 12 20 5 -3 6 -14 3 -25z m-33 -57 c0 -20 -3
-24 -11 -16 -7 7 -9 19 -6 27 10 24 17 19 17 -11z m-33 -55 c-3 -8 -6 -5 -6 6
-1 11 2 17 5 13 3 -3 4 -12 1 -19z m2190 -20 c-3 -7 -5 -2 -5 12 0 14 2 19 5
13 2 -7 2 -19 0 -25z m30 -60 c-3 -7 -5 -2 -5 12 0 14 2 19 5 13 2 -7 2 -19 0
-25z m-2274 -18 c-7 -28 -13 -25 -13 6 0 14 4 23 9 20 5 -3 7 -15 4 -26z m-30
-56 c-4 -12 -8 -13 -14 -3 -9 15 -2 32 11 24 5 -3 6 -13 3 -21z m2364 -16 c-3
-8 -6 -5 -6 6 -1 11 2 17 5 13 3 -3 4 -12 1 -19z m-1632 -12 c29 -13 34 -18
27 -36 -9 -25 -8 -25 -46 -10 -67 25 -122 -30 -82 -82 17 -22 72 -24 93 -2 9
8 24 13 34 11 12 -3 19 3 24 22 12 47 33 61 92 61 51 0 55 -2 66 -30 l11 -29
13 29 c12 29 14 30 77 30 53 0 67 -4 79 -20 14 -20 14 -20 35 1 18 16 33 19
79 17 47 -3 57 -7 64 -25 11 -30 -13 -50 -34 -28 -21 21 -50 19 -64 -5 -26
-41 6 -66 56 -43 42 21 61 5 38 -30 -21 -33 -70 -41 -114 -20 -28 13 -39 14
-54 5 -31 -19 -39 -14 -39 26 0 54 -9 80 -31 85 -25 7 -49 -27 -49 -69 0 -17
-6 -37 -14 -43 -12 -10 -17 -7 -29 15 -14 27 -15 27 -25 7 -13 -24 -65 -45
-90 -36 -9 4 -30 17 -46 30 l-29 24 -33 -32 c-29 -29 -37 -31 -76 -26 -59 8
-98 51 -98 108 0 88 76 132 165 95z m-769 -33 c-10 -10 -19 5 -10 18 6 11 8
11 12 0 2 -7 1 -15 -2 -18z m1797 2 c16 -23 17 -27 3 -47 -20 -29 -20 -64 0
-72 21 -8 14 -50 -10 -54 -10 -2 -32 9 -50 27 l-33 32 -11 -25 c-11 -25 -66
-44 -96 -33 -10 4 -16 -6 -21 -39 -9 -62 -32 -59 -41 7 -8 58 -21 68 -58 44
-31 -20 -70 -14 -103 17 -30 28 -31 90 -3 118 23 23 89 27 120 8 15 -9 24 -9
42 0 14 8 51 12 93 10 64 -3 70 -5 76 -28 l7 -25 1 27 c2 44 11 58 40 58 16
-1 33 -10 44 -25z m637 -10 c0 -14 -2 -25 -4 -25 -2 0 -6 11 -8 25 -3 14 -1
25 3 25 5 0 9 -11 9 -25z m-2450 -30 c0 -13 -4 -27 -10 -30 -11 -7 -25 39 -15
55 10 16 25 2 25 -25z m2447 -62 c-3 -10 -5 -4 -5 12 0 17 2 24 5 18 2 -7 2
-21 0 -30z m-2430 -5 c-3 -7 -5 -2 -5 12 0 14 2 19 5 13 2 -7 2 -19 0 -25z
m30 -60 c-3 -7 -5 -2 -5 12 0 14 2 19 5 13 2 -7 2 -19 0 -25z m2340 -30 c-3
-7 -5 -2 -5 12 0 14 2 19 5 13 2 -7 2 -19 0 -25z m-2304 -18 c-7 -28 -13 -25
-13 6 0 14 4 23 9 20 5 -3 7 -15 4 -26z m2274 -42 c-3 -7 -5 -2 -5 12 0 14 2
19 5 13 2 -7 2 -19 0 -25z m-1304 -21 c-5 -30 10 -49 31 -41 13 5 17 15 14 35
-4 28 -3 29 36 31 23 1 50 1 61 0 83 -7 122 -7 133 1 8 6 12 5 12 -3 0 -8 8
-10 23 -5 40 12 161 14 192 3 21 -7 41 -7 68 0 28 8 46 8 64 -1 18 -8 29 -8
44 1 33 21 68 15 79 -14 13 -34 13 -67 -2 -98 -21 -48 -78 -41 -78 9 0 18 -4
22 -20 18 -14 -4 -23 2 -31 21 -11 23 -14 24 -28 12 -9 -7 -38 -20 -64 -29
l-48 -16 -10 26 -10 27 -50 -52 c-27 -29 -56 -52 -64 -52 -17 0 -30 19 -30 45
0 17 -6 19 -35 17 -19 -2 -43 -8 -53 -13 -13 -8 -19 -4 -28 15 l-12 25 -28
-24 -29 -23 -39 21 -40 22 -21 -23 c-24 -25 -25 -26 -51 -12 -19 11 -24 44
-13 87 8 28 32 19 27 -10z m1274 -29 c-3 -7 -5 -2 -5 12 0 14 2 19 5 13 2 -7
2 -19 0 -25z m-2190 0 c-3 -8 -6 -5 -6 6 -1 11 2 17 5 13 3 -3 4 -12 1 -19z
m33 -50 c0 -18 -2 -20 -9 -8 -6 8 -7 18 -5 22 9 14 14 9 14 -14z m33 -63 c-7
-21 -13 -19 -13 6 0 11 4 18 10 14 5 -3 7 -12 3 -20z m2034 -47 c-3 -7 -5 -2
-5 12 0 14 2 19 5 13 2 -7 2 -19 0 -25z m-2002 3 c3 -5 1 -12 -5 -16 -5 -3
-10 1 -10 9 0 18 6 21 15 7z m1972 -43 c-3 -8 -6 -5 -6 6 -1 11 2 17 5 13 3
-3 4 -12 1 -19z m-1950 -10 c-3 -8 -6 -5 -6 6 -1 11 2 17 5 13 3 -3 4 -12 1
-19z m36 -64 c-6 -15 -7 -15 -15 5 -10 28 1 51 13 28 5 -8 6 -23 2 -33z m33
-52 c-10 -10 -29 15 -21 28 6 9 10 8 17 -4 6 -10 7 -20 4 -24z m1791 -44 c-3
-7 -5 -2 -5 12 0 14 2 19 5 13 2 -7 2 -19 0 -25z m-1744 -19 c5 -4 7 -15 4
-25 -4 -17 -6 -17 -12 4 -4 12 -11 22 -16 22 -5 0 -9 10 -9 23 1 21 1 21 12 2
6 -11 15 -23 21 -26z m1717 -15 c0 -8 -5 -12 -10 -9 -6 4 -8 11 -5 16 9 14 15
11 15 -7z m-1680 -66 c0 -19 -2 -20 -10 -8 -13 19 -13 30 0 30 6 0 10 -10 10
-22z m1616 -43 c-9 -13 -16 -32 -16 -41 0 -9 -6 -28 -14 -42 -7 -15 -22 -47
-33 -72 -31 -70 -114 -163 -140 -158 -14 3 -12 9 12 35 44 47 55 61 55 70 0 7
57 122 83 168 16 27 50 63 61 64 4 1 1 -10 -8 -24z m-1579 -22 c-11 -10 -26 8
-20 23 5 15 7 14 15 -1 6 -9 7 -19 5 -22z m26 -38 c4 -8 2 -17 -3 -20 -6 -4
-10 3 -10 14 0 25 6 27 13 6z m67 -106 c0 -9 7 -19 15 -23 15 -5 22 -56 8 -56
-11 0 -82 147 -75 154 8 8 52 -55 52 -75z m4679 30 c-15 -9 -32 -2 -24 11 3 5
13 6 21 3 12 -4 13 -8 3 -14z m1228 5 c3 -8 -114 -8 -922 -2 -113 1 -164 4
-125 7 108 10 1044 5 1047 -5z m-5780 -144 c46 0 54 -3 49 -16 -3 -9 -6 -18
-6 -20 0 -2 -21 -4 -47 -4 -56 0 -100 27 -90 54 6 16 8 16 23 2 10 -11 34 -16
71 -16z m4450 -2 c-3 -7 -5 -2 -5 12 0 14 2 19 5 13 2 -7 2 -19 0 -25z m1215
20 c-6 -7 -12 -26 -15 -43 -3 -24 -4 -22 -6 13 -1 33 3 42 15 42 12 0 14 -3 6
-12z m-4690 -30 c21 -21 21 -22 2 -28 -10 -4 -83 -5 -162 -2 -130 4 -142 6
-128 20 13 14 21 14 51 4 34 -13 99 -8 120 8 10 8 44 16 78 19 9 0 27 -9 39
-21z m3838 -30 c-1 -41 -3 -49 -11 -36 -9 16 -3 88 7 88 2 0 4 -24 4 -52z
m-483 -170 c-3 -8 -6 -5 -6 6 -1 11 2 17 5 13 3 -3 4 -12 1 -19z m450 -10 c-3
-8 -6 -5 -6 6 -1 11 2 17 5 13 3 -3 4 -12 1 -19z m767 -22 c4 -19 1 -64 -5
-100 -9 -48 -9 -72 -1 -90 9 -20 7 -27 -9 -42 -22 -20 -25 -57 -5 -73 18 -15
27 -60 31 -151 1 -41 0 -52 -2 -25 -2 28 -10 55 -17 60 -7 6 -15 32 -18 60 -4
27 -11 51 -17 53 -15 5 -14 78 1 105 11 21 13 184 2 220 -4 12 0 17 14 17 15
0 21 -9 26 -34z m-150 -122 c23 -9 20 -34 -4 -34 -13 0 -20 7 -20 20 0 22 1
23 24 14z m-617 -41 c-3 -3 -11 -2 -17 2 -9 6 -9 10 1 16 14 8 27 -7 16 -18z
m-570 -15 c-3 -7 -5 -2 -5 12 0 14 2 19 5 13 2 -7 2 -19 0 -25z m1984 -107 c7
-20 16 -38 20 -41 13 -9 16 -48 4 -51 -12 -2 -74 99 -75 123 0 9 -4 20 -10 23
-5 3 -10 14 -10 22 0 27 58 -35 71 -76z m-261 -149 c0 -85 -11 -113 -98 -245
-24 -37 -43 -70 -41 -71 2 -2 29 0 59 6 45 7 60 15 75 39 11 16 28 29 38 29
12 0 17 8 17 28 0 16 7 37 15 48 9 12 12 31 8 52 -4 23 -1 37 9 45 9 7 24 35
34 64 10 29 24 55 32 58 24 9 49 -4 55 -28 3 -12 13 -42 22 -66 19 -52 13 -90
-20 -129 -40 -47 -115 -190 -115 -218 0 -7 -4 -16 -10 -19 -5 -3 -12 -28 -16
-55 -4 -28 -10 -50 -14 -50 -4 0 -13 -20 -19 -44 -6 -24 -22 -58 -37 -75 -30
-36 -28 -63 6 -71 20 -5 25 -12 23 -33 -2 -30 -32 -76 -50 -77 -7 0 -15 -17
-19 -37 -4 -21 -10 -42 -14 -48 -4 -5 -10 -23 -14 -40 -10 -42 -114 -250 -135
-269 -16 -15 -19 -14 -37 5 -17 19 -20 42 -24 229 -5 196 -6 209 -26 226 -26
23 -44 74 -44 125 0 58 -18 63 -179 55 -165 -9 -239 -8 -262 5 -11 6 -20 5
-24 0 -3 -6 -57 -9 -119 -9 -63 0 -119 -3 -126 -7 -14 -9 -9 -153 7 -177 4 -7
8 -40 9 -73 0 -33 3 -123 7 -200 4 -77 4 -146 -1 -153 -5 -7 -23 -16 -40 -21
-30 -9 -32 -8 -38 17 -3 15 -10 43 -15 62 -13 50 -12 277 2 285 6 5 8 27 3 62
-4 37 -2 62 6 78 11 21 10 28 -6 52 -10 15 -29 52 -41 82 -19 47 -21 61 -12
100 6 25 15 48 20 52 7 4 8 20 1 50 -5 24 -10 34 -11 21 -2 -48 -67 -34 -77
17 -8 38 -40 30 -61 -15 -20 -40 -32 -46 -64 -30 -22 11 -24 18 -27 101 -1 50
2 96 7 103 4 8 24 17 42 21 36 7 34 1 59 146 3 20 18 -33 25 -89 6 -49 10 -56
29 -55 63 6 66 3 68 -58 1 -46 2 -50 5 -18 2 22 9 45 16 50 7 6 18 21 25 35
55 107 56 107 52 9 l-1 -46 53 -6 c29 -4 76 -4 105 -1 36 5 60 2 81 -9 23 -11
32 -12 35 -3 7 16 124 8 153 -10 23 -16 34 -10 34 17 0 17 27 39 49 39 5 0 13
-9 16 -20 6 -19 14 -20 176 -18 156 3 172 1 184 -16 15 -20 11 -27 64 104 38
91 84 168 104 169 4 1 7 -34 7 -77z m-673 11 c-3 -10 -5 -2 -5 17 0 19 2 27 5
18 2 -10 2 -26 0 -35z m990 -5 c-3 -7 -5 -2 -5 12 0 14 2 19 5 13 2 -7 2 -19
0 -25z m97 -150 c-9 -14 -23 2 -17 18 4 12 8 13 14 3 4 -7 5 -17 3 -21z m36
-55 c0 -7 -4 -13 -10 -13 -5 0 -10 12 -10 28 0 21 2 24 10 12 5 -8 10 -21 10
-27z m-172 -82 c-3 -31 -10 -67 -17 -81 -18 -38 -38 -71 -50 -83 -6 -6 -11
-21 -11 -34 0 -14 -6 -23 -15 -23 -8 0 -15 -7 -15 -15 0 -8 -4 -15 -10 -15 -5
0 -18 -21 -30 -47 -46 -106 -55 -122 -65 -119 -30 9 -16 144 20 187 22 26 22
26 35 6 l13 -21 18 23 c26 32 24 43 -7 35 l-27 -7 8 49 c5 38 20 67 68 130 72
97 92 101 85 15z m195 16 c-9 -16 -24 9 -17 28 7 18 8 18 14 -1 4 -10 5 -23 3
-27z m-23 -36 c0 -22 -16 -36 -24 -22 -8 12 3 41 15 41 5 0 9 -9 9 -19z m-30
-40 c0 -17 -12 -41 -21 -41 -10 0 -12 33 -2 43 9 10 23 9 23 -2z m-37 -76 c-7
-21 -13 -19 -13 6 0 11 4 18 10 14 5 -3 7 -12 3 -20z m-23 -22 c0 -5 -5 -15
-10 -23 -8 -12 -10 -11 -10 8 0 12 5 22 10 22 6 0 10 -3 10 -7z m-36 -76 c-3
-9 -10 -17 -15 -17 -11 0 -12 34 -2 44 11 11 24 -9 17 -27z m-24 -36 c0 -17
-12 -41 -21 -41 -10 0 -12 33 -2 43 9 10 23 9 23 -2z m-34 -77 c-3 -11 -17
-31 -31 -46 -14 -15 -25 -35 -25 -46 0 -10 -5 -23 -11 -29 -13 -13 -17 -20
-74 -128 -42 -79 -55 -91 -55 -50 0 14 5 25 10 25 6 0 10 5 10 11 0 16 40 101
64 134 25 35 41 61 58 95 27 53 41 71 50 62 6 -6 7 -18 4 -28z m-1174 -96 c-8
-33 -18 -19 -14 20 4 29 6 33 12 17 4 -11 5 -28 2 -37z m115 -245 c-3 -10 -5
-4 -5 12 0 17 2 24 5 18 2 -7 2 -21 0 -30z m-810 5 c-3 -8 -6 -5 -6 6 -1 11 2
17 5 13 3 -3 4 -12 1 -19z m1656 -24 c-4 -10 -9 -12 -15 -6 -12 12 -1 35 12
27 5 -3 6 -13 3 -21z m-30 -60 c-4 -10 -9 -12 -15 -6 -12 12 -1 35 12 27 5 -3
6 -13 3 -21z m-1566 -16 c-3 -7 -5 -2 -5 12 0 14 2 19 5 13 2 -7 2 -19 0 -25z
m1543 -5 c0 -5 -5 -15 -10 -23 -8 -12 -10 -11 -10 8 0 12 5 22 10 22 6 0 10
-3 10 -7z m-1511 -40 c0 -25 -1 -25 -8 -8 -5 11 -7 23 -4 28 8 14 13 7 12 -20z
m1481 -17 c0 -8 -6 -21 -13 -28 -8 -7 -17 -27 -21 -43 -11 -46 -67 -114 -93
-115 -22 0 -22 0 3 28 15 15 33 41 41 57 26 51 68 114 76 115 4 0 7 -6 7 -14z
m-1451 -43 c0 -25 -1 -25 -8 -8 -5 11 -7 23 -4 28 8 14 13 7 12 -20z m1168
-10 c-3 -10 -5 -4 -5 12 0 17 2 24 5 18 2 -7 2 -21 0 -30z m-1072 -123 c3 -5
1 -10 -4 -10 -6 0 -11 5 -11 10 0 6 2 10 4 10 3 0 8 -4 11 -10z m-3349 -275
c8 -10 14 -30 13 -44 0 -25 -1 -25 -11 -5 -7 15 -23 24 -49 28 -21 3 -286 6
-589 5 -302 0 -554 2 -559 6 -5 3 -28 1 -50 -4 -32 -7 -41 -6 -41 4 0 19 28
22 210 25 91 1 166 2 167 3 1 1 203 2 448 1 427 0 448 -1 461 -19z m-1310 -93
c-11 -10 -15 4 -8 28 l7 25 3 -23 c2 -13 1 -26 -2 -30z m1372 -28 c8 -6 12
-17 9 -25 -4 -10 -6 -9 -6 4 -1 9 -8 17 -16 17 -9 0 -15 9 -14 23 0 15 2 17 6
7 4 -8 13 -20 21 -26z m-1388 2 c0 -8 -7 -21 -15 -30 -8 -8 -15 -21 -15 -29 0
-8 -11 -26 -25 -41 -16 -18 -25 -22 -25 -12 0 18 32 76 43 76 4 0 7 8 7 18 0
10 3 22 7 25 11 12 23 8 23 -7z m525 -23 c-3 -16 -7 -66 -9 -113 -2 -47 -13
-121 -26 -165 -12 -44 -25 -91 -29 -105 -10 -37 -43 -37 -84 -1 -19 17 -42 31
-51 31 -11 0 -18 13 -22 40 -4 22 -12 44 -19 50 -17 14 -10 131 11 223 l17 67
108 0 109 0 -5 -27z m127 -85 c4 -138 0 -178 -18 -178 -25 0 -34 47 -34 171 0
119 0 119 24 119 23 0 24 -2 28 -112z m382 97 c19 -10 44 -14 75 -10 54 7 81
-6 62 -28 -8 -10 -23 -13 -50 -10 -49 7 -55 -4 -41 -71 9 -46 14 -53 30 -49
14 4 23 -2 31 -20 6 -14 20 -28 30 -30 30 -8 22 -24 -16 -31 -19 -4 -35 -11
-35 -15 0 -5 -6 -11 -14 -14 -10 -4 -18 5 -26 31 -7 20 -18 51 -25 67 -7 17
-16 47 -20 67 -10 52 -28 65 -46 32 -15 -28 -57 -54 -89 -54 -33 0 -24 -33 19
-73 22 -20 42 -45 45 -55 8 -24 47 -42 89 -42 20 0 43 -10 61 -25 24 -20 27
-29 21 -52 -4 -15 -8 -48 -9 -73 -1 -25 -8 -55 -14 -67 -13 -24 -16 -73 -4
-88 4 -5 17 -16 30 -23 20 -11 22 -10 22 16 0 15 7 37 15 48 14 17 15 14 14
-46 -1 -36 4 -78 10 -93 6 -16 11 -44 11 -63 0 -19 5 -34 11 -34 6 0 8 7 5 16
-4 9 -2 22 3 28 7 8 41 201 41 230 0 9 40 -7 50 -19 9 -10 6 -16 -9 -25 -17
-9 -21 -20 -21 -61 0 -52 8 -61 56 -63 38 -2 33 -21 -6 -24 -46 -5 -60 -18
-60 -57 0 -28 4 -34 28 -39 15 -4 42 -2 60 3 26 8 34 7 39 -5 8 -22 -1 -27
-54 -28 -27 -1 -49 -5 -50 -11 -2 -6 34 -10 92 -10 100 0 107 4 85 45 -22 42
14 90 51 70 8 -5 22 -2 33 6 18 13 16 14 -29 14 -59 0 -95 28 -95 72 0 33 20
44 50 28 30 -16 60 -4 60 26 0 22 -4 24 -53 24 -57 0 -77 12 -77 45 0 18 5 20
43 17 33 -3 47 1 61 17 l19 21 34 -47 c18 -25 33 -51 33 -56 0 -14 33 -81 45
-92 17 -15 38 -94 36 -137 -1 -32 2 -38 19 -38 11 0 20 -4 20 -10 0 -5 6 -10
14 -10 18 0 28 -25 20 -54 -3 -13 0 -27 9 -34 12 -10 7 -26 -29 -99 -46 -94
-72 -132 -90 -133 -6 0 -23 -12 -37 -26 -31 -31 -60 -28 -66 6 l-4 25 -6 -25
c-4 -14 -17 -27 -31 -31 -23 -6 -22 -7 7 -8 33 -1 63 -23 63 -47 0 -8 -9 -23
-21 -35 -18 -18 -25 -19 -46 -10 -13 6 -53 11 -88 11 -81 0 -92 5 -105 46 -10
28 -14 33 -26 23 -27 -22 -7 -89 27 -89 5 0 23 -10 40 -22 28 -21 33 -21 91
-9 47 9 63 10 68 1 9 -15 2 -50 -15 -70 -7 -8 -21 -34 -31 -56 -12 -26 -35
-53 -61 -70 -24 -16 -43 -37 -43 -46 0 -23 -11 -23 -43 2 l-25 20 -4 -36 c-2
-20 2 -43 10 -55 17 -24 9 -81 -13 -99 -8 -7 -15 -19 -15 -26 0 -22 -34 -16
-49 8 -12 19 -11 24 8 39 23 19 27 39 11 55 -6 6 -15 39 -21 74 -6 36 -15 70
-21 78 -7 7 -11 43 -10 81 2 63 0 70 -23 85 -22 14 -25 24 -25 71 0 47 -3 55
-19 55 -15 0 -19 -7 -19 -34 0 -18 -5 -43 -11 -54 -6 -11 -11 -50 -11 -86 0
-58 2 -66 19 -66 10 0 24 7 31 15 10 11 16 13 24 5 15 -15 9 -349 -7 -368 -23
-29 -95 -52 -141 -46 -36 5 -46 12 -58 38 l-15 31 -16 -37 -16 -38 -171 0
-171 0 3 112 3 112 33 8 c34 9 40 26 20 57 -9 15 -16 17 -30 10 -19 -10 -21
-8 -32 44 -4 17 1 43 14 73 18 37 21 61 18 137 l-3 92 -47 -3 c-25 -2 -55 1
-66 7 -15 8 -23 7 -32 -4 -16 -19 -44 -19 -59 -1 -9 11 -17 11 -36 2 -28 -13
-32 -24 -10 -32 8 -4 13 -10 10 -14 -8 -13 -77 25 -90 49 l-12 23 -30 -26
c-27 -23 -32 -24 -49 -11 -10 8 -29 15 -42 15 -13 0 -33 5 -44 11 -15 8 -27 8
-47 -1 -22 -10 -28 -9 -44 11 -19 23 -19 24 2 38 28 18 26 31 -4 31 -20 0 -25
5 -25 25 0 39 78 64 97 31 7 -12 21 -13 78 -6 39 5 108 9 153 10 75 0 84 2 89
20 3 11 9 20 14 20 5 0 9 10 9 23 0 17 -2 19 -9 8 -6 -9 -32 -16 -69 -19 -52
-4 -63 -1 -82 18 l-22 22 -14 -21 c-21 -30 -115 -30 -144 -1 -11 11 -20 25
-20 30 0 6 -4 10 -8 10 -5 0 -13 12 -19 28 -10 25 -11 23 -12 -26 l-1 -53 -37
3 c-36 3 -38 5 -41 41 -2 28 -8 37 -22 37 -35 0 -50 -12 -50 -40 0 -34 -22
-54 -50 -45 -18 6 -20 14 -20 104 0 62 4 101 12 109 18 18 123 15 142 -4 13
-12 40 -15 135 -15 91 0 122 -3 131 -14 10 -12 15 -12 33 0 25 16 224 18 234
2 3 -5 9 -32 13 -61 l8 -51 1 51 c1 60 17 78 61 72 35 -5 47 6 30 27 -6 8 -7
16 -2 19 15 9 21 57 10 88 -8 22 -6 34 7 54 15 24 15 28 -3 67 -23 49 -34 155
-23 212 7 33 9 25 10 -50 1 -100 9 -120 38 -111 23 7 64 130 88 261 24 140 27
146 51 157 26 12 27 15 44 101 l11 57 92 0 c62 0 101 -5 121 -15z m261 -28
c13 -13 19 -37 16 -65 -2 -20 -51 38 -51 59 0 22 16 25 35 6z m141 -65 c-10
-10 -29 15 -21 28 6 9 10 8 17 -4 6 -10 7 -20 4 -24z m34 -32 c0 -10 -4 -21
-9 -24 -10 -7 -23 33 -15 46 8 13 24 -1 24 -22z m-1567 -30 c-3 -11 -10 -20
-15 -20 -6 0 -7 7 -4 16 3 9 6 20 6 25 0 6 4 8 9 5 5 -3 7 -15 4 -26z m1584
-37 c-3 -10 -5 -4 -5 12 0 17 2 24 5 18 2 -7 2 -21 0 -30z m-1612 -22 c-3 -12
-11 -21 -16 -21 -10 0 -12 21 -3 45 10 24 27 2 19 -24z m1513 -20 c23 -28 42
-54 42 -60 0 -6 -12 -14 -26 -17 -57 -14 -129 59 -104 106 17 32 42 24 88 -29z
m129 -3 c-3 -8 -6 -5 -6 6 -1 11 2 17 5 13 3 -3 4 -12 1 -19z m-1523 -39 c-7
-11 15 -157 28 -182 7 -13 4 -19 -14 -26 -20 -8 -25 -4 -40 28 -22 45 -22 70
-1 162 13 61 18 69 25 50 4 -13 5 -27 2 -32z m1559 1 c3 -11 1 -23 -4 -26 -5
-3 -9 6 -9 20 0 31 6 34 13 6z m37 -72 c0 -5 -4 -8 -10 -8 -5 0 -10 10 -10 23
0 18 2 19 10 7 5 -8 10 -18 10 -22z m-1807 -18 c-7 -28 -13 -25 -13 6 0 14 4
23 9 20 5 -3 7 -15 4 -26z m1627 0 c4 -18 15 -26 38 -31 39 -8 39 -8 44 -33 3
-21 -23 -33 -74 -35 -22 -1 -31 6 -48 39 -31 61 -26 94 14 88 12 -2 23 -13 26
-28z m236 -65 c4 -11 10 -22 14 -25 12 -8 16 -49 5 -50 -5 -1 -12 7 -13 17 -2
10 -14 29 -27 43 -21 23 -30 48 -26 75 2 13 39 -34 47 -60z m-1896 13 c0 -16
-3 -19 -11 -11 -6 6 -8 16 -5 22 11 17 16 13 16 -11z m-33 -60 c-3 -8 -6 -5
-6 6 -1 11 2 17 5 13 3 -3 4 -12 1 -19z m1984 -91 c-11 -11 -25 28 -15 45 5 7
10 3 16 -12 5 -14 5 -27 -1 -33z m26 -39 c-3 -7 -5 -2 -5 12 0 14 2 19 5 13 2
-7 2 -19 0 -25z m30 -40 c-3 -8 -6 -5 -6 6 -1 11 2 17 5 13 3 -3 4 -12 1 -19z
m30 -60 c-3 -7 -5 -2 -5 12 0 14 2 19 5 13 2 -7 2 -19 0 -25z m30 -50 c-3 -7
-5 -2 -5 12 0 14 2 19 5 13 2 -7 2 -19 0 -25z m53 -68 c5 0 10 -6 10 -14 0 -8
6 -21 14 -28 7 -8 17 -25 21 -38 4 -14 12 -28 17 -31 5 -3 1 -20 -10 -38 l-19
-32 -6 61 c-4 33 -12 67 -19 76 -7 8 -19 21 -25 29 -7 7 -13 24 -12 37 l0 23
9 -22 c5 -13 14 -23 20 -23z m-2360 -6 c0 -8 -5 -12 -10 -9 -6 4 -8 11 -5 16
9 14 15 11 15 -7z m-33 -66 c-3 -8 -6 -5 -6 6 -1 11 2 17 5 13 3 -3 4 -12 1
-19z m-17 -37 c0 -11 -4 -23 -10 -26 -6 -4 -10 5 -10 19 0 14 5 26 10 26 6 0
10 -9 10 -19z m47 -128 c-3 -10 -5 -4 -5 12 0 17 2 24 5 18 2 -7 2 -21 0 -30z
m2354 -32 c-11 -15 -25 -40 -31 -55 -5 -14 -14 -26 -20 -26 -5 0 -10 -8 -10
-19 0 -10 -7 -24 -15 -31 -8 -7 -15 -17 -15 -23 0 -14 -73 -127 -82 -127 -19
0 -5 55 21 89 15 20 31 46 35 59 4 12 18 34 30 50 13 15 26 37 30 50 4 12 12
22 17 22 5 0 9 7 9 16 0 9 10 27 23 40 21 22 22 22 25 4 2 -11 -6 -33 -17 -49z
m-2324 -13 c-3 -8 -6 -5 -6 6 -1 11 2 17 5 13 3 -3 4 -12 1 -19z m90 -150 c-3
-8 -6 -5 -6 6 -1 11 2 17 5 13 3 -3 4 -12 1 -19z m30 -60 c-3 -8 -6 -5 -6 6
-1 11 2 17 5 13 3 -3 4 -12 1 -19z m461 -10 c-3 -24 -17 -32 -36 -20 -18 12
-4 42 20 42 14 0 19 -6 16 -22z m1549 -85 c-3 -10 -5 -4 -5 12 0 17 2 24 5 18
2 -7 2 -21 0 -30z m-1247 -18 c0 -19 -4 -37 -10 -40 -6 -4 -10 12 -10 40 0 28
4 44 10 40 6 -3 10 -21 10 -40z m-673 -37 c-3 -8 -6 -5 -6 6 -1 11 2 17 5 13
3 -3 4 -12 1 -19z m283 -22 c0 -3 -4 -8 -10 -11 -5 -3 -10 -1 -10 4 0 6 5 11
10 11 6 0 10 -2 10 -4z m-253 -38 c-3 -8 -6 -5 -6 6 -1 11 2 17 5 13 3 -3 4
-12 1 -19z m466 15 c3 -5 1 -19 -4 -32 -8 -21 -14 -23 -50 -18 -22 3 -48 12
-58 21 -10 9 -37 17 -62 18 -41 1 -40 2 16 8 90 10 153 11 158 3z m172 -2 c3
-5 1 -12 -5 -16 -5 -3 -10 1 -10 9 0 18 6 21 15 7z m-456 -23 c-1 -16 -3 -18
-6 -6 -2 9 -12 19 -21 21 -12 3 -10 5 6 6 17 1 22 -4 21 -21z m1618 -30 c-3
-7 -5 -2 -5 12 0 14 2 19 5 13 2 -7 2 -19 0 -25z m-27 -45 c0 -21 -3 -24 -9
-14 -5 8 -7 20 -4 28 8 21 13 15 13 -14z m-1683 -65 c-3 -7 -5 -2 -5 12 0 14
2 19 5 13 2 -7 2 -19 0 -25z m1649 -5 c-10 -10 -19 5 -10 18 6 11 8 11 12 0 2
-7 1 -15 -2 -18z m-1171 -51 c-4 -4 -36 -6 -71 -5 -51 2 -66 -1 -74 -15 -10
-15 -10 -15 -8 3 3 17 13 21 66 25 62 5 79 15 83 50 1 8 4 0 6 -18 3 -19 1
-37 -2 -40z m1148 23 c-7 -21 -13 -19 -13 6 0 11 4 18 10 14 5 -3 7 -12 3 -20z
m-1596 -27 c-3 -7 -5 -2 -5 12 0 14 2 19 5 13 2 -7 2 -19 0 -25z m1573 -15 c0
-5 -4 -14 -9 -21 -7 -11 -9 -11 -14 1 -3 8 -3 18 0 21 9 8 23 7 23 -1z m-965
-33 c3 -5 -1 -10 -10 -10 -9 0 -13 5 -10 10 3 6 8 10 10 10 2 0 7 -4 10 -10z
m930 -39 c-9 -16 -25 -3 -18 15 4 10 9 12 15 6 6 -6 7 -15 3 -21z m-1448 -63
c-3 -8 -6 -5 -6 6 -1 11 2 17 5 13 3 -3 4 -12 1 -19z m1413 12 c0 -5 -5 -10
-11 -10 -5 0 -7 5 -4 10 3 6 8 10 11 10 2 0 4 -4 4 -10z m-27 -45 c-7 -21 -13
-19 -13 6 0 11 4 18 10 14 5 -3 7 -12 3 -20z m-1356 -22 c-3 -10 -5 -4 -5 12
0 17 2 24 5 18 2 -7 2 -21 0 -30z m1333 -22 c0 -23 -38 -53 -54 -43 -7 4 -4 8
7 10 9 2 17 11 17 21 0 10 3 21 7 24 12 13 23 7 23 -12z m-1286 -33 c7 -5 4
-8 -6 -8 -12 0 -18 7 -17 23 0 15 2 17 6 7 3 -8 11 -18 17 -22z m5764 -114
c46 -3 81 -8 78 -11 -14 -14 -1235 -18 -1249 -4 -13 13 4 19 58 23 71 5 1027
-2 1113 -8z m159 -156 c-3 -7 -5 -2 -5 12 0 14 2 19 5 13 2 -7 2 -19 0 -25z
m-1410 -10 c-3 -8 -6 -5 -6 6 -1 11 2 17 5 13 3 -3 4 -12 1 -19z m-30 -50 c-3
-7 -5 -2 -5 12 0 14 2 19 5 13 2 -7 2 -19 0 -25z m1470 0 c-3 -7 -5 -2 -5 12
0 14 2 19 5 13 2 -7 2 -19 0 -25z m-1497 -48 c0 -11 -4 -20 -9 -20 -5 0 -7 9
-4 20 3 11 7 20 9 20 2 0 4 -9 4 -20z m-33 -52 c-3 -7 -5 -2 -5 12 0 14 2 19
5 13 2 -7 2 -19 0 -25z m-21 -53 c-8 -23 -25 -9 -19 16 4 13 9 17 16 10 5 -5
7 -17 3 -26z m1641 3 c-3 -8 -6 -5 -6 6 -1 11 2 17 5 13 3 -3 4 -12 1 -19z
m39 -33 c8 -21 -6 -41 -17 -24 -12 19 -11 39 1 39 6 0 13 -7 16 -15z m-1713
-15 c-3 -11 -7 -20 -9 -20 -2 0 -4 9 -4 20 0 11 4 20 9 20 5 0 7 -9 4 -20z
m1747 -56 c0 -8 5 -14 10 -14 6 0 10 -10 10 -22 0 -19 -3 -18 -25 12 -13 18
-22 37 -19 42 7 12 24 0 24 -18z m-1783 -16 c-3 -7 -5 -2 -5 12 0 14 2 19 5
13 2 -7 2 -19 0 -25z m1835 -73 c6 -29 -7 -34 -15 -6 -4 17 0 31 9 31 1 0 4
-11 6 -25z m33 -45 c3 -5 3 -15 -1 -21 -6 -11 -23 6 -24 24 0 10 18 9 25 -3z
m57 -117 c-9 -16 -11 -15 -17 10 -4 15 -11 27 -16 27 -5 0 -9 7 -9 16 0 13 6
11 26 -9 20 -20 23 -30 16 -44z m55 -71 c7 -7 13 -20 13 -28 0 -8 10 -25 21
-37 12 -12 28 -35 35 -52 8 -16 23 -43 34 -60 11 -16 23 -37 26 -45 3 -8 12
-28 19 -44 13 -30 10 -56 -6 -56 -5 0 -9 -11 -9 -24 0 -13 -7 -29 -15 -36 -8
-7 -15 -19 -15 -27 0 -7 -7 -16 -15 -19 -8 -4 -15 -12 -15 -19 0 -8 -6 -20
-13 -27 -7 -7 -16 -21 -20 -31 -4 -10 -12 -15 -17 -12 -10 6 25 76 42 83 4 2
8 14 8 27 0 12 7 28 15 35 8 7 15 18 15 26 0 7 7 20 16 28 17 18 9 39 -57 151
-16 28 -34 61 -41 75 -7 14 -15 27 -18 30 -18 15 -50 95 -44 109 5 13 8 11 17
-9 7 -14 17 -31 24 -38z m-2190 -49 c-3 -10 -5 -4 -5 12 0 17 2 24 5 18 2 -7
2 -21 0 -30z m-90 -155 c-3 -7 -5 -2 -5 12 0 14 2 19 5 13 2 -7 2 -19 0 -25z
m552 -66 c0 -37 -4 -76 -8 -86 -6 -16 -11 -10 -25 30 -21 60 -21 105 1 121 26
20 33 6 32 -65z m632 42 c0 -10 -4 -46 -9 -79 -6 -41 -10 -49 -11 -27 0 18 -8
46 -16 62 -14 27 -14 32 1 55 18 28 35 22 35 -11z m-777 -17 c22 -58 21 -80
-3 -72 -14 4 -21 -1 -29 -25 -6 -16 -13 -30 -16 -30 -4 0 -6 38 -6 85 0 76 2
85 19 85 12 0 23 -14 35 -43z m1230 -26 c-9 -22 -13 -49 -9 -70 5 -25 3 -32
-7 -29 -7 3 -16 27 -19 55 -4 28 -10 56 -14 63 -4 6 1 20 11 31 16 18 19 18
35 3 17 -15 17 -19 3 -53z m-1667 17 c-3 -8 -6 -5 -6 6 -1 11 2 17 5 13 3 -3
4 -12 1 -19z m703 12 c0 -6 11 -8 25 -4 21 5 26 1 35 -22 12 -31 4 -100 -12
-110 -5 -3 -15 -1 -21 5 -15 15 -27 14 -27 -4 0 -22 -36 -18 -65 7 -36 31 -35
84 3 115 28 23 62 30 62 13z m650 6 c0 -2 -9 -6 -20 -9 -11 -3 -20 -1 -20 4 0
5 9 9 20 9 11 0 20 -2 20 -4z m750 -6 c0 -5 6 -10 14 -10 20 0 29 -17 18 -35
-7 -13 -10 -12 -22 10 -7 14 -19 25 -26 25 -7 0 -16 5 -19 10 -3 6 3 10 14 10
12 0 21 -4 21 -10z m-690 -65 c0 -39 -4 -54 -16 -59 -25 -10 -34 3 -22 29 9
19 8 31 -2 49 -15 29 -7 46 20 39 17 -4 20 -14 20 -58z m534 52 c17 -12 17
-14 2 -20 -10 -4 -16 -18 -16 -41 0 -19 -3 -41 -6 -50 -12 -31 -24 -4 -24 53
0 73 8 84 44 58z m-1094 -11 c0 -20 -19 -31 -32 -18 -6 6 -7 15 -4 21 10 16
36 13 36 -3z m83 8 c3 -3 3 -12 0 -20 -4 -11 -9 -12 -19 -3 -8 6 -11 15 -8 20
6 10 18 12 27 3z m63 -71 c-3 -8 -10 -11 -16 -8 -12 7 -13 45 -3 71 5 15 9 12
16 -15 4 -18 6 -40 3 -48z m121 15 c-1 -34 -7 -53 -16 -56 -11 -4 -13 3 -8 28
4 18 7 46 7 62 0 16 4 27 9 23 5 -3 9 -28 8 -57z m183 48 c0 -16 -18 -31 -27
-22 -8 8 5 36 17 36 5 0 10 -6 10 -14z m265 4 c3 -5 -1 -10 -9 -10 -9 0 -16 5
-16 10 0 6 4 10 9 10 6 0 13 -4 16 -10z m489 -7 c-5 -10 -8 -37 -8 -61 0 -55
-19 -49 -23 9 -4 54 1 69 23 69 12 0 14 -5 8 -17z m-573 -12 c-7 -11 -7 -30
-1 -50 7 -24 6 -31 -6 -31 -10 0 -14 13 -14 50 0 38 4 50 15 50 12 0 13 -4 6
-19z m276 -68 c15 -12 15 -13 -5 -13 -20 0 -22 5 -20 53 1 46 2 47 5 12 2 -22
11 -46 20 -52z m103 33 c0 -50 -2 -54 -21 -49 -18 5 -19 7 -5 15 10 6 16 23
16 48 0 22 2 40 5 40 3 0 5 -24 5 -54z m-1340 -5 c0 -20 -43 -64 -53 -54 -13
12 -7 32 16 56 24 26 37 25 37 -2z m757 17 c16 -20 22 -57 11 -64 -5 -3 -12 3
-15 15 -3 12 -9 21 -14 21 -5 0 -9 9 -9 20 0 23 13 26 27 8z m-1277 -24 c0 -8
-5 -12 -10 -9 -6 4 -8 11 -5 16 9 14 15 11 15 -7z m1565 -34 c-3 -5 -10 -10
-16 -10 -5 0 -9 5 -9 10 0 6 7 10 16 10 8 0 12 -4 9 -10z m-28 -26 c-3 -3 -12
-4 -19 -1 -8 3 -5 6 6 6 11 1 17 -2 13 -5z m560 0 c-3 -3 -12 -4 -19 -1 -8 3
-5 6 6 6 11 1 17 -2 13 -5z m-2002 -112 c-6 -15 -8 -14 -16 6 -11 29 0 52 13
28 5 -10 7 -25 3 -34z m1563 -45 c-2 -18 -10 -22 -43 -24 -35 -1 -36 -1 -10 5
23 6 30 13 31 32 2 42 4 46 15 27 6 -10 9 -28 7 -40z m232 37 c0 -8 -5 -12
-10 -9 -6 4 -8 11 -5 16 9 14 15 11 15 -7z m-480 -3 c0 -5 -9 -7 -20 -4 -11 3
-20 7 -20 9 0 2 9 4 20 4 11 0 20 -4 20 -9z m-1290 -23 c0 -16 -3 -19 -11 -11
-6 6 -8 16 -5 22 11 17 16 13 16 -11z m2200 -18 c0 -11 -6 -23 -14 -26 -8 -3
-18 -19 -21 -36 -4 -17 -11 -26 -16 -21 -10 10 -1 53 11 53 4 0 11 11 14 25 8
30 26 33 26 5z m-580 -10 c0 -5 -5 -10 -11 -10 -5 0 -7 5 -4 10 3 6 8 10 11
10 2 0 4 -4 4 -10z m-1565 -58 c5 -7 15 -18 21 -25 17 -20 23 -43 13 -58 -5
-9 -9 -10 -9 -2 0 6 -6 18 -13 25 -27 29 -47 69 -46 95 l0 28 12 -25 c6 -14
16 -31 22 -38z m1342 52 c-3 -3 -12 -4 -19 -1 -8 3 -5 6 6 6 11 1 17 -2 13 -5z
m506 -1 c-7 -2 -19 -2 -25 0 -7 3 -2 5 12 5 14 0 19 -2 13 -5z m230 -102 c-3
-11 -11 -22 -19 -25 -8 -3 -14 -13 -14 -21 0 -9 -4 -14 -10 -10 -11 7 -1 37
17 48 7 4 13 15 13 23 0 8 4 13 9 10 5 -3 7 -15 4 -25z m-2008 -89 c-6 -16 -7
-16 -17 1 -5 10 -7 26 -3 35 6 16 7 16 17 -1 5 -10 7 -26 3 -35z m1955 -2 c0
-10 -6 -23 -13 -27 -7 -4 -18 -19 -24 -33 -10 -23 -11 -24 -19 -6 -5 13 -2 23
9 31 8 6 19 23 22 38 8 29 25 27 25 -3z m-1926 -26 c8 -22 -4 -40 -15 -23 -11
18 -11 39 0 39 5 0 12 -7 15 -16z m43 -76 c8 -9 13 -25 10 -35 -4 -16 -6 -15
-12 5 -4 12 -11 22 -15 22 -10 0 -20 37 -12 45 4 3 8 0 11 -7 2 -7 10 -21 18
-30z m1810 -10 c-3 -8 -6 -5 -6 6 -1 11 2 17 5 13 3 -3 4 -12 1 -19z m-24 -38
c-3 -11 -7 -20 -9 -20 -2 0 -4 9 -4 20 0 11 4 20 9 20 5 0 7 -9 4 -20z m-1740
-53 c-9 -16 -24 9 -17 28 7 18 8 18 14 -1 4 -10 5 -23 3 -27z m1704 -19 c-3
-7 -5 -2 -5 12 0 14 2 19 5 13 2 -7 2 -19 0 -25z m-1667 -19 c0 -10 -4 -19 -9
-19 -10 0 -21 36 -14 44 10 10 23 -5 23 -25z m1643 -29 c-7 -28 -13 -25 -13 6
0 14 4 23 9 20 5 -3 7 -15 4 -26z m-1596 -79 c-4 -13 -6 -11 -12 7 -4 12 -11
22 -16 22 -5 0 -9 12 -9 28 l0 27 21 -34 c11 -18 18 -41 16 -50z m1560 17 c-3
-7 -5 -2 -5 12 0 14 2 19 5 13 2 -7 2 -19 0 -25z m-17 -15 c0 -5 -5 -15 -10
-23 -8 -12 -10 -11 -10 8 0 12 5 22 10 22 6 0 10 -3 10 -7z m-1510 -43 c0 -11
-2 -20 -4 -20 -2 0 -6 9 -9 20 -3 11 -1 20 4 20 5 0 9 -9 9 -20z m1475 -27
c-3 -15 -10 -30 -14 -33 -5 -3 -12 -16 -16 -29 -6 -20 -9 -22 -16 -8 -10 17
-2 47 12 47 5 0 9 8 9 18 0 21 8 32 23 32 5 0 6 -12 2 -27z m-1448 -45 c-3 -7
-5 -2 -5 12 0 14 2 19 5 13 2 -7 2 -19 0 -25z m30 -50 c-3 -8 -6 -5 -6 6 -1
11 2 17 5 13 3 -3 4 -12 1 -19z m1350 -20 c-3 -8 -6 -5 -6 6 -1 11 2 17 5 13
3 -3 4 -12 1 -19z m-1317 -8 c0 -11 -2 -20 -4 -20 -2 0 -6 9 -9 20 -3 11 -1
20 4 20 5 0 9 -9 9 -20z m35 -39 c3 -5 1 -12 -5 -16 -5 -3 -10 1 -10 9 0 18 6
21 15 7z m1224 -27 c2 -2 1 -7 -3 -11 -9 -9 -795 -10 -1046 -2 l-175 5 135 3
c74 2 178 6 230 10 102 6 852 3 859 -5z m-4835 -152 c132 -1 236 -5 233 -8 -9
-10 -1204 -18 -1224 -8 -14 6 -8 9 22 13 39 6 503 7 969 3z m363 -224 c-3 -8
-6 -5 -6 6 -1 11 2 17 5 13 3 -3 4 -12 1 -19z m30 -60 c-3 -7 -5 -2 -5 12 0
14 2 19 5 13 2 -7 2 -19 0 -25z m-1553 -30 c-9 -14 -23 2 -17 18 4 12 8 13 14
3 4 -7 5 -17 3 -21z m-37 -50 c-3 -7 -5 -2 -5 12 0 14 2 19 5 13 2 -7 2 -19 0
-25z m-30 -50 c-3 -8 -6 -5 -6 6 -1 11 2 17 5 13 3 -3 4 -12 1 -19z m1710 -30
c-3 -7 -5 -2 -5 12 0 14 2 19 5 13 2 -7 2 -19 0 -25z m30 -50 c-3 -8 -6 -5 -6
6 -1 11 2 17 5 13 3 -3 4 -12 1 -19z m37 -43 c3 -8 1 -15 -4 -15 -6 0 -10 7
-10 15 0 8 2 15 4 15 2 0 6 -7 10 -15z m26 -41 c0 -8 -5 -12 -10 -9 -6 4 -8
11 -5 16 9 14 15 11 15 -7z m30 -55 c0 -11 -4 -18 -10 -14 -5 3 -7 12 -3 20 7
21 13 19 13 -6z m117 -221 c-3 -7 -5 -2 -5 12 0 14 2 19 5 13 2 -7 2 -19 0
-25z m36 -38 c3 -11 1 -23 -4 -26 -5 -3 -9 6 -9 20 0 31 6 34 13 6z m30 -60
c3 -11 1 -20 -4 -20 -5 0 -9 9 -9 20 0 11 2 20 4 20 2 0 6 -9 9 -20z m24 -52
c-3 -8 -6 -5 -6 6 -1 11 2 17 5 13 3 -3 4 -12 1 -19z m-1606 -73 c-4 -110 -17
-121 -24 -20 -5 93 -2 114 16 96 5 -5 9 -40 8 -76z m447 32 c9 -7 9 -13 1 -23
-25 -31 -77 -6 -57 26 11 18 30 17 56 -3z m1202 -19 c0 -24 -17 -23 -25 2 -8
26 4 48 16 29 5 -8 9 -22 9 -31z m-965 12 c11 -18 -5 -31 -26 -20 -33 18 -56
-4 -67 -62 l-9 -53 -7 57 c-11 80 -6 88 53 88 27 0 53 -4 56 -10z m205 -83 l0
-88 -27 21 c-16 13 -35 19 -48 16 -25 -6 -53 8 -36 18 6 4 19 5 29 2 34 -11
70 40 52 73 -12 24 -25 28 -61 23 -25 -4 -28 -9 -32 -51 -3 -37 -5 -42 -11
-23 -10 26 -43 30 -49 5 -4 -14 -5 -12 -6 5 -1 16 5 22 19 22 13 0 25 11 33
28 16 38 25 42 85 40 l52 -2 0 -89z m-691 65 c6 -11 6 -24 0 -33 -7 -11 -10
-10 -15 9 -6 22 -19 27 -61 23 -12 -1 -24 3 -28 9 -4 6 12 10 44 10 38 0 53
-4 60 -18z m114 7 c-18 -5 -35 -14 -38 -19 -10 -17 -25 -11 -25 10 0 17 6 20
48 19 45 -1 46 -1 15 -10z m217 -41 c0 -62 -5 -60 -13 5 -4 28 -3 47 3 47 6 0
10 -23 10 -52z m-440 -2 c0 -14 -4 -28 -10 -31 -6 -4 -10 7 -10 24 0 17 5 31
10 31 6 0 10 -11 10 -24z m1572 12 c-7 -7 -12 -20 -12 -29 0 -10 -6 -24 -13
-31 -7 -7 -22 -31 -33 -53 -22 -42 -37 -51 -42 -23 -2 9 11 30 27 47 17 18 31
40 31 51 0 21 25 50 43 50 8 0 7 -4 -1 -12z m-1316 -86 c-11 -10 -15 4 -8 28
l7 25 3 -23 c2 -13 1 -26 -2 -30z m102 -3 c-16 -10 -33 5 -23 21 5 8 11 8 21
-1 12 -10 12 -14 2 -20z m-269 5 c2 -2 -14 -4 -37 -4 -23 0 -42 4 -42 9 0 9
69 4 79 -5z m128 0 c-3 -3 -12 -4 -19 -1 -8 3 -5 6 6 6 11 1 17 -2 13 -5z
m-1070 -26 c-3 -8 -6 -5 -6 6 -1 11 2 17 5 13 3 -3 4 -12 1 -19z m1623 -28 c0
-5 -5 -10 -11 -10 -5 0 -7 5 -4 10 3 6 8 10 11 10 2 0 4 -4 4 -10z m-1593 -32
c-3 -7 -5 -2 -5 12 0 14 2 19 5 13 2 -7 2 -19 0 -25z m2284 -41 c-8 -8 -11 -3
-11 19 1 25 2 27 11 11 8 -14 8 -22 0 -30z m-2248 -7 c3 -11 1 -20 -4 -20 -5
0 -9 9 -9 20 0 11 2 20 4 20 2 0 6 -9 9 -20z m773 -47 c-14 -15 -21 6 -12 37
l10 35 4 -33 c2 -19 1 -36 -2 -39z m604 47 c-6 -11 -18 -20 -28 -19 -10 0 -12
3 -4 6 6 2 12 11 12 19 0 8 7 14 15 14 13 0 14 -4 5 -20z m843 -30 c-3 -11 -7
-20 -9 -20 -2 0 -4 9 -4 20 0 11 4 20 9 20 5 0 7 -9 4 -20z m-2193 -17 c-1
-24 -2 -26 -11 -10 -5 9 -7 22 -4 27 10 17 15 11 15 -17z m34 -39 c7 -19 -2
-37 -15 -29 -12 8 -12 45 0 45 5 0 12 -7 15 -16z m2126 -4 c0 -11 -4 -20 -9
-20 -5 0 -7 9 -4 20 3 11 7 20 9 20 2 0 4 -9 4 -20z m-2098 -62 c-5 -21 -6
-21 -12 -2 -8 21 -3 37 10 29 4 -3 6 -15 2 -27z m25 -60 c-3 -8 -6 -5 -6 6 -1
11 2 17 5 13 3 -3 4 -12 1 -19z m33 -28 c0 -11 -2 -20 -4 -20 -2 0 -6 9 -9 20
-3 11 -1 20 4 20 5 0 9 -9 9 -20z m1947 -12 c-3 -7 -5 -2 -5 12 0 14 2 19 5
13 2 -7 2 -19 0 -25z m-1914 -48 c3 -11 1 -20 -4 -20 -5 0 -9 9 -9 20 0 11 2
20 4 20 2 0 6 -9 9 -20z m37 -54 c0 -8 7 -19 15 -26 17 -14 20 -40 4 -40 -6 0
-13 9 -16 20 -3 11 -9 20 -13 20 -9 0 -20 37 -13 44 9 8 23 -4 23 -18z m1787
-48 c-3 -7 -5 -2 -5 12 0 14 2 19 5 13 2 -7 2 -19 0 -25z m-30 -50 c-3 -8 -6
-5 -6 6 -1 11 2 17 5 13 3 -3 4 -12 1 -19z m-90 -160 c-3 -7 -5 -2 -5 12 0 14
2 19 5 13 2 -7 2 -19 0 -25z m-30 -50 c-3 -8 -6 -5 -6 6 -1 11 2 17 5 13 3 -3
4 -12 1 -19z m-27 -50 c0 -16 -3 -19 -11 -11 -6 6 -8 16 -5 22 11 17 16 13 16
-11z m-20 -25 c0 -5 -5 -15 -10 -23 -8 -12 -10 -11 -10 8 0 12 5 22 10 22 6 0
10 -3 10 -7z m-36 -76 c-3 -9 -11 -17 -16 -17 -6 0 -7 7 -4 16 3 9 6 21 6 27
0 8 3 8 10 1 6 -6 8 -18 4 -27z m-27 -41 c-3 -7 -46 -11 -138 -12 -653 -3
-677 -3 -969 6 l-145 4 160 6 c332 11 1096 9 1092 -4z m3367 -115 c3 -5 -1
-11 -9 -15 -15 -6 -29 7 -18 18 9 9 21 8 27 -3z m1234 -10 c31 -35 38 -46 44
-69 3 -12 2 -25 -3 -28 -5 -3 -9 1 -9 8 0 7 -14 29 -30 48 l-29 35 -163 5
-163 5 155 5 c85 3 161 7 168 8 6 1 20 -7 30 -17z m-1041 3 c-3 -3 -12 -4 -19
-1 -8 3 -5 6 6 6 11 1 17 -2 13 -5z m151 -1 c-10 -2 -28 -2 -40 0 -13 2 -5 4
17 4 22 1 32 -1 23 -4z m220 0 c-21 -2 -55 -2 -75 0 -21 2 -4 4 37 4 41 0 58
-2 38 -4z m-611 -45 c-3 -8 -6 -5 -6 6 -1 11 2 17 5 13 3 -3 4 -12 1 -19z
m1353 -85 c0 -22 -2 -25 -10 -13 -13 20 -13 40 0 40 6 0 10 -12 10 -27z m29
-60 c0 -25 -1 -25 -8 -8 -5 11 -7 23 -4 28 8 14 13 7 12 -20z m-1472 -15 c-3
-7 -5 -2 -5 12 0 14 2 19 5 13 2 -7 2 -19 0 -25z m1500 -40 c-3 -8 -6 -5 -6 6
-1 11 2 17 5 13 3 -3 4 -12 1 -19z m30 -40 c-3 -8 -6 -5 -6 6 -1 11 2 17 5 13
3 -3 4 -12 1 -19z m33 -44 c0 -8 -5 -12 -10 -9 -6 4 -8 11 -5 16 9 14 15 11
15 -7z m-1648 -24 c-2 -17 -8 -33 -13 -36 -5 -3 -9 -13 -9 -22 0 -10 -15 -33
-33 -52 -19 -19 -37 -42 -40 -50 -3 -9 -6 -4 -6 13 -1 15 3 27 8 27 5 0 11 12
14 28 3 15 19 42 36 61 17 19 31 41 31 48 0 7 4 13 8 13 5 0 7 -14 4 -30z
m-125 -212 c-3 -7 -5 -2 -5 12 0 14 2 19 5 13 2 -7 2 -19 0 -25z m1928 -27 c3
-5 1 -12 -5 -16 -5 -3 -10 1 -10 9 0 18 6 21 15 7z m-1958 -23 c-3 -8 -6 -5
-6 6 -1 11 2 17 5 13 3 -3 4 -12 1 -19z m1980 -50 c-3 -7 -5 -2 -5 12 0 14 2
19 5 13 2 -7 2 -19 0 -25z m-2040 -50 c-3 -7 -5 -2 -5 12 0 14 2 19 5 13 2 -7
2 -19 0 -25z m2073 22 c0 -5 -2 -10 -4 -10 -3 0 -8 5 -11 10 -3 6 -1 10 4 10
6 0 11 -4 11 -10z m27 -62 c-3 -8 -6 -5 -6 6 -1 11 2 17 5 13 3 -3 4 -12 1
-19z m-2130 -20 c-3 -7 -5 -2 -5 12 0 14 2 19 5 13 2 -7 2 -19 0 -25z m2166
-23 c4 -8 2 -17 -3 -20 -6 -4 -10 3 -10 14 0 25 6 27 13 6z m-2196 -32 c-3
-10 -5 -4 -5 12 0 17 2 24 5 18 2 -7 2 -21 0 -30z m2253 -69 c0 -8 -5 -12 -10
-9 -6 4 -8 11 -5 16 9 14 15 11 15 -7z m-2313 -26 c-3 -7 -5 -2 -5 12 0 14 2
19 5 13 2 -7 2 -19 0 -25z m2346 -46 c-5 -12 -7 -12 -15 2 -11 20 1 44 12 25
5 -6 6 -19 3 -27z m-2370 -2 c-7 -28 -13 -25 -13 6 0 14 4 23 9 20 5 -3 7 -15
4 -26z m2400 -30 c3 -11 1 -23 -4 -26 -5 -3 -9 6 -9 20 0 31 6 34 13 6z
m-2436 -92 c-2 -18 -4 -4 -4 32 0 36 2 50 4 33 2 -18 2 -48 0 -65z m1384 33
c-30 -20 -29 -84 2 -99 18 -9 19 -11 4 -11 -26 -1 -47 23 -47 53 0 13 -4 35
-9 48 -5 13 -5 33 0 46 l9 23 31 -23 c30 -23 30 -23 10 -37z m-518 23 c9 -3
12 -14 9 -30 -4 -22 -6 -23 -17 -8 -8 12 -22 15 -48 12 -35 -4 -48 8 -30 25 8
8 66 9 86 1z m181 0 c44 -6 46 -8 46 -39 0 -18 -3 -53 -6 -79 -6 -44 -8 -46
-25 -30 -14 13 -29 15 -62 10 -42 -6 -45 -5 -49 19 -3 14 -1 28 3 31 5 3 9 -2
9 -10 0 -19 48 -32 69 -19 25 16 37 59 21 77 -17 22 -79 21 -87 -1 -5 -14 -8
-13 -15 6 -15 41 2 47 96 35z m224 -15 c-7 -5 -21 -6 -30 -3 -10 3 -21 -3 -28
-16 -13 -24 -30 -18 -30 10 0 14 9 20 38 22 48 4 69 -1 50 -13z m336 15 c27
-10 7 -24 -34 -24 -32 0 -39 -4 -42 -22 -7 -46 3 -68 31 -68 14 0 32 -4 40 -9
11 -7 9 -10 -8 -16 -29 -9 -60 3 -87 34 -27 30 -31 59 -9 67 8 4 15 12 15 19
0 20 60 32 94 19z m150 -3 c23 -9 14 -16 -31 -26 -25 -5 -33 -3 -33 8 0 27 24
34 64 18z m-617 -78 c-2 -16 -4 -3 -4 27 0 30 2 43 4 28 2 -16 2 -40 0 -55z
m300 25 c-2 -13 -4 -5 -4 17 -1 22 1 32 4 23 2 -10 2 -28 0 -40z m1020 20 c-3
-8 -6 -5 -6 6 -1 11 2 17 5 13 3 -3 4 -12 1 -19z m-1710 -40 c-3 -8 -6 -5 -6
6 -1 11 2 17 5 13 3 -3 4 -12 1 -19z m1686 -31 c-9 -15 -21 4 -15 25 5 21 6
21 12 2 4 -10 5 -22 3 -27z m-1560 -7 c-10 -39 -104 -36 -102 4 0 11 3 15 6 9
2 -7 20 -13 40 -13 27 0 36 5 40 21 4 14 8 17 13 9 4 -7 5 -20 3 -30z m413 -5
c-3 -10 -18 -14 -38 -14 -24 1 -27 3 -10 6 12 2 27 14 34 26 12 24 24 8 14
-18z m-1253 5 c3 -11 1 -23 -4 -26 -5 -3 -9 6 -9 20 0 31 6 34 13 6z m1737 0
c0 -17 -6 -20 -37 -19 l-38 1 33 9 c17 5 32 14 32 19 0 6 2 10 5 10 3 0 5 -9
5 -20z m-1085 -10 c17 -7 14 -9 -13 -9 -20 -1 -31 3 -27 9 7 12 13 12 40 0z
m1717 -22 c-5 -21 -6 -21 -12 -2 -8 21 -3 37 10 29 4 -3 6 -15 2 -27z m-2345
-40 c-3 -7 -5 -2 -5 12 0 14 2 19 5 13 2 -7 2 -19 0 -25z m913 -9 c0 -5 -4 -9
-10 -9 -5 0 -10 7 -10 16 0 8 5 12 10 9 6 -3 10 -10 10 -16z m80 1 c0 -5 -2
-10 -4 -10 -3 0 -8 5 -11 10 -3 6 -1 10 4 10 6 0 11 -4 11 -10z m1317 -12 c-3
-8 -6 -5 -6 6 -1 11 2 17 5 13 3 -3 4 -12 1 -19z m-2280 -20 c-3 -8 -6 -5 -6
6 -1 11 2 17 5 13 3 -3 4 -12 1 -19z m930 6 c-3 -3 -12 -4 -19 -1 -8 3 -5 6 6
6 11 1 17 -2 13 -5z m1320 -26 c-3 -8 -6 -5 -6 6 -1 11 2 17 5 13 3 -3 4 -12
1 -19z m-2214 -18 c3 -11 1 -23 -4 -26 -5 -3 -9 6 -9 20 0 31 6 34 13 6z
m1047 10 c0 -5 -2 -10 -4 -10 -3 0 -8 5 -11 10 -3 6 -1 10 4 10 6 0 11 -4 11
-10z m1137 -52 c-3 -7 -5 -2 -5 12 0 14 2 19 5 13 2 -7 2 -19 0 -25z m-2160
-30 c-3 -7 -5 -2 -5 12 0 14 2 19 5 13 2 -7 2 -19 0 -25z m2130 -25 c-3 -10
-5 -4 -5 12 0 17 2 24 5 18 2 -7 2 -21 0 -30z m-2100 -35 c-3 -7 -5 -2 -5 12
0 14 2 19 5 13 2 -7 2 -19 0 -25z m2070 -10 c-3 -8 -6 -5 -6 6 -1 11 2 17 5
13 3 -3 4 -12 1 -19z m-2040 -30 c-3 -8 -6 -5 -6 6 -1 11 2 17 5 13 3 -3 4
-12 1 -19z m2010 -20 c-3 -7 -5 -2 -5 12 0 14 2 19 5 13 2 -7 2 -19 0 -25z
m-1974 -41 c-9 -16 -24 9 -17 28 7 18 8 18 14 -1 4 -10 5 -23 3 -27z m1950 -7
c-3 -11 -10 -20 -15 -20 -6 0 -7 7 -4 16 3 9 6 20 6 25 0 6 4 8 9 5 5 -3 7
-15 4 -26z m-1923 -30 c0 -11 -2 -20 -4 -20 -2 0 -6 9 -9 20 -3 11 -1 20 4 20
5 0 9 -9 9 -20z m1892 -32 c-5 -21 -6 -21 -12 -2 -8 21 -3 37 10 29 4 -3 6
-15 2 -27z m-1842 -38 c5 0 10 -12 9 -27 0 -27 -1 -27 -9 -5 -5 12 -13 22 -19
22 -11 0 -21 36 -13 45 4 3 10 -3 14 -15 4 -11 12 -20 18 -20z m1807 -12 c-3
-8 -6 -5 -6 6 -1 11 2 17 5 13 3 -3 4 -12 1 -19z m-24 -38 c-3 -11 -7 -20 -9
-20 -2 0 -4 9 -4 20 0 11 4 20 9 20 5 0 7 -9 4 -20z m-1725 -46 c12 -20 22
-42 22 -50 0 -23 -19 -16 -26 10 -3 14 -12 27 -20 30 -14 5 -20 46 -6 46 4 -1
17 -17 30 -36z m1695 -14 c-8 -29 -21 -25 -15 5 2 14 8 23 12 20 5 -3 6 -14 3
-25z m-30 -56 c-4 -10 -9 -12 -15 -6 -12 12 -1 35 12 27 5 -3 6 -13 3 -21z
m-1613 -30 c0 -8 4 -14 9 -14 12 0 21 -39 11 -45 -5 -3 -11 4 -15 15 -3 11
-10 20 -15 20 -9 0 -20 37 -13 44 9 9 23 -4 23 -20z m1577 -26 c-3 -8 -6 -5
-6 6 -1 11 2 17 5 13 3 -3 4 -12 1 -19z m-1526 -91 c-11 -11 -25 28 -15 45 5
7 10 3 16 -12 5 -14 5 -27 -1 -33z m1466 -19 c-3 -7 -5 -2 -5 12 0 14 2 19 5
13 2 -7 2 -19 0 -25z m-1429 -16 c4 -25 -13 -30 -22 -6 -9 25 -7 36 7 32 6 -3
13 -14 15 -26z m1402 -18 c0 -8 -5 -12 -10 -9 -6 4 -8 11 -5 16 9 14 15 11 15
-7z m-1380 -36 c0 -18 -2 -20 -9 -8 -6 8 -7 18 -5 22 9 14 14 9 14 -14z m30
-38 c0 -11 -2 -20 -4 -20 -2 0 -6 9 -9 20 -3 11 -1 20 4 20 5 0 9 -9 9 -20z
m-1303 -17 c65 -43 23 -163 -57 -163 -92 0 -122 132 -38 173 34 17 57 14 95
-10z m2593 -13 c0 -15 -6 -20 -27 -19 -24 2 -25 2 -5 6 12 2 22 11 22 19 0 8
2 14 5 14 3 0 5 -9 5 -20z m-1236 -9 c19 -7 18 -8 -4 -14 -25 -6 -40 -2 -40
14 0 11 17 11 44 0z m613 -7 c-3 -3 -12 -4 -19 -1 -8 3 -5 6 6 6 11 1 17 -2
13 -5z m-2214 -631 c-7 -2 -19 -2 -25 0 -7 3 -2 5 12 5 14 0 19 -2 13 -5z m74
1 c-3 -3 -12 -4 -19 -1 -8 3 -5 6 6 6 11 1 17 -2 13 -5z m5632 -45 c27 -25 27
-67 -1 -96 -57 -61 -158 14 -113 84 29 44 74 49 114 12z m-5812 -61 c-3 -7 -5
-2 -5 12 0 14 2 19 5 13 2 -7 2 -19 0 -25z m270 0 c-3 -8 -6 -5 -6 6 -1 11 2
17 5 13 3 -3 4 -12 1 -19z m-270 -90 c-3 -7 -5 -2 -5 12 0 14 2 19 5 13 2 -7
2 -19 0 -25z m153 22 c0 -5 -7 -10 -16 -10 -8 0 -12 5 -9 10 3 6 10 10 16 10
5 0 9 -4 9 -10z"/>
<path d="M5626 16604 c-10 -9 -16 -33 -16 -59 0 -53 19 -75 65 -75 64 0 96 69
59 125 -13 19 -25 25 -54 25 -22 0 -45 -7 -54 -16z"/>
<path d="M7030 16539 c-20 -36 -9 -64 27 -67 36 -4 58 23 46 55 -14 38 -56 45
-73 12z"/>
<path d="M8080 16541 c-17 -32 -12 -61 13 -70 48 -18 82 22 57 68 -14 27 -56
27 -70 2z"/>
<path d="M4314 13413 c-15 -37 3 -65 36 -56 24 6 33 30 20 54 -13 24 -45 25
-56 2z"/>
<path d="M4865 13411 c3 -12 0 -21 -10 -25 -8 -3 -15 -10 -15 -15 0 -15 35
-22 60 -13 l24 9 -22 19 c-12 10 -22 24 -22 31 0 7 -5 13 -11 13 -6 0 -8 -8
-4 -19z"/>
<path d="M5036 13411 c-23 -25 -11 -51 25 -51 24 0 29 4 29 23 0 22 -16 47
-30 47 -4 0 -14 -8 -24 -19z"/>
<path d="M4810 13170 c0 -11 4 -20 9 -20 5 0 7 9 4 20 -3 11 -7 20 -9 20 -2 0
-4 -9 -4 -20z"/>
<path d="M9131 11393 c-1 -70 9 -64 -101 -67 -56 -1 -71 -14 -51 -44 13 -21
155 -27 171 -7 7 8 19 15 26 15 20 0 17 14 -6 35 -13 11 -20 31 -21 54 0 20
-4 45 -9 56 -6 14 -9 2 -9 -42z"/>
<path d="M9308 11399 c-6 -58 -17 -69 -70 -69 -30 0 -38 -4 -38 -18 0 -59 52
-64 370 -38 30 3 61 5 68 5 20 1 15 51 -6 51 -30 0 -42 21 -42 73 0 41 -3 48
-17 45 -14 -2 -19 -15 -21 -51 -4 -60 -19 -69 -120 -65 l-77 3 -3 58 c-2 47
-6 57 -21 57 -15 0 -19 -10 -23 -51z"/>
<path d="M9730 11430 c0 -13 7 -20 20 -20 13 0 20 7 20 20 0 13 -7 20 -20 20
-13 0 -20 -7 -20 -20z"/>
<path d="M9738 11323 c6 -2 18 -2 25 0 6 3 1 5 -13 5 -14 0 -19 -2 -12 -5z"/>
<path d="M9971 11144 c0 -11 3 -14 6 -6 3 7 2 16 -1 19 -3 4 -6 -2 -5 -13z"/>
<path d="M9940 10942 c0 -72 5 -83 28 -60 17 17 15 48 -8 93 l-20 39 0 -72z"/>
<path d="M5021 9325 c-2 -5 -2 -23 -2 -40 3 -45 -27 -59 -124 -57 l-80 2 44
-20 c24 -11 48 -20 53 -20 6 0 23 -13 38 -30 56 -60 83 -26 77 95 -1 44 -4 76
-6 70z"/>
<path d="M4587 9270 c-4 -17 0 -20 33 -20 33 0 37 3 33 20 -4 14 -14 20 -33
20 -19 0 -29 -6 -33 -20z"/>
<path d="M5080 9152 c0 -11 9 -27 20 -37 19 -18 20 -17 20 6 0 13 -9 30 -20
37 -17 10 -20 10 -20 -6z"/>
<path d="M3820 9095 c0 -8 2 -15 4 -15 2 0 6 7 10 15 3 8 1 15 -4 15 -6 0 -10
-7 -10 -15z"/>
<path d="M5650 9080 c0 -5 5 -10 11 -10 5 0 7 5 4 10 -3 6 -8 10 -11 10 -2 0
-4 -4 -4 -10z"/>
<path d="M5561 9039 c-20 -21 -20 -21 9 -46 32 -26 50 -24 50 8 0 25 -17 59
-30 59 -5 0 -18 -10 -29 -21z"/>
<path d="M4092 9030 c0 -14 2 -19 5 -12 2 6 2 18 0 25 -3 6 -5 1 -5 -13z"/>
<path d="M4270 9030 c0 -13 7 -20 20 -20 13 0 20 7 20 20 0 13 -7 20 -20 20
-13 0 -20 -7 -20 -20z"/>
<path d="M5370 9025 c-13 -16 -7 -45 10 -45 5 0 10 14 10 30 0 34 -3 36 -20
15z"/>
<path d="M5470 8947 c0 -22 -44 -50 -67 -43 -10 3 -24 2 -32 -3 -11 -7 -9 -10
8 -16 11 -3 25 -4 30 0 5 3 29 1 52 -4 32 -7 49 -6 68 4 14 8 20 14 14 15 -7
0 -26 14 -43 31 -21 23 -30 27 -30 16z"/>
<path d="M4463 8915 c-20 -22 -16 -25 32 -25 43 0 45 1 35 20 -12 23 -49 26
-67 5z"/>
<path d="M5080 8908 c0 -12 1 -19 3 -17 1 2 9 12 16 22 12 14 11 17 -3 17 -10
0 -16 -8 -16 -22z"/>
<path d="M5276 8901 c-3 -5 1 -11 9 -15 15 -6 29 7 18 18 -9 9 -21 8 -27 -3z"/>
<path d="M5587 8879 c4 -12 11 -18 20 -15 8 3 17 6 19 6 2 0 4 7 4 15 0 9 -9
15 -24 15 -19 0 -23 -4 -19 -21z"/>
<path d="M5348 8743 c7 -3 16 -2 19 1 4 3 -2 6 -13 5 -11 0 -14 -3 -6 -6z"/>
<path d="M4962 8711 c-1 -8 -8 -22 -16 -30 -16 -19 -28 -176 -16 -206 6 -13 9
5 9 54 1 53 6 79 17 92 10 12 14 31 11 60 -2 24 -4 38 -5 30z"/>
<path d="M5161 8698 c16 -32 16 -32 21 -3 4 20 1 25 -14 25 -16 0 -17 -3 -7
-22z"/>
<path d="M5135 8658 c-4 -10 -4 -26 0 -35 8 -17 8 -17 12 0 3 9 3 25 0 35 -4
16 -4 16 -12 0z"/>
<path d="M5198 8614 c-7 -12 -8 -94 -1 -118 5 -19 6 -19 16 -1 18 32 3 149
-15 119z"/>
<path d="M4932 8400 c0 -19 2 -27 5 -17 2 9 2 25 0 35 -3 9 -5 1 -5 -18z"/>
<path d="M4672 8340 c-11 -19 -10 -20 28 -20 33 0 40 3 40 20 0 15 -7 20 -28
20 -16 0 -32 -8 -40 -20z"/>
<path d="M4781 8341 c7 -10 39 -32 72 -49 72 -38 100 -31 95 21 l-3 32 -72 0
c-39 0 -75 3 -79 8 -15 14 -24 7 -13 -12z"/>
<path d="M5053 8250 c0 -36 2 -50 4 -32 2 17 2 47 0 65 -2 17 -4 3 -4 -33z"/>
<path d="M8693 6823 c-51 -35 -6 -112 48 -83 25 14 25 61 -1 83 -24 20 -19 20
-47 0z"/>
</g>
</svg>
