<?xml version="1.0" encoding="UTF-8"?>
<svg width="601px" height="274px" className='processSvg' viewBox="0 0 601 274" version="1.1" xmlns="http://www.w3.org/2000/svg" xmlns:xlink="http://www.w3.org/1999/xlink">
    <title>76963CAC-8339-47A2-A127-CD9AEE212AD2</title>
    <defs>
        <filter id="filter-1">
            <feColorMatrix in="SourceGraphic" type="matrix" values="0 0 0 0 1.000000 0 0 0 0 1.000000 0 0 0 0 1.000000 0 0 0 1.000000 0"></feColorMatrix>
        </filter>
        <filter id="filter-2">
            <feColorMatrix in="SourceGraphic" type="matrix" values="0 0 0 0 1.000000 0 0 0 0 1.000000 0 0 0 0 1.000000 0 0 0 1.000000 0"></feColorMatrix>
        </filter>
    </defs>
    <g id="Page-1" stroke="none" stroke-width="1" fill="none" fill-rule="evenodd">
        <g id="4_BD_Home" transform="translate(-416.000000, -220.000000)">
            <g id="Group-13" transform="translate(416.000000, 220.000000)">
                <g id="Group-2">
                    <circle id="Oval" fill="#91BF4C" opacity="0.84" cx="104.5" cy="136.5" r="68.5"></circle>
                    <circle id="Oval" fill="#0E7ABF" opacity="0.84" cx="303.5" cy="136.5" r="68.5"></circle>
                    <g id="Group-11" transform="translate(273.500000, 98.000000)" stroke="#FFFFFF" stroke-width="2">
                        <path d="M19.7372089,2 L19.7372089,12.6823624 C19.7372089,15.7662095 17.6151344,18.2688398 15,18.2688398 C12.3857367,18.2688398 10.2627911,15.7670808 10.2627911,12.6823624 L10.2627911,2 C4.58388989,2.13855091 0,8.94497337 0,17.3399387 C0,25.8263999 4.90011034,32.7068904 10.6582845,32.7068904 L10.6582845,35.5005648 L10.6582845,77.8779732 C10.6582845,80.7047604 12.6017771,83 15,83 C17.3999652,83 19.3434578,80.7073745 19.3434578,77.8779732 L19.3434578,35.4979506 L19.3434578,32.7042763 C25.1007608,32.7042763 30,25.8237857 30,17.3373245 C30,8.94497337 25.4169812,2.13855091 19.7372089,2 Z" id="Stroke-1"></path>
                        <path d="M56,78.6824934 C56,80.342122 53.9715361,82 51.8640752,82 L45.5004389,82 C43.3921003,82 42,80.339496 42,78.6824934 L42,51.6820159 C42,50.0232626 43.3921003,49 45.5004389,49 L51.8640752,49 C53.9715361,49 56,50.0258886 56,51.6820159 L56,78.6824934 Z" id="Stroke-3"></path>
                        <line x1="48.5" y1="49" x2="48.5" y2="82" id="Stroke-5"></line>
                        <path d="M55,46 C55,47.6146207 53.8238982,49 52.3757131,49 L43.6260423,49 C42.1743464,49 41,47.6146207 41,46 C41,44.3853793 42.1752241,43 43.6260423,43 L52.3757131,43 C53.8238982,43 55,44.3853793 55,46 Z" id="Stroke-7"></path>
                        <path d="M53,17.0655252 C53,11.4085877 49.0608594,1.69861578 48.4539375,0.0973624423 C47.9506771,-1.2327465 43,11.4085877 43,17.0655252 C43,21.5840095 45.4235078,25.3694324 45.4235078,26.1908144 L45.4235078,40.5985616 C45.4235078,41.9242545 46.4417322,43 47.696539,43 L48,43 C49.2548069,43 50.2730313,41.9242545 50.2730313,40.5985616 L50.2730313,26.1908144 C50.2730313,25.4339065 53,21.7156072 53,17.0655252 Z" id="Stroke-9"></path>
                    </g>
                    <circle id="Oval" fill="#0E7ABF" opacity="0.84" cx="497.5" cy="136.5" r="68.5"></circle>
                    <text id="Repacking" font-family="Poppins-Regular, Poppins" font-size="16" font-weight="normal" fill="#FFFFFF">
                        <tspan x="455" y="17">Repacking</tspan>
                    </text>
                    <text id="Sub-Assembly" font-family="Poppins-Regular, Poppins" font-size="16" font-weight="normal" fill="#FFFFFF">
                        <tspan x="253" y="268">Sub Assembly</tspan>
                    </text>
                    <text id="Kitting" font-family="Poppins-Regular, Poppins" font-size="16" font-weight="normal" fill="#FFFFFF">
                        <tspan x="81" y="17">Kitting</tspan>
                    </text>
                    <g filter="url(#filter-1)" id="Group-9">
                        <g transform="translate(66.000000, 85.500000)">
                            <path d="M61.1509403,57.8956003 C61.10161,57.8841623 61.0507848,57.8841623 61.0022019,57.8956003 L49.0582793,61.1348556 L39.1892209,58.4331886 L61.1397289,52.4693902 L71.0087873,55.1588566 L61.1509403,57.8956003 Z M60.577662,89.627034 L37.5501081,95.8836465 L37.5501081,59.2056381 L48.897582,62.3160247 C48.9469123,62.3282253 48.9977375,62.3282253 49.0470679,62.3160247 L49.1958063,62.3160247 L60.577662,59.2170762 L60.577662,89.627034 Z M24.7466416,62.3045867 L25.044866,62.3045867 L36.4035513,59.1934375 L36.4035513,95.8836465 L13.3879563,89.5919574 L13.3879563,59.1934375 L24.7466416,62.3045867 Z M12.8146779,52.4343135 L12.9746278,52.4343135 L34.7532271,58.3866739 L24.8841686,61.0883409 L12.9634164,57.8719617 L2.94561946,55.1588566 L12.8146779,52.4343135 Z M24.9073389,42.5182881 L34.7763974,45.2313932 L12.8146779,51.182991 L2.94561946,48.4706485 L24.9073389,42.5182881 Z M49.0582793,42.5182881 L71.0087873,48.5286013 L61.1397289,51.2180677 L40.014383,45.4418533 L39.1892209,45.2191926 L49.0582793,42.5182881 Z M36.9768297,57.825447 L15.0270691,51.8265719 L35.315294,46.2714931 L36.9768297,45.8040582 L58.9273377,51.8029332 L38.2609135,57.4983188 L36.9768297,57.825447 Z M73.369917,54.6212684 L63.3401612,51.849448 L73.4267216,49.0898282 C73.7436317,49.0898282 74,48.8282781 74,48.5057252 C74,48.1824097 73.7436317,47.9208596 73.4267216,47.9208596 L49.2070178,41.3485571 C49.1091045,41.3249184 49.0074541,41.3249184 48.9095408,41.3485571 L36.9768297,44.6343271 L25.0560774,41.337119 C24.9589116,41.3073801 24.8557663,41.3073801 24.7578531,41.337119 L0.584489829,47.897221 C0.267579743,47.897221 0.0112114417,48.158771 0.0112114417,48.4820865 C0.0112114417,48.8046395 0.267579743,49.0669521 0.584489829,49.0669521 L10.6710502,51.8380099 L0.572530958,54.5976297 C0.256368301,54.5976297 0,54.8599423 0,55.1824953 C0,55.5058108 0.256368301,55.7673608 0.572530958,55.7673608 L12.2413995,58.9479008 L12.2413995,89.8321564 C12.2391572,90.095994 12.4140557,90.3285677 12.665192,90.3933833 L36.8280912,97 L36.9768297,97 L37.1263156,97 L61.2996788,90.3933833 C61.5493202,90.324755 61.7227239,90.0952315 61.7242187,89.8321564 L61.7242187,58.9128241 L73.369917,55.7559227 C73.6860796,55.7559227 73.9431954,55.4936102 73.9431954,55.1710572 C73.9431954,54.8477417 73.6860796,54.5861917 73.369917,54.5861917 L73.369917,54.6212684 Z" id="Fill-1" fill="#000000"></path>
                            <path d="M18.1125694,24.81733 L25.7151753,29.0975982 L25.7151753,36.5953837 C25.7151753,36.9273008 25.9781373,37.1968391 26.3012048,37.1968391 C26.625775,37.1968391 26.8879857,36.9273008 26.8879857,36.5953837 L26.8879857,28.7418077 C26.8879857,28.7294859 26.8857317,28.7171642 26.8857317,28.7056125 C26.8849804,28.6956011 26.8842291,28.6863598 26.8834777,28.6763484 C26.8819751,28.6624864 26.8797211,28.6486244 26.8774672,28.6347625 C26.8759645,28.6255211 26.8737106,28.6162798 26.8714566,28.6070385 C26.8692027,28.5970271 26.8677,28.5870157 26.8654461,28.5777744 C26.8639434,28.5723836 26.8616895,28.5677629 26.8601868,28.5631423 C26.8556789,28.54697 26.8504197,28.5307977 26.8436578,28.5146254 C26.8429065,28.5123151 26.8421551,28.5092346 26.8414038,28.5061542 C26.8376472,28.497683 26.832388,28.4899819 26.8286314,28.4815107 C26.8241235,28.4722694 26.8203669,28.4637982 26.8158589,28.455327 C26.8090971,28.4430052 26.8015839,28.4299133 26.7940707,28.4175916 C26.7888114,28.4091204 26.7835522,28.4021894 26.7782929,28.3944883 C26.7730337,28.3867872 26.7685258,28.378316 26.7632665,28.371385 C26.7610126,28.3690747 26.7587586,28.3659943 26.7565047,28.3636839 C26.7459862,28.3505921 26.7347164,28.3375002 26.7226953,28.3251785 C26.71969,28.322098 26.7166847,28.3182475 26.7136794,28.315167 C26.7069176,28.3074659 26.6994044,28.3013051 26.6918912,28.2943741 C26.684378,28.2882132 26.6776161,28.2820523 26.6701029,28.2758915 C26.6595844,28.2666501 26.6483146,28.2581789 26.6370448,28.2504778 C26.6295316,28.2450871 26.6220184,28.2404664 26.6145052,28.2350757 C26.6039867,28.2281447 26.5949709,28.2212137 26.5837011,28.2150528 L18.8052863,23.8362106 L26.3012048,20.1289038 L33.7978746,23.8362106 L28.5356302,26.7988216 C28.2516312,26.9582342 28.1479491,27.3240362 28.3034723,27.6151376 C28.3598213,27.7198724 28.4432178,27.7999638 28.5393868,27.8531014 C28.7084337,27.9470547 28.9188033,27.9539857 29.0998714,27.8523313 L34.4905916,24.81733 L34.4905916,34.5199387 L26.3012048,39.1298138 L18.1125694,34.5199387 L18.1125694,24.81733 Z M17.2440436,35.401714 L26.0194599,40.3419661 C26.029227,40.3481269 26.0397455,40.3519775 26.050264,40.3565981 C26.0607825,40.3619889 26.0705496,40.3673797 26.0818194,40.3720003 C26.0975971,40.3789313 26.1133748,40.383552 26.1291526,40.3889427 C26.1374171,40.3912531 26.1449303,40.3943335 26.1524435,40.3966438 C26.1727291,40.4020346 26.1930148,40.4058851 26.2133004,40.4089656 C26.2178083,40.4097357 26.2215649,40.4105058 26.2260728,40.4112759 C26.2508664,40.4143563 26.2756599,40.4166667 26.3012048,40.4166667 C26.3012048,40.4166667 26.3012048,40.4166667 26.3012048,40.4166667 C26.3019561,40.4166667 26.3019561,40.4166667 26.3019561,40.4166667 C26.3267497,40.4166667 26.3522946,40.4143563 26.3770881,40.4112759 C26.381596,40.4105058 26.3853526,40.4097357 26.3898606,40.4089656 C26.4101462,40.4058851 26.4304318,40.4020346 26.4507175,40.3966438 C26.4582307,40.3943335 26.4657439,40.3912531 26.4732571,40.3889427 C26.4897861,40.383552 26.5055638,40.3789313 26.5213415,40.3720003 C26.53186,40.3673797 26.5423785,40.3619889 26.552897,40.3565981 C26.5634155,40.3519775 26.5739339,40.3481269 26.5837011,40.3419661 L35.3591174,35.401714 C35.546196,35.296209 35.6626506,35.0944404 35.6626506,34.8749592 L35.6626506,23.8015557 C35.6626506,23.7992453 35.6626506,23.7961649 35.6626506,23.7938546 C35.6626506,23.7915442 35.6626506,23.7884638 35.6626506,23.7861535 C35.6626506,23.776142 35.661148,23.7669007 35.6603966,23.7568893 C35.658894,23.7422572 35.6581427,23.7276251 35.6558887,23.7129931 C35.6543861,23.7006713 35.6513808,23.6883496 35.6491268,23.6767979 C35.6461216,23.6621658 35.6431163,23.6483039 35.6393597,23.6344419 C35.6356031,23.6228903 35.6318465,23.6113386 35.6273386,23.599787 C35.6228306,23.585925 35.6183227,23.5728331 35.6123122,23.5597413 C35.6078043,23.5481896 35.602545,23.5374081 35.5965345,23.5266266 C35.5905239,23.5143048 35.583762,23.501213 35.5762488,23.4896613 C35.5702383,23.4788798 35.5642277,23.4688684 35.5574658,23.458857 C35.5492013,23.4473053 35.5409368,23.4357537 35.5319209,23.4249721 C35.5244077,23.4149607 35.5168945,23.4057194 35.50863,23.3972482 C35.4996142,23.3864667 35.489847,23.3764552 35.4793286,23.3664438 C35.4703127,23.3579726 35.4612969,23.3495014 35.452281,23.3418003 C35.4417626,23.332559 35.4304928,23.3240878 35.419223,23.3156166 C35.4094558,23.3079155 35.3989373,23.3009845 35.3884188,23.2940535 C35.3839109,23.2909731 35.3801543,23.2871225 35.3748951,23.2848122 C35.3673819,23.2801916 35.3598687,23.276341 35.3516042,23.2724905 C35.3448423,23.2686399 35.3388317,23.2640193 35.3313185,23.2601687 L26.5559023,18.9206021 C26.3951198,18.8412808 26.2080412,18.8412808 26.0465074,18.9206021 L17.2710911,23.2601687 C17.2643292,23.2640193 17.2575673,23.2686399 17.2508055,23.2724905 C17.2432923,23.276341 17.2350278,23.2801916 17.2275146,23.2848122 C17.2230066,23.2871225 17.2184987,23.2909731 17.2139908,23.2940535 C17.2034723,23.3009845 17.1937052,23.3079155 17.1831867,23.3156166 C17.1719169,23.3240878 17.1613984,23.332559 17.1501286,23.3418003 C17.1411128,23.3495014 17.1320969,23.3579726 17.1230811,23.3664438 C17.1133139,23.3764552 17.1035468,23.3864667 17.0945309,23.3972482 C17.0862664,23.4057194 17.0780019,23.4149607 17.0704887,23.4249721 C17.0622242,23.4357537 17.0539597,23.4473053 17.0456951,23.458857 C17.0389333,23.4688684 17.0321714,23.4788798 17.0261608,23.4896613 C17.0193989,23.501213 17.0126371,23.5143048 17.0058752,23.5266266 C17.0006159,23.5374081 16.9953567,23.5481896 16.9908488,23.5597413 C16.9848382,23.5728331 16.9803303,23.585925 16.9750711,23.599787 C16.9713145,23.6113386 16.9675579,23.6228903 16.9638013,23.6344419 C16.9600447,23.6483039 16.9570394,23.6621658 16.9540341,23.6767979 C16.9517802,23.6883496 16.9487749,23.7006713 16.9472722,23.7129931 C16.9450183,23.7276251 16.9435156,23.7422572 16.9427643,23.7568893 C16.942013,23.7669007 16.9405104,23.776142 16.939759,23.7861535 C16.939759,23.7884638 16.9405104,23.7915442 16.9405104,23.7938546 C16.9405104,23.7961649 16.939759,23.7992453 16.939759,23.8015557 L16.939759,34.8749592 C16.939759,35.0944404 17.0562136,35.296209 17.2440436,35.401714 L17.2440436,35.401714 Z" id="Fill-3" fill="#000000"></path>
                            <path d="M40.401726,23.9191818 L48.0043319,28.1994501 L48.0043319,35.6972355 C48.0043319,36.0291527 48.2672939,36.298691 48.5903614,36.298691 C48.9149316,36.298691 49.1771423,36.0291527 49.1771423,35.6972355 L49.1771423,27.8436595 C49.1771423,27.8313378 49.1748883,27.819016 49.1748883,27.8074644 C49.174137,27.7974529 49.1733857,27.7882116 49.1726344,27.7782002 C49.1711317,27.7643382 49.1688778,27.7504763 49.1666238,27.7366143 C49.1651212,27.727373 49.1628672,27.7181317 49.1606132,27.7088904 C49.1583593,27.6988789 49.1568566,27.6888675 49.1546027,27.6796262 C49.1531,27.6742354 49.1508461,27.6696148 49.1493434,27.6649941 C49.1448355,27.6488218 49.1395763,27.6326495 49.1328144,27.6164772 C49.1320631,27.6141669 49.1313118,27.6110865 49.1305604,27.608006 C49.1268038,27.5995348 49.1215446,27.5918337 49.117788,27.5833625 C49.1132801,27.5741212 49.1095235,27.56565 49.1050156,27.5571788 C49.0982537,27.5448571 49.0907405,27.5317652 49.0832273,27.5194434 C49.0779681,27.5109722 49.0727088,27.5040413 49.0674496,27.4963402 C49.0621903,27.4886391 49.0576824,27.4801679 49.0524232,27.4732369 C49.0501692,27.4709265 49.0479153,27.4678461 49.0456613,27.4655358 C49.0351428,27.4524439 49.023873,27.4393521 49.0118519,27.4270303 C49.0088466,27.4239499 49.0058413,27.4200993 49.0028361,27.4170189 C48.9960742,27.4093178 48.988561,27.4031569 48.9810478,27.3962259 C48.9735346,27.3900651 48.9667727,27.3839042 48.9592595,27.3777433 C48.948741,27.368502 48.9374712,27.3600308 48.9262014,27.3523297 C48.9186882,27.3469389 48.911175,27.3423183 48.9036618,27.3369275 C48.8931434,27.3299965 48.8841275,27.3230655 48.8728577,27.3169047 L41.0944429,22.9380624 L48.5903614,19.2307556 L56.0870313,22.9380624 L50.8247868,25.9006734 C50.5407879,26.0600861 50.4371057,26.425888 50.5926289,26.7169894 C50.6489779,26.8217243 50.7323744,26.9018157 50.8285434,26.9549532 C50.9975904,27.0489066 51.2079599,27.0558376 51.389028,26.9541831 L56.7797482,23.9191818 L56.7797482,33.6217906 L48.5903614,38.2316657 L40.401726,33.6217906 L40.401726,23.9191818 Z M39.5332002,34.5035659 L48.3086165,39.4438179 C48.3183836,39.4499788 48.3289021,39.4538293 48.3394206,39.45845 C48.3499391,39.4638407 48.3597062,39.4692315 48.370976,39.4738522 C48.3867538,39.4807832 48.4025315,39.4854038 48.4183092,39.4907946 C48.4265737,39.4931049 48.4340869,39.4961853 48.4416001,39.4984957 C48.4618857,39.5038864 48.4821714,39.507737 48.502457,39.5108174 C48.5069649,39.5115875 48.5107215,39.5123576 48.5152295,39.5131278 C48.540023,39.5162082 48.5655679,39.5185185 48.5903614,39.5185185 C48.5903614,39.5185185 48.5903614,39.5185185 48.5903614,39.5185185 C48.5911128,39.5185185 48.5911128,39.5185185 48.5911128,39.5185185 C48.6159063,39.5185185 48.6414512,39.5162082 48.6662448,39.5131278 C48.6707527,39.5123576 48.6745093,39.5115875 48.6790172,39.5108174 C48.6993028,39.507737 48.7195885,39.5038864 48.7398741,39.4984957 C48.7473873,39.4961853 48.7549005,39.4931049 48.7624137,39.4907946 C48.7789427,39.4854038 48.7947205,39.4807832 48.8104982,39.4738522 C48.8210167,39.4692315 48.8315351,39.4638407 48.8420536,39.45845 C48.8525721,39.4538293 48.8630906,39.4499788 48.8728577,39.4438179 L57.648274,34.5035659 C57.8353526,34.3980609 57.9518072,34.1962922 57.9518072,33.976811 L57.9518072,22.9034075 C57.9518072,22.9010972 57.9518072,22.8980167 57.9518072,22.8957064 C57.9518072,22.8933961 57.9518072,22.8903156 57.9518072,22.8880053 C57.9518072,22.8779939 57.9503046,22.8687526 57.9495533,22.8587412 C57.9480506,22.8441091 57.9472993,22.829477 57.9450453,22.8148449 C57.9435427,22.8025232 57.9405374,22.7902014 57.9382835,22.7786498 C57.9352782,22.7640177 57.9322729,22.7501557 57.9285163,22.7362938 C57.9247597,22.7247421 57.9210031,22.7131905 57.9164952,22.7016388 C57.9119873,22.6877769 57.9074794,22.674685 57.9014688,22.6615931 C57.8969609,22.6500415 57.8917016,22.63926 57.8856911,22.6284784 C57.8796805,22.6161567 57.8729186,22.6030648 57.8654054,22.5915132 C57.8593949,22.5807317 57.8533843,22.5707202 57.8466224,22.5607088 C57.8383579,22.5491572 57.8300934,22.5376055 57.8210776,22.526824 C57.8135644,22.5168126 57.8060512,22.5075713 57.7977867,22.4991001 C57.7887708,22.4883185 57.7790037,22.4783071 57.7684852,22.4682957 C57.7594693,22.4598245 57.7504535,22.4513533 57.7414377,22.4436522 C57.7309192,22.4344109 57.7196494,22.4259397 57.7083796,22.4174685 C57.6986124,22.4097674 57.6880939,22.4028364 57.6775755,22.3959054 C57.6730676,22.3928249 57.669311,22.3889744 57.6640517,22.3866641 C57.6565385,22.3820434 57.6490253,22.3781929 57.6407608,22.3743423 C57.6339989,22.3704918 57.6279884,22.3658711 57.6204752,22.3620206 L48.8450589,18.0224539 C48.6842764,17.9431326 48.4971978,17.9431326 48.335664,18.0224539 L39.5602477,22.3620206 C39.5534859,22.3658711 39.546724,22.3704918 39.5399621,22.3743423 C39.5324489,22.3781929 39.5241844,22.3820434 39.5166712,22.3866641 C39.5121633,22.3889744 39.5076553,22.3928249 39.5031474,22.3959054 C39.4926289,22.4028364 39.4828618,22.4097674 39.4723433,22.4174685 C39.4610735,22.4259397 39.450555,22.4344109 39.4392852,22.4436522 C39.4302694,22.4513533 39.4212536,22.4598245 39.4122377,22.4682957 C39.4024706,22.4783071 39.3927034,22.4883185 39.3836876,22.4991001 C39.375423,22.5075713 39.3671585,22.5168126 39.3596453,22.526824 C39.3513808,22.5376055 39.3431163,22.5491572 39.3348518,22.5607088 C39.3280899,22.5707202 39.321328,22.5807317 39.3153174,22.5915132 C39.3085556,22.6030648 39.3017937,22.6161567 39.2950318,22.6284784 C39.2897726,22.63926 39.2845133,22.6500415 39.2800054,22.6615931 C39.2739949,22.674685 39.2694869,22.6877769 39.2642277,22.7016388 C39.2604711,22.7131905 39.2567145,22.7247421 39.2529579,22.7362938 C39.2492013,22.7501557 39.246196,22.7640177 39.2431907,22.7786498 C39.2409368,22.7902014 39.2379315,22.8025232 39.2364289,22.8148449 C39.2341749,22.829477 39.2326723,22.8441091 39.2319209,22.8587412 C39.2311696,22.8687526 39.229667,22.8779939 39.2289157,22.8880053 C39.2289157,22.8903156 39.229667,22.8933961 39.229667,22.8957064 C39.229667,22.8980167 39.2289157,22.9010972 39.2289157,22.9034075 L39.2289157,33.976811 C39.2289157,34.1962922 39.3461216,34.3980609 39.5332002,34.5035659 L39.5332002,34.5035659 Z" id="Fill-5" fill="#000000"></path>
                            <path d="M28.8113646,5.95621888 L36.4139705,10.2364871 L36.4139705,17.7342725 C36.4139705,18.0661897 36.6769324,18.335728 37,18.335728 C37.3245702,18.335728 37.5867808,18.0661897 37.5867808,17.7342725 L37.5867808,9.88069655 C37.5867808,9.8683748 37.5845269,9.85605305 37.5845269,9.84450141 C37.5837756,9.83448999 37.5830242,9.82524867 37.5822729,9.81523725 C37.5807703,9.80137528 37.5785163,9.78751331 37.5762624,9.77365134 C37.5740084,9.76441003 37.5725058,9.75516871 37.5702518,9.7459274 C37.5679978,9.73591598 37.5664952,9.72590456 37.5642412,9.71666324 C37.5627386,9.71127248 37.5604846,9.70665182 37.558982,9.70203116 C37.5544741,9.68585887 37.5492148,9.66968657 37.542453,9.65351427 C37.5417016,9.65120394 37.5409503,9.6481235 37.540199,9.64504307 C37.5364424,9.63657186 37.5311832,9.62887077 37.5274266,9.62039956 C37.5229186,9.61115825 37.519162,9.60268705 37.5146541,9.59421584 C37.5078922,9.58189409 37.500379,9.56880223 37.4928658,9.55648048 C37.4876066,9.54800928 37.4823474,9.54107829 37.4770881,9.5333772 C37.4718289,9.5256761 37.467321,9.5172049 37.4620617,9.51027391 C37.4598078,9.50796359 37.4575538,9.50488315 37.4552999,9.50257282 C37.4447814,9.48948096 37.4335116,9.4763891 37.4214905,9.46406735 C37.4184852,9.46098691 37.4154799,9.45713636 37.4124746,9.45405593 C37.4057127,9.44635483 37.3981995,9.44019396 37.3906863,9.43326297 C37.3831731,9.4271021 37.3764113,9.42094122 37.3688981,9.41478035 C37.3583796,9.40553903 37.3471098,9.39706783 37.33584,9.38936673 C37.3283268,9.38397597 37.3208136,9.37935531 37.3133004,9.37396455 C37.3027819,9.36703356 37.2937661,9.36010258 37.2824963,9.3539417 L29.5040815,4.97509946 L37,1.26779265 L44.4966698,4.97509946 L39.2344253,7.93771045 C38.9504264,8.09712311 38.8467443,8.46292509 39.0022675,8.75402645 C39.0586165,8.85876133 39.142013,8.93885272 39.2374306,8.99199027 C39.4072289,9.08594362 39.6175985,9.0928746 39.7986666,8.99122016 L45.1893868,5.95621888 L45.1893868,15.6588276 L37,20.2687027 L28.8113646,15.6588276 L28.8113646,5.95621888 Z M27.9428388,16.5406029 L36.718255,21.4808549 C36.7280222,21.4870158 36.7385407,21.4908664 36.7490592,21.495487 C36.7595776,21.5008778 36.7693448,21.5062686 36.7806146,21.5108892 C36.7963923,21.5178202 36.81217,21.5224408 36.8279477,21.5278316 C36.8354609,21.5301419 36.8437255,21.5332224 36.8512387,21.5355327 C36.8715243,21.5409235 36.8918099,21.544774 36.9120956,21.5478545 C36.9166035,21.5486246 36.9203601,21.5493947 36.924868,21.5501648 C36.9496616,21.5532452 36.9744551,21.5555556 37,21.5555556 C37,21.5555556 37,21.5555556 37,21.5555556 C37.0007513,21.5555556 37.0007513,21.5555556 37.0007513,21.5555556 C37.0255449,21.5555556 37.0510898,21.5532452 37.0758833,21.5501648 C37.0803912,21.5493947 37.0841478,21.5486246 37.0886557,21.5478545 C37.1089414,21.544774 37.129227,21.5409235 37.1495127,21.5355327 C37.1570259,21.5332224 37.1645391,21.5301419 37.1720523,21.5278316 C37.1885813,21.5224408 37.204359,21.5178202 37.2201367,21.5108892 C37.2306552,21.5062686 37.2411737,21.5008778 37.2516922,21.495487 C37.2622106,21.4908664 37.2727291,21.4870158 37.2824963,21.4808549 L46.0579125,16.5406029 C46.2449912,16.4350979 46.3614458,16.2333293 46.3614458,16.0138481 L46.3614458,4.94044454 C46.3614458,4.93813421 46.3614458,4.93505377 46.3614458,4.93274345 C46.3614458,4.93043312 46.3614458,4.92735268 46.3614458,4.92504235 C46.3614458,4.91503093 46.3591918,4.90578962 46.3591918,4.89577819 C46.3576892,4.88114611 46.3569379,4.86651403 46.3546839,4.85188195 C46.3531813,4.8395602 46.350176,4.82723845 46.347922,4.81568681 C46.3449167,4.80105473 46.3419115,4.78719276 46.3381549,4.77333079 C46.3343983,4.76177915 46.3306417,4.75022751 46.3261337,4.73867587 C46.3216258,4.7248139 46.3171179,4.71172204 46.3111074,4.69863018 C46.3065994,4.68707854 46.3013402,4.676297 46.2953296,4.66551547 C46.2893191,4.65319372 46.2825572,4.64010186 46.275044,4.62855022 C46.2690334,4.61776869 46.2630229,4.60775726 46.256261,4.59774584 C46.2479965,4.5861942 46.239732,4.57464256 46.2307161,4.56386103 C46.2232029,4.5538496 46.2156897,4.54460829 46.2074252,4.53613709 C46.1984094,4.52535556 46.1886422,4.51534413 46.1781237,4.50533271 C46.1691079,4.49686151 46.1600921,4.4883903 46.1510762,4.48068921 C46.1405577,4.4714479 46.1292879,4.46297669 46.1180181,4.45450549 C46.108251,4.44680439 46.0977325,4.43987341 46.087214,4.43294242 C46.0827061,4.42986199 46.0789495,4.42601144 46.0736903,4.42370111 C46.0661771,4.41908045 46.0586639,4.41522991 46.0503994,4.41137936 C46.0436375,4.40752881 46.0376269,4.40290816 46.0301137,4.39905761 L37.2546974,0.0594909537 C37.093915,-0.0198303179 36.9068363,-0.0198303179 36.7453026,0.0594909537 L27.9698863,4.39905761 C27.9631244,4.40290816 27.9563625,4.40752881 27.9496006,4.41137936 C27.9420875,4.41522991 27.9338229,4.41908045 27.9263097,4.42370111 C27.9218018,4.42601144 27.9172939,4.42986199 27.912786,4.43294242 C27.9022675,4.43987341 27.8925003,4.44680439 27.8819819,4.45450549 C27.8707121,4.46297669 27.8601936,4.4714479 27.8489238,4.48068921 C27.8399079,4.4883903 27.8308921,4.49686151 27.8218763,4.50533271 C27.8121091,4.51534413 27.802342,4.52535556 27.7925748,4.53613709 C27.7850616,4.54460829 27.7767971,4.5538496 27.7692839,4.56386103 C27.7610194,4.57464256 27.7527548,4.5861942 27.7444903,4.59774584 C27.7377284,4.60775726 27.7309666,4.61776869 27.724956,4.62855022 C27.7181941,4.64010186 27.7114322,4.65319372 27.7046704,4.66551547 C27.6994111,4.676297 27.6941519,4.68707854 27.689644,4.69863018 C27.6836334,4.71172204 27.6791255,4.7248139 27.6738663,4.73867587 C27.6701097,4.75022751 27.6663531,4.76177915 27.6625965,4.77333079 C27.6588399,4.78719276 27.6558346,4.80105473 27.6528293,4.81568681 C27.6505753,4.82723845 27.6475701,4.8395602 27.6460674,4.85188195 C27.6438135,4.86651403 27.6423108,4.88114611 27.6415595,4.89577819 C27.6408082,4.90578962 27.6393055,4.91503093 27.6385542,4.92504235 C27.6385542,4.92735268 27.6393055,4.93043312 27.6393055,4.93274345 C27.6393055,4.93505377 27.6385542,4.93813421 27.6385542,4.94044454 L27.6385542,16.0138481 C27.6385542,16.2333293 27.7550088,16.4350979 27.9428388,16.5406029 L27.9428388,16.5406029 Z" id="Fill-7" fill="#000000"></path>
                        </g>
                    </g>
                    <path d="M8,138.342148 C7.75403233,102.490915 27.2421967,67.8294637 61.2652778,50.4285381 C109.277566,25.872998 168.053893,44.9891205 192.545834,93.1246372 C199.80463,107.390443 203.236245,122.602865 203.224696,137.58804 L203.389275,137.889105 C203.490332,152.629666 206.929165,167.571419 214.065249,181.596953 C238.55719,229.732469 297.333517,248.850039 345.345805,224.293052 C379.13068,207.015157 398.582753,172.715562 398.611626,137.133549 L398.61307,137.621331 C398.366201,101.770098 417.852922,67.1071993 451.876003,49.7062737 C499.888292,25.1507336 558.664619,44.2668561 583.15656,92.4038203 C590.415356,106.668179 593.84697,121.8806 593.835421,136.865776 L594,137.168288" id="Stroke-1" stroke="#B8C4C2" stroke-width="2"></path>
                    <circle id="Oval" fill="#D8D8D8" cx="7.5" cy="135.5" r="7.5"></circle>
                    <circle id="Oval" fill="#D8D8D8" cx="593.5" cy="135.5" r="7.5"></circle>
                    <circle id="Oval" fill="#0E7ABF" cx="497.5" cy="38.5" r="7.5"></circle>
                    <circle id="Oval" fill="#91BF4C" cx="103.5" cy="38.5" r="7.5"></circle>
                    <circle id="Oval" fill="#0E7ABF" cx="304.5" cy="235.5" r="7.5"></circle>
                </g>
                <g filter="url(#filter-2)" id="Group-19">
                    <g transform="translate(467.000000, 108.000000)">
                        <path d="M37,58 L37,50.586 L34,53.586 L30,49.586 L26,53.586 L23,50.586 L23,58 L2,58 L2,18 L23,18 L23,26.414 L26,23.414 L30,27.414 L34,23.414 L37,26.414 L37,18 L58,18 L58,58 L37,58 Z M25,58 L25,55.414 L26,56.414 L30,52.414 L34,56.414 L35,55.414 L35,58 L25,58 Z M11.554,2 L23,2 L23,16 L2.804,16 L11.554,2 Z M25,18 L26,18 C26,18.552 26.448,19 27,19 C27.552,19 28,18.552 28,18 L32,18 C32,18.552 32.448,19 33,19 C33.552,19 34,18.552 34,18 L35,18 L35,21.586 L34,20.586 L30,24.586 L26,20.586 L25,21.586 L25,18 Z M30,2 L35,2 L35,16 L30,16 L25,16 L25,2 L30,2 Z M48.446,2 L57.196,16 L37,16 L37,2 L48.446,2 Z M49.554,0 L37,0 L23,0 L10.446,0 L0,16.713 L0,60 L23,60 L37,60 L60,60 L60,16.713 L49.554,0 Z" id="Fill-1" fill="#000000"></path>
                        <path d="M30,2 C30.552,2 31,2.448 31,3 C31,3.552 30.552,4 30,4 C29.448,4 29,3.552 29,3 C29,2.448 29.448,2 30,2" id="Fill-3" fill="#000000"></path>
                        <path d="M27,5 C27.552,5 28,5.448 28,6 C28,6.552 27.552,7 27,7 C26.448,7 26,6.552 26,6 C26,5.448 26.448,5 27,5" id="Fill-5" fill="#000000"></path>
                        <path d="M27,11 C27.552,11 28,11.448 28,12 C28,12.552 27.552,13 27,13 C26.448,13 26,12.552 26,12 C26,11.448 26.448,11 27,11" id="Fill-7" fill="#000000"></path>
                        <path d="M30,8 C30.552,8 31,8.448 31,9 C31,9.552 30.552,10 30,10 C29.448,10 29,9.552 29,9 C29,8.448 29.448,8 30,8" id="Fill-9" fill="#000000"></path>
                        <path d="M33,5 C33.552,5 34,5.448 34,6 C34,6.552 33.552,7 33,7 C32.448,7 32,6.552 32,6 C32,5.448 32.448,5 33,5" id="Fill-11" fill="#000000"></path>
                        <path d="M33,11 C33.552,11 34,11.448 34,12 C34,12.552 33.552,13 33,13 C32.448,13 32,12.552 32,12 C32,11.448 32.448,11 33,11" id="Fill-13" fill="#000000"></path>
                        <path d="M30,14 C30.552,14 31,14.448 31,15 C31,15.552 30.552,16 30,16 C29.448,16 29,15.552 29,15 C29,14.448 29.448,14 30,14" id="Fill-15" fill="#000000"></path>
                        <path d="M30,20 C30.552,20 31,20.448 31,21 C31,21.552 30.552,22 30,22 C29.448,22 29,21.552 29,21 C29,20.448 29.448,20 30,20" id="Fill-17" fill="#000000"></path>
                    </g>
                </g>
            </g>
        </g>
    </g>
</svg>