<?xml version="1.0" encoding="UTF-8"?>
<svg width="24px" height="25px" viewBox="0 0 24 25" version="1.1" xmlns="http://www.w3.org/2000/svg" xmlns:xlink="http://www.w3.org/1999/xlink">
    <title>Group 2</title>
    <g id="Page-1" stroke="none" stroke-width="1" fill="none" fill-rule="evenodd">
        <g id="1_M_BD_Home" transform="translate(-368.000000, -70.000000)" fill="#0078C2" stroke="#0078C2">
            <g id="Group-2" transform="translate(380.000000, 82.500000) scale(-1, -1) translate(-380.000000, -82.500000) translate(369.000000, 71.500000)">
                <path d="M14.5,19 C15.3284271,19 16,19.6715729 16,20.5 C16,21.3284271 15.3284271,22 14.5,22 L14.5,22 L1.5,22 C0.671572875,22 1.01453063e-16,21.3284271 0,20.5 C-1.01453063e-16,19.6715729 0.671572875,19 1.5,19 L1.5,19 Z M20.5,10 C21.3284271,10 22,10.6715729 22,11.5 C22,12.3284271 21.3284271,13 20.5,13 L20.5,13 L1.5,13 C0.671572875,13 1.01453063e-16,12.3284271 0,11.5 C-1.01453063e-16,10.6715729 0.671572875,10 1.5,10 L1.5,10 Z M20.5,0 C21.3284271,-1.52179594e-16 22,0.671572875 22,1.5 C22,2.32842712 21.3284271,3 20.5,3 L20.5,3 L11.5,3 C10.6715729,3 10,2.32842712 10,1.5 C10,0.671572875 10.6715729,1.52179594e-16 11.5,0 L11.5,0 Z" id="Combined-Shape"></path>
            </g>
        </g>
    </g>
</svg>