<?xml version="1.0" encoding="UTF-8"?>
<svg width="796px" height="319px" viewBox="0 0 796 319" version="1.1" xmlns="http://www.w3.org/2000/svg" xmlns:xlink="http://www.w3.org/1999/xlink">
    <title>F394507D-963C-40A9-828C-487EA9D9EEA4</title>
    <defs>
        <filter id="filter-1">
            <feColorMatrix in="SourceGraphic" type="matrix" values="0 0 0 0 1.000000 0 0 0 0 1.000000 0 0 0 0 1.000000 0 0 0 1.000000 0"></feColorMatrix>
        </filter>
        <filter id="filter-2">
            <feColorMatrix in="SourceGraphic" type="matrix" values="0 0 0 0 1.000000 0 0 0 0 1.000000 0 0 0 0 1.000000 0 0 0 1.000000 0"></feColorMatrix>
        </filter>
        <polygon id="path-3" points="0 0 76 0 76 84 0 84"></polygon>
        <filter id="filter-5">
            <feColorMatrix in="SourceGraphic" type="matrix" values="0 0 0 0 1.000000 0 0 0 0 1.000000 0 0 0 0 1.000000 0 0 0 1.000000 0"></feColorMatrix>
        </filter>
        <filter id="filter-6">
            <feColorMatrix in="SourceGraphic" type="matrix" values="0 0 0 0 1.000000 0 0 0 0 1.000000 0 0 0 0 1.000000 0 0 0 1.000000 0"></feColorMatrix>
        </filter>
        <polygon id="path-7" points="0.000573061225 0.876180015 37.9309224 0.876180015 37.9309224 64 0.000573061225 64"></polygon>
    </defs>
    <g id="Page-1" stroke="none" stroke-width="1" fill="none" fill-rule="evenodd">
        <g id="4_BD_Home" transform="translate(-323.000000, -799.000000)">
            <g id="Group-2" transform="translate(323.500000, 799.500000)">
                <path d="M7.5,160.3353 C7.25473295,124.666982 26.6873874,90.1823746 60.6135572,72.8702292 C108.489088,48.4399725 167.097997,67.4585637 191.520175,115.348491 C198.758295,129.541513 202.180135,144.676319 202.168619,159.58504 L202.332729,159.884568 C202.433498,174.549923 205.862536,189.415442 212.978293,203.369417 C237.400472,251.259345 296.00938,270.279376 343.884911,245.847679 C377.573553,228.657937 396.970218,194.53334 396.99901,159.132868 L397.000449,159.618161 C396.754284,123.949842 416.185499,89.4637953 450.111669,72.1516499 C497.987199,47.7213932 556.596108,66.7399844 581.018286,114.631352 C588.256406,128.822933 591.678246,143.95774 591.66673,158.866461 L591.83084,159.167429 C591.933049,173.832783 595.360647,188.696863 602.476405,202.650838 C626.898583,250.542205 685.507492,269.560797 733.383022,245.13054 C767.071664,227.939358 786.46833,193.8162 786.5,158.415729 L786.5,159.618161" id="Stroke-1" stroke="#B8C4C2" stroke-width="2" stroke-linecap="round" stroke-linejoin="round"></path>
                <g id="Group-7" transform="translate(36.000000, 89.000000)">
                    <circle id="Oval" fill="#0E7ABF" opacity="0.84" cx="68.5" cy="68.5" r="68.5"></circle>
                    <g filter="url(#filter-1)" id="Group-25">
                        <g transform="translate(25.500000, 46.000000)">
                            <path d="M38.4733333,44.5 C36.9266667,44.5 35.7666667,43.7347826 35.5733333,42.3956522 C34.8,40.1 33.06,38.7608696 30.9333333,38.7608696 C28.8066667,38.7608696 26.8733333,40.1 26.2933333,42.2043478 C25.9066667,43.7347826 24.94,44.5 23.3933333,44.5 L5.22,44.5 C2.32,44.5 0,42.2043478 0,39.3347826 L0,5.66521739 C0,2.79565217 2.32,0.5 5.22,0.5 L23.3933333,0.5 C24.94,0.5 26.1,1.26521739 26.2933333,2.60434783 C27.0666667,4.9 28.8066667,6.23913043 30.9333333,6.23913043 C33.06,6.23913043 34.9933333,4.9 35.5733333,2.79565217 C35.96,1.26521739 36.9266667,0.5 38.4733333,0.5 L81.5866667,0.5 C84.4866667,0.5 86.8066667,2.79565217 87,5.66521739 L87,39.3347826 C87,42.2043478 84.68,44.5 81.78,44.5 C81.78,44.5 38.4733333,44.5 38.4733333,44.5 Z" id="Stroke-1" stroke="#000000"></path>
                            <path d="M80,38.5 C80,40.2647059 78.5882353,41.5 77,41.5" id="Stroke-3" stroke="#000000" stroke-linecap="round"></path>
                            <path d="M30.5,14.5 C30.2,14.5 30,14.1 30,13.5 L30,11.5 C30,10.9 30.2,10.5 30.5,10.5 C30.8,10.5 31,10.9 31,11.5 L31,13.5 C31,14.1 30.8,14.5 30.5,14.5" id="Fill-5" fill="#000000"></path>
                            <path d="M30.5,21.7337662 C30.2,21.7337662 30,21.3441558 30,20.7597403 L30,16.474026 C30,15.8896104 30.2,15.5 30.5,15.5 C30.8,15.5 31,15.8896104 31,16.474026 L31,20.7597403 C31,21.3441558 30.8,21.7337662 30.5,21.7337662 M30.5,30.5 C30.2,30.5 30,30.1103896 30,29.525974 L30,25.0454545 C30,24.461039 30.2,24.0714286 30.5,24.0714286 C30.8,24.0714286 31,24.6558442 31,25.0454545 L31,29.3311688 C31,29.9155844 30.8,30.5 30.5,30.5" id="Fill-7" fill="#000000"></path>
                            <path d="M30.5,36.5 C30.2,36.5 30,36.1 30,35.5 L30,33.5 C30,32.9 30.2,32.5 30.5,32.5 C30.8,32.5 31,32.9 31,33.5 L31,35.5 C31,36.3 30.8,36.5 30.5,36.5" id="Fill-9" fill="#000000"></path>
                            <path d="M24.125,15.5 L12.875,15.5 C11.75,15.5 11,14.7 11,13.5 C11,12.3 11.75,11.5 12.875,11.5 L24.125,11.5 C25.25,11.5 26,12.3 26,13.5 C26,14.7 25.25,15.5 24.125,15.5" id="Fill-11" fill="#000000"></path>
                            <path d="M24.125,23.5 L12.875,23.5 C11.75,23.5 11,22.7 11,21.5 C11,20.3 11.75,19.5 12.875,19.5 L24.125,19.5 C25.25,19.5 26,20.3 26,21.5 C26,22.7 25.25,23.5 24.125,23.5" id="Fill-13" fill="#000000"></path>
                            <path d="M77.0833333,31.5 L57.9166667,31.5 C56.7666667,31.5 56,30.7 56,29.5 C56,28.3 56.7666667,27.5 57.9166667,27.5 L77.0833333,27.5 C78.2333333,27.5 79,28.3 79,29.5 C79,30.7 78.2333333,31.5 77.0833333,31.5" id="Fill-15" fill="#000000"></path>
                            <path d="M77.0833333,23.5 L57.9166667,23.5 C56.7666667,23.5 56,22.7 56,21.5 C56,20.3 56.7666667,19.5 57.9166667,19.5 L77.0833333,19.5 C78.2333333,19.5 79,20.3 79,21.5 C79,22.7 78.2333333,23.5 77.0833333,23.5" id="Fill-17" fill="#000000"></path>
                            <path d="M77.0869565,15.5 L36.9130435,15.5 C35.7652174,15.5 35,14.7 35,13.5 C35,12.3 35.7652174,11.5 36.9130435,11.5 L77.0869565,11.5 C78.2347826,11.5 79,12.3 79,13.5 C79,14.7 78.2347826,15.5 77.0869565,15.5" id="Fill-19" fill="#000000"></path>
                            <path d="M5,25.5 L5,9.79591837 C5,7.85714286 6.41176471,6.5 8,6.5" id="Stroke-21" stroke="#000000" stroke-linecap="round"></path>
                            <line x1="4.5" y1="36.5" x2="4.5" y2="32.5" id="Stroke-23" stroke="#000000" stroke-linecap="round"></line>
                        </g>
                    </g>
                </g>
                <g id="Group-8" transform="translate(235.000000, 89.000000)">
                    <circle id="Oval" fill="#91BF4C" opacity="0.84" cx="68.5" cy="68.5" r="68.5"></circle>
                    <g filter="url(#filter-2)" id="Group-3">
                        <g transform="translate(26.000000, 26.500000)">
                            <mask id="mask-4" fill="white">
                                <use xlink:href="#path-3"></use>
                            </mask>
                            <g id="Clip-2"></g>
                            <path d="M27.6563948,40.6974163 C28.3476899,40.0016247 29.4660678,40.0016247 30.1555532,40.6974163 L42.9101287,53.5704738 C43.5996141,54.2662654 43.5996141,55.3948722 42.9101287,56.09249 C42.2206433,56.7882816 41.1004557,56.7882816 40.4109703,56.09249 L27.6563948,43.2194325 C26.9669094,42.5236409 26.9669094,41.3950341 27.6563948,40.6974163 M20.4177027,48.0023148 C21.1089978,47.3065233 22.2273757,47.3065233 22.9168611,48.0023148 L35.6732463,60.8753724 C36.3627317,61.571164 36.3627317,62.6997708 35.6732463,63.3973886 C34.9837609,64.0931802 33.8635733,64.0931802 33.1740878,63.3973886 L20.4177027,50.5243311 C19.7282173,49.8285395 19.7282173,48.6999327 20.4177027,48.0023148 M74.6156001,20.1432579 L63.5584979,8.6836982 L54.2947817,8.88458291 C54.6096648,9.69542665 54.0957177,10.9956986 56.3306639,12.966195 C56.4048605,13.0264604 56.4971538,13.0629849 56.5604924,13.1342077 L56.5930665,13.1013356 C58.4769361,14.8782522 59.7147524,17.681507 59.7147524,20.8700953 C59.7147524,20.9467967 59.6966557,21.014367 59.6930364,21.0892422 C61.859215,22.3511635 63.3340985,24.6869048 63.3340985,27.3933697 C63.3340985,31.4275 60.0929741,34.6982683 56.0954064,34.6982683 C52.0978387,34.6982683 48.8567143,31.4275 48.8567143,27.3933697 C48.8567143,23.4724654 51.9241101,20.298487 55.7696652,20.1213432 C55.6067947,18.4996557 54.9715994,17.1117249 54.0522855,16.2533994 C53.9780889,16.1931339 53.8857956,16.1566095 53.8188377,16.0853867 L53.5980576,15.7201418 C50.7152485,11.8028899 51.6761849,11.0687476 51.2056699,8.98502526 L43.4367436,8.78414055 L1.59891289,50.9041858 L32.5787054,82.2677679 L74.7151322,39.6455109 C74.7151322,39.6455109 74.6156001,20.1432579 74.6156001,20.1432579 M56.5604924,28.6096353 C56.2112255,28.9858376 55.7262331,29.2195944 55.1887602,29.2195944 C54.1174338,29.2195944 53.2524101,28.2845673 53.2524101,27.1322196 C53.2524101,26.4473853 53.5781512,25.8702983 54.0504759,25.4886174 C54.4992748,25.070412 54.8666384,24.5079348 55.1670441,23.876061 C53.6197737,24.2924403 52.4742507,25.7022857 52.4742507,27.3915435 C52.4742507,29.4076955 54.0957177,31.0439928 56.0935967,31.0439928 C58.0932854,31.0439928 59.7129428,29.4076955 59.7129428,27.3915435 C59.7129428,26.5277392 59.4052984,25.7461151 58.9076383,25.11972 C57.7946894,27.9448895 56.5604924,28.6096353 56.5604924,28.6096353 M75.2869888,41.5922663 L34.0336825,83.2228834 C33.975773,83.3105422 33.9377699,83.4091583 33.8617636,83.4858597 C33.505258,83.8437998 33.034743,84.0099862 32.5678474,83.9995368 C32.1009517,84.0099862 31.6304368,83.8437998 31.2739312,83.4858597 C31.1979249,83.4091583 31.1617314,83.3105422 31.1020122,83.2228834 L0.770082642,52.6135321 C0.683218337,52.5550929 0.587305666,52.5167422 0.509489726,52.4400407 C0.15298414,52.0802745 -0.00807675917,51.6054561 0.000463241291,51.1342901 C-0.0098864322,50.6631242 0.15298414,50.1883057 0.509489726,49.8285395 C0.587305666,49.7518381 0.683218337,49.7153136 0.770082642,49.6550482 L42.0233889,8.02625732 C42.3545591,7.59709453 42.8467902,7.30489859 43.4258855,7.30489859 L43.4638887,7.30489859 L43.4747467,7.30489859 L50.7659193,7.30489859 C51.0066058,4.56190917 52.1159354,2.15494508 53.7880733,0.578913213 L53.817028,0.611785257 C54.171724,0.233756755 54.6549067,0 55.1887602,0 C56.2600866,0 57.1287297,0.935027019 57.1287297,2.08737477 C57.1287297,2.77220901 56.8029885,3.349296 56.3306639,3.72915073 C55.4638305,4.53634202 54.846732,5.8092206 54.6404293,7.30489859 L63.281618,7.30489859 L63.2960954,7.30489859 L63.3322888,7.30489859 C63.9113842,7.30489859 64.4072346,7.59709453 64.7347854,8.02625732 L75.2851792,18.673147 C75.7086426,19.0073461 76,19.5059055 76,20.0902973 L76,20.1286481 L76,20.1396054 L76,40.1276342 L76,40.1404177 L76,40.1769422 C76,40.7613341 75.7104523,41.2598934 75.2869888,41.5922663" id="Fill-1" fill="#000000" mask="url(#mask-4)"></path>
                        </g>
                    </g>
                </g>
                <circle id="Oval" fill="#0E7ABF" opacity="0.84" cx="497.5" cy="157.5" r="68.5"></circle>
                <g filter="url(#filter-5)" id="Group-17">
                    <g transform="translate(468.500000, 130.000000)">
                        <path d="M0.5,53.5 L59.5,53.5 L59.5,0.5 L0.5,0.5 L0.5,53.5 Z M2.1,51.8888889 L57.9,51.8888889 L57.9,2.11111111 L2.1,2.11111111 L2.1,51.8888889 Z" id="Fill-1" fill="#000000"></path>
                        <g id="Group-16" transform="translate(12.000000, 11.000000)" fill="#000000">
                            <path d="M21.5833333,24.8 L3.08333333,24.8 C1.38133333,24.8 0,26.1857 0,27.9 C0,29.6143 1.38133333,31 3.08333333,31 L21.5833333,31 C23.2853333,31 24.6666667,29.6143 24.6666667,27.9 C24.6666667,26.1857 23.2853333,24.8 21.5833333,24.8" id="Fill-2"></path>
                            <path d="M33.9166667,24.8 L30.8333333,24.8 C29.1313333,24.8 27.75,26.1857 27.75,27.9 C27.75,29.6143 29.1313333,31 30.8333333,31 L33.9166667,31 C35.6186667,31 37,29.6143 37,27.9 C37,26.1857 35.6186667,24.8 33.9166667,24.8" id="Fill-4"></path>
                            <path d="M33.9166667,0 L15.4166667,0 C13.7146667,0 12.3333333,1.3857 12.3333333,3.1 C12.3333333,4.8143 13.7146667,6.2 15.4166667,6.2 L33.9166667,6.2 C35.6186667,6.2 37,4.8143 37,3.1 C37,1.3857 35.6186667,0 33.9166667,0" id="Fill-6"></path>
                            <path d="M33.9166667,12.4 L27.75,12.4 C26.048,12.4 24.6666667,13.7857 24.6666667,15.5 C24.6666667,17.2143 26.048,18.6 27.75,18.6 L33.9166667,18.6 C35.6186667,18.6 37,17.2143 37,15.5 C37,13.7857 35.6186667,12.4 33.9166667,12.4" id="Fill-8"></path>
                            <path d="M3.08333333,18.6 L9.25,18.6 C10.952,18.6 12.3333333,17.2143 12.3333333,15.5 C12.3333333,13.7857 10.952,12.4 9.25,12.4 L3.08333333,12.4 C1.38133333,12.4 0,13.7857 0,15.5 C0,17.2143 1.38133333,18.6 3.08333333,18.6" id="Fill-10"></path>
                            <path d="M3.08333333,6.2 L6.16666667,6.2 C7.86866667,6.2 9.25,4.8143 9.25,3.1 C9.25,1.3857 7.86866667,0 6.16666667,0 L3.08333333,0 C1.38133333,0 0,1.3857 0,3.1 C0,4.8143 1.38133333,6.2 3.08333333,6.2" id="Fill-12"></path>
                            <path d="M20.6891667,17.701 C21.2441667,17.112 21.5833333,16.306 21.5833333,15.5 C21.5833333,14.694 21.2441667,13.8849 20.6891667,13.299 C19.5175,12.152 17.4516667,12.152 16.3108333,13.299 C15.7558333,13.8849 15.4166667,14.6599 15.4166667,15.5 C15.4166667,16.337 15.7558333,17.112 16.3108333,17.701 C16.8966667,18.259 17.6983333,18.6 18.5,18.6 C19.3016667,18.6 20.1033333,18.259 20.6891667,17.701" id="Fill-14"></path>
                        </g>
                    </g>
                </g>
                <g id="Group-12" transform="translate(621.000000, 89.000000)">
                    <circle id="Oval" fill="#0E7ABF" opacity="0.84" cx="68.5" cy="68.5" r="68.5"></circle>
                    <g filter="url(#filter-6)" id="Group-10">
                        <g transform="translate(50.000000, 36.000000)">
                            <g id="Group-3" transform="translate(0.000000, 0.500000)">
                                <mask id="mask-8" fill="white">
                                    <use xlink:href="#path-7"></use>
                                </mask>
                                <g id="Clip-2"></g>
                                <path d="M36.0575853,58.0718426 C36.0575853,60.3568037 34.1836751,62.1462651 31.8713731,62.1462651 L6.06069551,62.1462651 C3.74839347,62.1462651 1.87448327,60.2945123 1.87448327,58.0718426 L1.87448327,6.80320488 C1.87448327,4.51824378 3.74839347,2.7287823 6.06069551,2.7287823 L31.8713731,2.7287823 C34.1836751,2.7287823 36.0575853,4.58053516 36.0575853,6.80320488 L36.0575853,58.0718426 Z M31.8713731,0.874198017 L6.06069551,0.874198017 C2.74840163,0.874198017 0.000573061225,3.53007597 0.000573061225,6.80320488 L0.000573061225,58.0718426 C0.000573061225,61.3449715 2.6882302,64.0008494 6.06069551,64.0008494 L31.8713731,64.0008494 C35.1836669,64.0008494 37.9314955,61.3449715 37.9314955,58.0718426 L37.9314955,6.80320488 C37.9314955,3.53007597 35.2438384,0.874198017 31.8713731,0.874198017 L31.8713731,0.874198017 Z" id="Fill-1" fill="#000000" mask="url(#mask-8)"></path>
                            </g>
                            <path d="M27.025658,8.019 L10.974342,8.019 C10.4558848,8.019 10,8.478 10,9 C10,9.525 10.4558848,9.981 10.974342,9.981 L27.025658,9.981 C27.5441152,9.981 28,9.525 28,9 C28,8.478 27.5441152,8.019 27.025658,8.019" id="Fill-4" fill="#000000"></path>
                            <path d="M18.569005,57.7436313 L18.569005,57.7436313 C18.2191655,57.7436313 17.869326,57.6213525 17.5900963,57.3795739 C17.307657,57.1377953 17.169647,56.8348773 17.169647,56.5319592 C17.169647,55.8649838 17.7987162,55.3202872 18.569005,55.3202872 C19.3392939,55.3202872 19.9683631,55.8649838 19.9683631,56.5319592 C19.9683631,57.1989347 19.3392939,57.7436313 18.569005,57.7436313 M18.4983952,53.5 C16.5405777,53.5 15,54.8950903 15,56.5319592 C15,57.3184345 15.3498395,58.1076887 16.0495186,58.6523854 C16.6785878,59.197082 17.5900963,59.5 18.4983952,59.5 C20.4594223,59.5 22,58.1076887 22,56.4708198 C22,54.8339509 20.4594223,53.5 18.4983952,53.5" id="Fill-6" fill="#000000"></path>
                            <path d="M17.2005595,35.8328551 C17.2005595,35.0954089 17.7824403,34.4985653 18.5013988,34.4985653 C19.2175597,34.4985653 19.7994405,35.0954089 19.7994405,35.8328551 C19.7994405,36.3034433 19.5644502,36.7166428 19.2063697,36.9519369 C19.2063697,36.9519369 19.3322574,37.741033 19.4749301,38.6649928 C19.4749301,38.9433286 19.2567248,39.1671449 18.9881644,39.1671449 L18.0118356,39.1671449 C17.7432752,39.1671449 17.5250699,38.9433286 17.5250699,38.6649928 L17.7964278,36.9519369 C17.4383473,36.7166428 17.2005595,36.3034433 17.2005595,35.8328551 L17.2005595,35.8328551 Z M15.8997202,32.1657102 L15.8997202,29.8328551 C15.8997202,28.3579627 17.0634818,27.1671449 18.5013988,27.1671449 C19.9365182,27.1671449 21.1002798,28.3579627 21.1002798,29.8328551 L21.1002798,32.1657102 L15.8997202,32.1657102 Z M14.2743706,29.8328551 L14.2743706,32.1657102 L13.3008393,32.1657102 C12.5818808,32.1657102 12,32.7625538 12,33.5 L12,40.1657102 C12,40.9031564 12.5818808,41.5 13.3008393,41.5 L23.6991607,41.5 C24.4181192,41.5 25,40.9031564 25,40.1657102 L25,33.5 C25,32.7625538 24.4181192,32.1657102 23.6991607,32.1657102 L22.7256294,32.1657102 L22.7256294,29.8328551 C22.7256294,27.4397418 20.8345169,25.5 18.5013988,25.5 C16.1682806,25.5 14.2743706,27.4397418 14.2743706,29.8328551 L14.2743706,29.8328551 Z" id="Fill-8" fill="#010101"></path>
                        </g>
                    </g>
                </g>
                <text id="Promo-Season-Packing" font-family="Poppins-Regular, Poppins" font-size="16" font-weight="normal" fill="#FFFFFF">
                    <tspan x="439.512" y="17.5">Promo Season</tspan>
                    <tspan x="453.248" y="40.5">Packinging</tspan>
                </text>
                <text id="Labeling" font-family="Poppins-Regular, Poppins" font-size="16" font-weight="normal" fill="#FFFFFF">
                    <tspan x="274.5" y="289">Labeling</tspan>
                </text>
                <text id="Security-Control-App" font-family="Poppins-Regular, Poppins" font-size="16" font-weight="normal" fill="#FFFFFF">
                    <tspan x="634.988" y="288.5">Security Control</tspan>
                    <tspan x="653.1" y="311.5">Application</tspan>
                </text>
                <text id="Re-Ticketing" font-family="Poppins-Regular, Poppins" font-size="16" font-weight="normal" fill="#FFFFFF">
                    <tspan x="55" y="38">Re Ticketing</tspan>
                </text>
                <circle id="Oval" fill="#D8D8D8" cx="7.5" cy="156.5" r="7.5"></circle>
                <circle id="Oval" fill="#D8D8D8" cx="787" cy="156.5" r="7.5"></circle>
                <circle id="Oval" fill="#0E7ABF" cx="497.5" cy="59.5" r="7.5"></circle>
                <circle id="Oval" fill="#0E7ABF" cx="103.5" cy="59.5" r="7.5"></circle>
                <circle id="Oval" fill="#91BF4C" cx="303" cy="256.5" r="7.5"></circle>
                <circle id="Oval" fill="#0E7ABF" cx="697" cy="256.5" r="7.5"></circle>
            </g>
        </g>
    </g>
</svg>