<?xml version="1.0" encoding="UTF-8"?>
<svg width="264px" height="1393px" viewBox="0 0 264 1393" version="1.1" xmlns="http://www.w3.org/2000/svg" xmlns:xlink="http://www.w3.org/1999/xlink">
    <title>FBF2A838-BF0A-4634-8222-C539BBF8E55A</title>
    <g id="Page-1" stroke="none" stroke-width="1" fill="none" fill-rule="evenodd" stroke-dasharray="2,8">
        <g id="4_BD_Home" transform="translate(-588.000000, -1521.000000)" stroke="#B8C4C2" stroke-width="2">
            <path d="M25,2219.1976 C24.7189589,2171.48928 47.8269813,2125.36424 88.1697301,2102.2083 C145.100133,2069.5315 214.793956,2094.9699 243.835189,2159.02529 C252.442281,2178.00923 256.511306,2198.25286 256.497611,2218.19409 L256.69276,2218.59473 C256.812588,2238.21044 260.890172,2258.09388 269.351759,2276.75808 C298.392992,2340.81347 368.086815,2366.2538 425.017217,2333.57507 C465.077514,2310.58286 488.14274,2264.93935 488.176977,2217.58929 L488.178689,2218.23839 C487.885966,2170.53007 510.992276,2124.4031 551.335025,2101.24716 C608.265428,2068.57036 677.959251,2094.00876 707.000483,2158.06608 C715.607576,2177.04809 719.676601,2197.29172 719.662906,2217.23295 L719.858055,2217.63551 C719.979595,2237.25122 724.055467,2257.13274 732.517054,2275.79694 C761.558287,2339.85426 831.25211,2365.29266 888.182512,2332.61586 C928.242809,2309.62172 951.308035,2263.98013 951.342272,2216.63007 L951.345696,2218.23839 C951.051261,2170.53007 974.159283,2124.4031 1014.50032,2101.24716 C1071.43072,2068.57036 1141.12455,2094.00876 1170.16749,2158.06608 C1178.77287,2177.04809 1182.86415,2197.29365 1182.85045,2217.23488 L1182.84532,2217.41786 C1182.96515,2237.03357 1187.04273,2256.91701 1195.50432,2275.58122 C1224.54555,2339.63853 1294.23937,2365.07694 1351.16978,2332.40013 C1391.23007,2309.40599 1414.2953,2263.76441 1414.33125,2216.41435 L1414.33125,2217.06153" id="Stroke-1" transform="translate(719.665624, 2217.411567) rotate(-270.000000) translate(-719.665624, -2217.411567) "></path>
        </g>
    </g>
</svg>