<?xml version="1.0" encoding="UTF-8"?>
<svg width="640px" height="180px" viewBox="0 0 640 180" version="1.1" xmlns="http://www.w3.org/2000/svg" xmlns:xlink="http://www.w3.org/1999/xlink">
    <title>Group 7</title>
    <defs>
        <polygon id="path-1" points="0.00496866872 0.0234211005 8.19076932 0.0234211005 8.19076932 17.1009079 0.00496866872 17.1009079"></polygon>
    </defs>
    <g id="Symbols" stroke="none" stroke-width="1" fill="none" fill-rule="evenodd">
        <g id="Artboard" transform="translate(-4.000000, -83.000000)">
            <g id="Group-7" transform="translate(6.000000, 84.000000)">
                <g id="Group" transform="translate(318.000000, 89.318385) scale(1, -1) translate(-318.000000, -89.318385) translate(0.000000, 0.818385)">
                    <path d="M533.669752,91.2741122 L533.669752,74.5331502 C533.669752,73.3948834 532.76779,72.4710396 531.654256,72.4710396 L526.738004,72.4710396 C525.62447,72.4710396 524.722507,73.3948834 524.722507,74.5331502 L524.722507,91.2741122 C524.722507,92.4129492 525.62447,93.336793 526.738004,93.336793 L531.654256,93.336793 C532.76779,93.336793 533.669752,92.4129492 533.669752,91.2741122 Z" id="Path" stroke="#FFFFFF" stroke-width="2.25"></path>
                    <path d="M533.669752,75.4518615 L531.155381,75.4518615 C530.48597,75.4518615 529.941734,76.0306646 529.941734,76.7429929 L529.941734,88.3196343 C529.941734,89.0319626 530.48597,89.6107656 531.155381,89.6107656 L533.637098,89.6107656" id="Path" stroke="#FFFFFF" stroke-width="2.25"></path>
                    <path d="M502.354395,137.303916 L506.184713,133.916516 C506.645059,133.503708 506.828017,132.726226 506.828017,131.884189 L506.828017,122.399807" id="Path" stroke="#FFFFFF" stroke-width="2.25"></path>
                    <path d="M502.354395,107.495697 L506.184713,110.883407 C506.645059,111.296183 506.828017,112.075305 506.828017,112.915579 L506.828017,122.399807" id="Path" stroke="#FFFFFF" stroke-width="2.25"></path>
                    <line x1="7.27350382" y1="53.2063602" x2="129.552519" y2="53.7302396" id="Path" stroke="#FFFFFF" stroke-width="2.25"></line>
                    <path d="M91.5267277,53.0956972 L85.541618,35.9841949 C83.6961624,31.2385451 80.1791392,29.9943273 76.9874546,29.9943273 L62.4481814,29.9943273" id="Path" stroke="#FFFFFF" stroke-width="2.25"></path>
                    <path d="M37.0976539,38.936793 L62.0655129,38.936793 C63.6242392,38.936793 64.2567658,37.7894315 63.7880184,36.3812043 L61.2070839,28.7172312 C60.4954914,27.6469562 59.6088247,27.1771748 58.6205018,27.0135054 L37.0976539,27.0135054" id="Path" stroke="#FFFFFF" stroke-width="2.25"></path>
                    <path d="M37.8432576,38.936793 L21.1192771,38.936793 C19.525417,38.936793 18.8786333,37.7894315 19.3579462,36.3812043 L21.997055,28.7172312 C22.7246868,27.6469562 23.6313391,27.1771748 24.6361639,27.0135054 L37.8432576,27.0135054" id="Path" stroke="#FFFFFF" stroke-width="2.25"></path>
                    <path d="M200.384875,3.16470037 C201.285098,0.697734898 203.329,-0.197589736 206.403346,0.333477348 L482.511319,0.333477348 C485.795151,0.333477348 488.682658,3.70087387 488.954423,8.11848958 L488.954423,70.4014244 L487.227581,72.131364 L485.897063,72.131364 L484.17022,73.8618711 L484.17022,99.5199006 L485.897063,101.250975 L487.227581,101.250975 L488.954423,102.979213 L488.954423,109.035987 L489.679131,172.476376 C489.169571,174.774262 487.125669,176.799807 484.498603,176.799807 L469.823272,176.799807 C468.413489,176.680657 466.726279,175.869305 465.508997,173.344466 L437.919148,101.771829" id="Path" stroke="#FFFFFF" stroke-width="2.25"></path>
                    <path d="M211.568932,11.4834232 C211.568932,13.7190396 212.687337,23.6600807 208.586517,38.1915876 C204.485696,52.7230944 183.608791,65.3915876 183.608791,65.0189848 C183.608791,64.6463821 206.722507,65.1382177 209.33212,65.1382177 C209.940694,65.1382177 221.497558,65.1382177 244.002695,65.1382177 C254.106928,65.1382177 292.094137,82.1587109 353.979248,65.1382177 C366.512963,61.6910233 407.893971,60.3248133 478.122273,61.0395876 C478.122273,33.8842999 478.122273,18.0710396 478.122273,13.5998067 C478.122273,11.6123952 476.258263,9.87377934 474.394254,9.87377934 C468.802226,9.87377934 211.568932,9.24780674 211.568932,11.4834232 Z" id="Path-2" fill="#FFFFFF"></path>
                    <path d="M420.337982,80.9149359 L352.96567,80.9149359 C314.995381,92.7185405 277.223563,92.2983069 241.856076,80.9149359 L24.2130571,80.9149359 C21.5081844,80.9149359 19.619877,80.2512291 18.1625347,78.3068645 L1.73482757,59.1825277 C-0.754562637,56.3834409 0.872897474,53.0956972 5.19388913,53.0956972 L15.5654032,53.0956972" id="Path" stroke="#FFFFFF" stroke-width="2.25"></path>
                    <path d="M4.69478838,53.0956972 C2.80323256,52.5658363 2.35419854,51.4553832 3.22981488,49.8150693 L8.38248028,36.0105028 C10.2291327,31.2440098 13.7484368,29.9943273 16.9365784,29.9943273 L22.9311826,29.9943273" id="Path" stroke="#FFFFFF" stroke-width="2.25"></path>
                    <path d="M611.212543,91.8463821 L618.878031,95.6777877 L626.301688,99.301739 C628.630017,99.9506699 630.193484,101.290362 630.789626,103.50905 L634.383351,121.185068 C635.390044,122.516281 635.817466,123.174256 635.817466,124.979731 L632.443077,147.231617 C632.364341,148.559438 632.341845,150.327606 630.930225,151.27613 C627.387116,153.556998 625.300619,153.65479 625.148771,150.678639 L625.531202,120.670107 C625.418723,118.164826 627.375868,116.660641 630.227228,116.799132" id="Path" stroke="#FFFFFF" stroke-width="2.25"></path>
                    <line x1="477.749471" y1="83.2765191" x2="428.539623" y2="83.2765191" id="Path" stroke="#FFFFFF" stroke-width="2.25"></line>
                    <path d="M477.749471,71.7258341 L354.349109,71.7258341 C319.144478,82.446084 282.613936,84.7944815 243.629893,71.7258341" id="Path" stroke="#FFFFFF" stroke-width="2.25"></path>
                    <line x1="233.191441" y1="72.0984369" x2="217.533762" y2="72.0984369" id="Path" stroke="#FFFFFF" stroke-width="2.25"></line>
                    <path d="M620.895866,54.5861081 L631.753883,54.5573281 C633.684572,54.281379 634.326259,52.8260155 634.326259,51.1155825 L634.326259,28.1638396 C634.326259,26.9347657 633.853437,26.1074827 633.144204,25.0883332 L630.014573,21.4993018 C629.007013,20.2036389 627.076323,19.5614506 625.747919,19.5614506 L618.374149,19.5614506 C616.004411,19.5614506 614.940561,21.326622 614.940561,23.0026319 L614.940561,26.4438133" id="Path" stroke="#FFFFFF" stroke-width="2.25"></path>
                    <path d="M626.870221,54.5861081 L626.870221,82.045464 C626.805129,85.8286473 626.834716,91.3933177 625.568373,97.1912175 L625.379014,98.5532314" id="Path" stroke="#FFFFFF" stroke-width="2.25"></path>
                    <path d="M625.379014,103.599852 L623.582903,112.879071 L614.188737,138.987359 C611.5314,146.991082 607.927848,157.308378 604.171314,164.424184 C600.17681,171.899803 594.669494,173.061406 587.762685,173.061406 L510.875566,173.061406 C507.164361,173.248395 503.101865,171.333168 503.101865,166.151288 L503.101865,71.1225831 C503.033873,67.2484976 504.829984,65.9378701 507.419329,65.9378701 L539.386692,65.9378701 C562.707796,65.9378701 582.504671,49.5932751 585.960909,28.8606564 C586.357526,27.0593228 587.326406,26.4071255 588.55592,26.2682999 L617.939604,26.2682999 C619.911359,26.2682999 621.418506,27.6112255 621.395842,29.7236419 L621.395842,94.9002999" id="Path" stroke="#FFFFFF" stroke-width="2.25"></path>
                    <path d="M630.530223,137.303916 L631.343844,121.304394 L628.181035,106.458615 C627.951846,105.095562 627.699738,104.094146 626.40482,103.526018 L609.238559,94.9296391 L608.230127,93.6258239 L608.230127,85.8847382" id="Path" stroke="#FFFFFF" stroke-width="2.25"></path>
                    <path d="M615.686165,98.1694157 L615.686165,101.633605 C615.351447,110.314523 615.24933,113.98202 612.639665,123.802713 L598.870848,158.69505 C596.77177,163.052545 594.735097,165.621725 589.356918,165.621725 L553.144985,165.621725 C549.684343,165.621725 547.029293,163.890766 547.091698,159.559961 L547.954022,122.413062 C548.095851,118.663219 550.223295,117.437123 553.144985,117.217914 C577.380827,113.571996 583.275265,106.182483 607.477068,95.5724095" id="Path" stroke="#FFFFFF" stroke-width="2.25"></path>
                    <path d="M550.818639,66.6975846 C558.771745,67.6911919 567.097654,70.2994111 575.796364,74.5222422 C583.70627,78.362144 590.074897,81.585864 594.902247,84.1934022 C595.383648,84.4534356 595.587369,84.4069994 595.927666,84.9551189 C596.15453,85.3205319 596.278797,85.8173355 596.300467,86.4455298 L596.300467,109.919502 C596.297949,110.667225 596.173682,111.164028 595.927666,111.409913 C595.681649,111.655799 595.308847,111.655799 594.80926,111.409913 L567.967525,111.409913 C566.724852,108.925895 564.488041,107.062881 561.257091,105.820872 C558.026142,104.578863 554.546657,104.330461 550.818639,105.075667 L550.818639,66.6975846 Z" id="Path-3" fill="#FFFFFF" transform="translate(573.559553, 89.145956) scale(1, -1) translate(-573.559553, -89.145956) "></path>
                    <path d="M620.905391,102.427188 C620.905391,108.836019 619.717126,113.934081 617.624871,119.606525 L601.591823,161.570375 C599.567793,166.662206 593.779976,169.216335 589.470384,169.347752 L527.930772,169.347752 C523.592752,169.347752 520.994489,165.889566 520.994489,162.435346 L520.994489,65.7641903" id="Path" stroke="#FFFFFF" stroke-width="2.25"></path>
                    <line x1="611.585344" y1="91.8463821" x2="611.585344" y2="82.9039163" id="Path" stroke="#FFFFFF" stroke-width="2.25"></line>
                    <path d="M611.613698,90.7279938 C613.102969,88.8836361 614.191716,87.2480736 614.191716,85.5092544 L614.191716,76.8111652 C614.276334,74.46935 612.685522,74.4065973 611.613698,75.0717755 L605.58892,78.5516958 C604.054519,79.5420469 603.010901,81.6630868 603.010901,83.7687238 L603.010901,90.7279938 C603.010901,92.4662425 603.575019,93.336793 605.58892,93.336793 L608.172579,93.336793" id="Path" stroke="#FFFFFF" stroke-width="2.25"></path>
                    <line x1="605.993316" y1="82.9039163" x2="610.466939" y2="80.6682999" id="Path" stroke="#FFFFFF" stroke-width="2.25"></line>
                    <path d="M610.466939,41.7898896 L610.466939,40.5549293 C610.466939,39.2506083 609.394573,38.1915876 608.076932,38.1915876 L597.199266,38.1915876 C595.881626,38.1915876 594.80926,39.2506083 594.80926,40.5549293 L594.80926,41.7898896 C594.80926,43.0942107 595.881626,44.1532314 597.199266,44.1532314 L608.076932,44.1532314 C609.394573,44.1532314 610.466939,43.0942107 610.466939,41.7898896 Z" id="Path" stroke="#FFFFFF" stroke-width="2.25"></path>
                    <line x1="89.2899165" y1="44.5258341" x2="131.043727" y2="44.5258341" id="Path" stroke="#FFFFFF" stroke-width="2.25"></line>
                    <path d="M124.333293,19.5614506 L113.599187,19.5614506 C108.379332,19.6700784 105.83168,22.1768745 105.843003,28.0266224 L105.843003,30.7395328 L93.7558107,30.7395328 L88.5812469,26.4935773 L80.8137399,26.4935773 L77.3602565,29.8905645" id="Path" stroke="#FFFFFF" stroke-width="2.25"></path>
                    <line x1="105.693199" y1="30.36693" x2="115.386048" y2="30.36693" id="Path" stroke="#FFFFFF" stroke-width="2.25"></line>
                    <polyline id="Path" stroke="#FFFFFF" stroke-width="2.25" points="93.763539 30.7395328 93.763539 38.936793 86.3075015 38.936793"></polyline>
                    <line x1="90.0355202" y1="32.6025465" x2="84.0706902" y2="32.6025465" id="Path" stroke="#FFFFFF" stroke-width="2.25"></line>
                    <line x1="131.043727" y1="38.5641903" x2="94.5091427" y2="38.5641903" id="Path" stroke="#FFFFFF" stroke-width="2.25"></line>
                    <line x1="101.96518" y1="34.8381629" x2="94.5091427" y2="34.8381629" id="Path" stroke="#FFFFFF" stroke-width="2.25"></line>
                    <line x1="561.257091" y1="152.208026" x2="600.77409" y2="120.16419" id="Path" stroke="#FFFFFF" stroke-width="2.25"></line>
                    <line x1="567.967525" y1="138.049122" x2="579.897185" y2="128.361451" id="Path" stroke="#FFFFFF" stroke-width="2.25"></line>
                    <line x1="582.8796" y1="125.380629" x2="589.590034" y2="120.16419" id="Path" stroke="#FFFFFF" stroke-width="2.25"></line>
                    <path d="M593.318052,26.2682999 L588.806454,19.8142352 C587.991859,18.6256433 586.994978,18.172717 585.91265,18.0710396 L579.897185,18.0710396" id="Path" stroke="#FFFFFF" stroke-width="2.25"></path>
                    <line x1="500.863187" y1="25.1504917" x2="488.933527" y2="25.1504917" id="Path" stroke="#FFFFFF" stroke-width="2.25"></line>
                    <line x1="503.099999" y1="145.128574" x2="488.933527" y2="145.128574" id="Path" stroke="#FFFFFF" stroke-width="2.25"></line>
                    <path d="M518.012074,56.8217245 C509.648075,51.6270623 505.369086,45.8092461 501.483763,38.1915876 L491.915942,38.1915876" id="Path" stroke="#FFFFFF" stroke-width="2.25"></path>
                    <line x1="492.661546" y1="45.2710396" x2="500.117584" y2="45.2710396" id="Path" stroke="#FFFFFF" stroke-width="2.25"></line>
                    <line x1="492.661546" y1="51.2326835" x2="511.30164" y2="51.2326835" id="Path" stroke="#FFFFFF" stroke-width="2.25"></line>
                    <line x1="488.933527" y1="66.136793" x2="496.389565" y2="66.136793" id="Path" stroke="#FFFFFF" stroke-width="2.25"></line>
                    <line x1="488.933527" y1="60.1751492" x2="497.880772" y2="60.1751492" id="Path" stroke="#FFFFFF" stroke-width="2.25"></line>
                    <line x1="546.717818" y1="65.7641903" x2="546.717818" y2="59.8025465" id="Path" stroke="#FFFFFF" stroke-width="2.25"></line>
                    <line x1="525.095309" y1="64.2737793" x2="525.095309" y2="57.56693" id="Path" stroke="#FFFFFF" stroke-width="2.25"></line>
                    <line x1="371.128135" y1="100.788848" x2="385.294606" y2="81.4135054" id="Path" stroke="#FFFFFF" stroke-width="2.25"></line>
                    <line x1="333.102343" y1="100.788848" x2="323.409494" y2="87.3751492" id="Path" stroke="#FFFFFF" stroke-width="2.25"></line>
                    <line x1="149.68382" y1="100.788848" x2="163.850292" y2="81.4135054" id="Path" stroke="#FFFFFF" stroke-width="2.25"></line>
                    <line x1="111.658029" y1="100.043642" x2="97.4915577" y2="80.6682999" id="Path" stroke="#FFFFFF" stroke-width="2.25"></line>
                    <path d="M420.337982,79.9230944 L427.16728,97.6440807 C428.288423,100.140579 430.735589,101.534053 433.142916,101.534053 L479.240678,101.534053" id="Path" stroke="#FFFFFF" stroke-width="2.25"></path>
                </g>
                <g id="Group-8" transform="translate(563.493902, 83.363783)">
                    <g id="Group-9" transform="translate(0.000000, 0.372603)">
                        <path d="M8.94727457,15.1835616 C10.0876038,15.1835616 11.0119939,16.1219538 11.0119939,17.279482 C11.0119939,18.4370703 10.0876038,19.3753425 8.94727457,19.3753425 C7.8070044,19.3753425 6.88249617,18.4370703 6.88249617,17.279482 C6.88249617,16.1219538 7.8070044,15.1835616 8.94727457,15.1835616 Z M5.73538392,11.4575342 C6.87577228,11.4575342 7.80016232,12.3958664 7.80016232,13.5534547 C7.80016232,14.7109829 6.87577228,15.6493151 5.73538392,15.6493151 C4.59511376,15.6493151 3.67066462,14.7109829 3.67066462,13.5534547 C3.67066462,12.3958664 4.59511376,11.4575342 5.73538392,11.4575342 Z M12.6179096,11.4575342 C13.7582552,11.4575342 14.6826585,12.3959532 14.6826585,13.5533947 C14.6826585,14.711136 13.7582552,15.6493151 12.6179096,15.6493151 C11.4776823,15.6493151 10.5531608,14.711136 10.5531608,13.5533947 C10.5531608,12.3959532 11.4776823,11.4575342 12.6179096,11.4575342 Z M2.06474885,8.19726027 C3.20515353,8.19726027 4.1294977,9.13560585 4.1294977,10.2931507 C4.1294977,11.4507555 3.20515353,12.3890411 2.06474885,12.3890411 C0.924521467,12.3890411 0,11.4507555 0,10.2931507 C0,9.13560585 0.924521467,8.19726027 2.06474885,8.19726027 Z M15.8297412,8.19726027 C16.9700868,8.19726027 17.89449,9.13563898 17.89449,10.2932107 C17.89449,11.4507224 16.9700868,12.3890411 15.8297412,12.3890411 C14.6895138,12.3890411 13.7649923,11.4507224 13.7649923,10.2932107 C13.7649923,9.13563898 14.6895138,8.19726027 15.8297412,8.19726027 Z M8.94724502,8.19726027 C10.0875906,8.19726027 11.0119939,9.13563898 11.0119939,10.2932107 C11.0119939,11.4507224 10.0875906,12.3890411 8.94724502,12.3890411 C7.80695854,12.3890411 6.88249617,11.4507224 6.88249617,10.2932107 C6.88249617,9.13563898 7.80695854,8.19726027 8.94724502,8.19726027 Z M5.73538392,4.47123288 C6.87577228,4.47123288 7.80016232,5.40963844 7.80016232,6.56712329 C7.80016232,7.72454814 6.87577228,8.6630137 5.73538392,8.6630137 C4.59511376,8.6630137 3.67066462,7.72454814 3.67066462,6.56712329 C3.67066462,5.40963844 4.59511376,4.47123288 5.73538392,4.47123288 Z M12.6179096,4.47123288 C13.7582552,4.47123288 14.6826585,5.40951847 14.6826585,6.56712329 C14.6826585,7.72454814 13.7582552,8.6630137 12.6179096,8.6630137 C11.4776823,8.6630137 10.5531608,7.72454814 10.5531608,6.56712329 C10.5531608,5.40951847 11.4776823,4.47123288 12.6179096,4.47123288 Z" id="Combined-Shape" fill="#0E7ABF"></path>
                        <path d="M12.3424787,3.2383065 C11.0611806,4.5459454 8.98602042,4.4704231 8.98602042,4.4704231 C8.98602042,4.4704231 8.62536885,2.76571229 10.1038676,1.25673716 C11.5823664,-0.251955104 13.4069931,0.0189068919 13.4069931,0.0189068919 C13.4069931,0.0189068919 13.623896,1.93061104 12.3424787,3.2383065" id="Fill-17" fill="#91BF4C"></path>
                        <path d="M8.24624592,2.3377614 C9.10437208,3.20943804 8.93335511,4.46214217 8.93335511,4.46214217 C8.93335511,4.46214217 7.68558634,4.62055588 6.69551276,3.61480807 C5.70549767,2.60900676 6.00852055,1.4904808 6.00852055,1.4904808 C6.00852055,1.4904808 7.38811977,1.46592426 8.24624592,2.3377614" id="Fill-19" fill="#669900"></path>
                    </g>
                </g>
                <g id="Group-44" transform="translate(274.199647, 123.977482)">
                    <path d="M11.1840563,27.5726507 C11.1840563,25.7206055 12.6863822,24.2191781 14.5393212,24.2191781 C16.3923562,24.2191781 17.89449,25.7206055 17.89449,27.5726507 C17.89449,29.4247919 16.3923562,30.9260274 14.5393212,30.9260274 C12.6863822,30.9260274 11.1840563,29.4247919 11.1840563,27.5726507" id="Fill-1" fill="#0E7ABF"></path>
                    <path d="M5.96483001,21.6110069 C5.96483001,19.7588657 7.46705986,18.2575342 9.31999888,18.2575342 C11.17313,18.2575342 12.6752638,19.7588657 12.6752638,21.6110069 C12.6752638,23.4630521 11.17313,24.9643836 9.31999888,24.9643836 C7.46705986,24.9643836 5.96483001,23.4630521 5.96483001,21.6110069" id="Fill-3" fill="#0E7ABF"></path>
                    <path d="M0,16.3945205 C0,14.5424488 1.50234738,13.0410959 3.35521688,13.0410959 C5.20837448,13.0410959 6.71043376,14.5424488 6.71043376,16.3945205 C6.71043376,18.2466883 5.20837448,19.7479452 3.35521688,19.7479452 C1.50234738,19.7479452 0,18.2466883 0,16.3945205" id="Fill-5" fill="#0E7ABF"></path>
                    <path d="M17.1488863,21.6109109 C17.1488863,19.7590046 18.6512337,18.2575342 20.5041032,18.2575342 C22.3571647,18.2575342 23.85932,19.7590046 23.85932,21.6109109 C23.85932,23.4632971 22.3571647,24.9643836 20.5041032,24.9643836 C18.6512337,24.9643836 17.1488863,23.4632971 17.1488863,21.6109109" id="Fill-7" fill="#0E7ABF"></path>
                    <path d="M5.96483001,10.4328767 C5.96483001,8.58090096 7.46705986,7.07945205 9.31999888,7.07945205 C11.17313,7.07945205 12.6752638,8.58090096 12.6752638,10.4328767 C12.6752638,12.2847565 11.17313,13.7863014 9.31999888,13.7863014 C7.46705986,13.7863014 5.96483001,12.2847565 5.96483001,10.4328767" id="Fill-9" fill="#0E7ABF"></path>
                    <path d="M17.1488863,10.4328767 C17.1488863,8.580709 18.6512337,7.07945205 20.5041032,7.07945205 C22.3571647,7.07945205 23.85932,8.580709 23.85932,10.4328767 C23.85932,12.2847565 22.3571647,13.7863014 20.5041032,13.7863014 C18.6512337,13.7863014 17.1488863,12.2847565 17.1488863,10.4328767" id="Fill-11" fill="#0E7ABF"></path>
                    <path d="M22.3681125,16.3946165 C22.3681125,14.5425018 23.8704599,13.0410959 25.7233294,13.0410959 C27.576391,13.0410959 29.0785463,14.5425018 29.0785463,16.3946165 C29.0785463,18.2466353 27.576391,19.7479452 25.7233294,19.7479452 C23.8704599,19.7479452 22.3681125,18.2466353 22.3681125,16.3946165" id="Fill-13" fill="#0E7ABF"></path>
                    <path d="M11.1840563,16.3946165 C11.1840563,14.5425018 12.6863076,13.0410959 14.5392732,13.0410959 C16.3923347,13.0410959 17.89449,14.5425018 17.89449,16.3946165 C17.89449,18.2466353 16.3923347,19.7479452 14.5392732,19.7479452 C12.6863076,19.7479452 11.1840563,18.2466353 11.1840563,16.3946165" id="Fill-15" fill="#0E7ABF"></path>
                    <path d="M19.8251942,5.76978025 C17.6896972,7.94917841 14.2310969,7.82330791 14.2310969,7.82330791 C14.2310969,7.82330791 13.630011,4.98212322 16.0941757,2.46716468 C18.5583403,-0.0473224341 21.5993848,0.404114226 21.5993848,0.404114226 C21.5993848,0.404114226 21.9608895,3.5902878 19.8251942,5.76978025" id="Fill-17" fill="#91BF4C"></path>
                    <path d="M13.8605764,4.09108245 C15.1477656,5.61651657 14.8912402,7.8087488 14.8912402,7.8087488 C14.8912402,7.8087488 13.019587,8.08597279 11.5344766,6.32591412 C10.049454,4.56576182 10.5039883,2.60834139 10.5039883,2.60834139 C10.5039883,2.60834139 12.5733872,2.56536746 13.8605764,4.09108245" id="Fill-19" fill="#669900"></path>
                    <path d="M42.1265659,22.5604254 C42.9929646,22.5604254 43.7793683,22.3434873 44.485869,21.9083654 C45.1929226,21.4739142 45.7476353,20.8815504 46.1505601,20.1308908 C46.5527475,19.3802312 46.7545785,18.5390211 46.7545785,17.6063979 C46.7545785,16.6737747 46.5527475,15.8327562 46.1505601,15.0820008 C45.7476353,14.3319161 45.1929226,13.7429061 44.485869,13.3161205 C43.7793683,12.8894308 42.9929646,12.6758464 42.1265659,12.6758464 C40.9259939,12.6758464 39.9034757,13.0712986 39.0602091,13.861053 C38.2169426,14.6513824 37.7184476,15.6626744 37.5673048,16.8953123 C37.5673048,16.9426477 37.5591947,16.9823175 37.5441726,17.0134592 C37.5285975,17.1401342 37.5217776,17.3375249 37.5217776,17.6063979 C37.5217776,18.5390211 37.7228713,19.3802312 38.1257039,20.1308908 C38.5280757,20.8815504 39.0790098,21.4739142 39.7785063,21.9083654 C40.477542,22.3434873 41.2602593,22.5604254 42.1265659,22.5604254 M35.8114672,11.8230419 L35.8114672,6.51313621 C35.8114672,6.24493399 35.8913701,6.02349228 36.0507153,5.84948184 C36.2106133,5.67604632 36.4192642,5.5890411 36.6777738,5.5890411 C36.9364677,5.5890411 37.148805,5.67604632 37.3162602,5.84948184 C37.4829781,6.02349228 37.5673048,6.24493399 37.5673048,6.51313621 L37.5673048,13.4584143 C38.0988853,12.6998016 38.7753417,12.103605 39.5961211,11.6684831 C40.4169006,11.2340319 41.3208086,11.0170938 42.3089511,11.0170938 C43.4639037,11.0170938 44.5090012,11.3054184 45.4434143,11.8821633 C46.3784724,12.4588125 47.1149252,13.2492377 47.6546158,14.2520016 C48.1943064,15.256107 48.4642438,16.37376 48.4642438,17.6063979 C48.4642438,18.8390358 48.1868414,19.9612881 47.6321287,20.9719094 C47.076863,21.9836805 46.317278,22.7773636 45.3521756,23.3540127 C44.3871653,23.9314284 43.3121157,24.2191781 42.1265659,24.2191781 C40.9410161,24.2191781 39.8654135,23.9314284 38.9009562,23.3540127 C37.9352086,22.7773636 37.1757158,21.9836805 36.6210031,20.9719094 C36.0656452,19.9612881 35.7889801,18.8390358 35.7889801,17.6063979 L35.7889801,12.0360514 C35.7889801,11.9412847 35.7964451,11.8704732 35.8114672,11.8230419" id="Fill-21" fill="#0E7ABF"></path>
                    <path d="M54.0616481,13.5986613 C53.237706,14.3534727 52.73539,15.3491462 52.5547001,16.5851949 L61.5978865,16.5851949 C61.4652407,15.3491462 61.0048759,14.3534727 60.2140953,13.5986613 C59.4234145,12.8444341 58.4099927,12.4669797 57.1751284,12.4669797 C55.9226844,12.4669797 54.884891,12.8444341 54.0616481,13.5986613 M60.4117655,11.6362296 C61.3507738,12.1898034 62.0792269,12.9565897 62.5984233,13.9358098 C63.1170203,14.9157113 63.3763189,16.0308422 63.3763189,17.2833443 C63.3763189,17.5406598 63.2937149,17.7452075 63.1292062,17.8976691 C62.9646974,18.0507148 62.7501469,18.1266535 62.4867531,18.1266535 L52.5052575,18.1266535 C52.636505,19.443022 53.1632925,20.5107399 54.0860197,21.3296124 C55.008747,22.148485 56.1616067,22.5575805 57.5453979,22.5575805 C58.1384085,22.5575805 58.7355143,22.4573024 59.3367153,22.2567463 C59.9379164,22.0560929 60.4199559,21.8033532 60.7821349,21.4979433 C60.9959862,21.3374984 61.2187273,21.2569839 61.4496588,21.2569839 C61.6303487,21.2569839 61.8111385,21.3216291 61.9925277,21.4497514 C62.2064789,21.6423242 62.3141537,21.8595284 62.3141537,22.1002931 C62.3141537,22.3088325 62.2233593,22.4936167 62.0419702,22.6539642 C61.4990014,23.1040472 60.8072057,23.4768284 59.9670824,23.7737683 C59.1268593,24.0712923 58.3191983,24.2191781 57.5453979,24.2191781 C56.2273303,24.2191781 55.0500989,23.9347973 54.0122056,23.3646728 C52.9744121,22.7944509 52.1626558,22.000015 51.5784351,20.980489 C50.9935151,19.9610604 50.7010551,18.8089337 50.7010551,17.524109 C50.7010551,16.2236097 50.9766347,15.0641813 51.5289925,14.0439738 C52.0807511,13.0251293 52.8464609,12.2300119 53.8267212,11.6599848 C54.8069816,11.0904444 55.9226844,10.8054795 57.1751284,10.8054795 C58.3937116,10.8054795 59.472857,11.0818769 60.4117655,11.6362296" id="Fill-23" fill="#0E7ABF"></path>
                    <path d="M72.5288544,11.0726827 C72.8884093,11.2507527 73.0691676,11.5013844 73.0691676,11.8243816 C73.0691676,11.9213592 73.0613202,11.9938228 73.0468738,12.0423606 C72.9881073,12.2696549 72.8956325,12.4225246 72.7712329,12.5036171 C72.6460308,12.5846115 72.473209,12.6245204 72.2525001,12.6245204 C72.1202531,12.6245204 71.892321,12.6085372 71.5689713,12.5759826 C71.4511707,12.5600974 71.2746927,12.5520568 71.0395374,12.5520568 C69.9365279,12.5520568 69.035233,12.8757404 68.3372577,13.5223231 C67.6385691,14.1690039 67.2898045,15.0104243 67.2898045,16.0445252 L67.2898045,23.2973516 C67.2898045,23.5884805 67.2155214,23.8150884 67.0690955,23.976587 C66.9217779,24.138772 66.7161396,24.2191781 66.4515565,24.2191781 C66.1867949,24.2191781 65.9806216,24.138772 65.833839,23.976587 C65.6863431,23.8150884 65.6131301,23.5884805 65.6131301,23.2973516 L65.6131301,11.8728214 C65.6131301,11.5816925 65.6863431,11.355869 65.833839,11.193586 C65.9806216,11.0321854 66.1867949,10.9510929 66.4515565,10.9510929 C66.7161396,10.9510929 66.9217779,11.0321854 67.0690955,11.193586 C67.2155214,11.355869 67.2898045,11.5816925 67.2898045,11.8728214 L67.2898045,12.9402614 C67.7158841,12.2609279 68.2598536,11.736033 68.9217128,11.3638116 C69.583572,10.9915902 70.2967962,10.8054795 71.0619204,10.8054795 C71.6790136,10.8054795 72.1680511,10.8946126 72.5288544,11.0726827" id="Fill-25" fill="#0E7ABF"></path>
                    <path d="M82.2215313,11.0726827 C82.581171,11.2507527 82.7620164,11.5013844 82.7620164,11.8243816 C82.7620164,11.9213592 82.7540799,11.9938228 82.7396337,12.0423606 C82.6808678,12.2696549 82.5883941,12.4225246 82.4639069,12.5036171 C82.3387954,12.5846115 82.1658865,12.6245204 81.9453586,12.6245204 C81.8129349,12.6245204 81.5850946,12.6085372 81.2617488,12.5759826 C81.1439496,12.5600974 80.9674738,12.5520568 80.7323213,12.5520568 C79.629325,12.5520568 78.72813,12.8757404 78.0299848,13.5223231 C77.3313045,14.1690039 76.982544,15.0104243 76.982544,16.0445252 L76.982544,23.2973516 C76.982544,23.5884805 76.9082618,23.8150884 76.7619269,23.976587 C76.6144327,24.138772 76.4089752,24.2191781 76.1443952,24.2191781 C75.8795477,24.2191781 75.673466,24.138772 75.526596,23.976587 C75.379191,23.8150884 75.3059789,23.5884805 75.3059789,23.2973516 L75.3059789,11.8728214 C75.3059789,11.5816925 75.379191,11.355869 75.526596,11.193586 C75.673466,11.0321854 75.8795477,10.9510929 76.1443952,10.9510929 C76.4089752,10.9510929 76.6144327,11.0321854 76.7619269,11.193586 C76.9082618,11.355869 76.982544,11.5816925 76.982544,11.8728214 L76.982544,12.9402614 C77.4087077,12.2609279 77.9526707,11.736033 78.6144328,11.3638116 C79.2763733,10.9915902 79.9895889,10.8054795 80.7546148,10.8054795 C81.371879,10.8054795 81.8607323,10.8946126 82.2215313,11.0726827" id="Fill-27" fill="#0E7ABF"></path>
                    <path d="M96.1828839,11.5873766 C96.1828839,11.7295746 96.1502952,11.8718684 96.0858047,12.0140663 L88.2185621,28.8906839 C88.0728943,29.2537487 87.8380981,29.4356164 87.5140754,29.4356164 C87.3524076,29.4356164 87.2067398,29.403804 87.0776608,29.3407539 C86.7050494,29.198556 86.5187438,28.9614955 86.5187438,28.6295725 C86.5187438,28.4873745 86.5513325,28.3451765 86.6159211,28.2028828 L89.0194409,23.0124655 L89.0194409,22.9885103 L83.6046994,12.0374466 C83.5402089,11.9115381 83.5076202,11.7692443 83.5076202,11.6114276 C83.5076202,11.2796004 83.685975,11.0424441 84.0418011,10.9002462 C84.1715672,10.8372919 84.3173333,10.8054795 84.479001,10.8054795 C84.8189254,10.8054795 85.0617706,10.9710577 85.2074385,11.3028849 L89.9424294,21.044691 L94.4590167,11.3269359 C94.6207826,10.9794899 94.8636278,10.8054795 95.1875523,10.8054795 C95.3333183,10.8054795 95.4782991,10.8372919 95.6240651,10.9002462 C95.9966764,11.0424441 96.1828839,11.2717431 96.1828839,11.5873766" id="Fill-29" fill="#0E7ABF"></path>
                    <path d="M106.359911,21.9084612 C107.058916,21.47401 107.609826,20.8816463 108.012733,20.1308908 C108.414903,19.3801354 108.616633,18.5391169 108.616633,17.6065895 C108.616633,17.3376207 108.608524,17.1401342 108.593502,17.013555 C108.578573,16.9824133 108.571108,16.9427435 108.571108,16.8954081 C108.418682,15.6626744 107.921406,14.6514782 107.077624,13.8611489 C106.234394,13.0712986 105.21192,12.6758464 104.011401,12.6758464 C103.145685,12.6758464 102.35867,12.8895267 101.652201,13.3162164 C100.945823,13.7429061 100.390581,14.3320119 99.9882272,15.0820966 C99.5853201,15.832852 99.3843273,16.6738706 99.3843273,17.6065895 C99.3843273,18.5391169 99.5853201,19.3801354 99.9882272,20.1308908 C100.390581,20.8816463 100.945823,21.47401 101.652201,21.9084612 C102.35867,22.3435831 103.145685,22.5605213 104.011401,22.5605213 C104.877762,22.5605213 105.660353,22.3435831 106.359911,21.9084612 M110.349355,12.0361472 L110.349355,17.6065895 C110.349355,18.8391316 110.07132,19.961384 109.517369,20.972101 C108.962035,21.9837763 108.202575,22.7773636 107.237515,23.3541085 C106.271902,23.9314284 105.196899,24.2191781 104.011401,24.2191781 C102.826456,24.2191781 101.7509,23.9314284 100.785932,23.3541085 C99.8208715,22.7773636 99.0606745,21.9837763 98.505986,20.972101 C97.9513896,19.961384 97.6740914,18.8391316 97.6740914,17.6065895 C97.6740914,16.37376 97.943925,15.256107 98.4834998,14.2520974 C99.022614,13.2493335 99.7603248,12.4589083 100.694697,11.8821633 C101.629714,11.3055142 102.674121,11.0171896 103.829669,11.0171896 C104.817123,11.0171896 105.721544,11.2341277 106.542288,11.6685789 C107.363124,12.1037009 108.038906,12.6998016 108.571108,13.4584143 L108.571108,6.51323203 C108.571108,6.24493399 108.654233,6.0235881 108.821589,5.84948184 C108.988945,5.67614214 109.201273,5.5890411 109.459955,5.5890411 C109.718453,5.5890411 109.927095,5.67614214 110.086986,5.84948184 C110.246325,6.0235881 110.326224,6.24493399 110.326224,6.51323203 L110.326224,11.8231378 C110.341245,11.8704732 110.349355,11.9412847 110.349355,12.0361472" id="Fill-31" fill="#91BF4C"></path>
                    <path d="M113.885622,11.6059643 C114.03628,11.4332053 114.227507,11.3467307 114.460297,11.3467307 C114.693005,11.3467307 114.880913,11.4332053 115.024685,11.6059643 C115.168209,11.7787233 115.240219,11.9980017 115.240219,12.2649409 L115.240219,23.3015386 C115.240219,23.5685731 115.168209,23.7878514 115.024685,23.9606104 C114.880913,24.1334645 114.693005,24.2191781 114.460297,24.2191781 C114.227507,24.2191781 114.03628,24.1334645 113.885622,23.9606104 C113.734964,23.7878514 113.660132,23.5685731 113.660132,23.3015386 L113.660132,12.2649409 C113.660132,11.9980017 113.734964,11.7787233 113.885622,11.6059643 M115.240219,6.68756535 C115.458906,6.9228258 115.568581,7.22848364 115.568581,7.60501452 C115.568581,7.96613408 115.458906,8.27245784 115.240219,8.52265396 C115.020952,8.77399165 114.754396,8.89918484 114.440055,8.89918484 C114.125215,8.89918484 113.86148,8.77399165 113.64943,8.52265396 C113.437546,8.27245784 113.33177,7.96613408 113.33177,7.60501452 C113.33177,7.22848364 113.440865,6.9228258 113.660132,6.68756535 C113.878902,6.45220976 114.145458,6.33424658 114.460297,6.33424658 C114.761116,6.33424658 115.020952,6.45220976 115.240219,6.68756535" id="Fill-33" fill="#91BF4C"></path>
                    <path d="M125.466632,11.0726827 C125.826276,11.2507527 126.007034,11.5013844 126.007034,11.8243816 C126.007034,11.9213592 125.999187,11.9938228 125.984651,12.0423606 C125.925974,12.2696549 125.833499,12.4225246 125.70901,12.5036171 C125.583897,12.5846115 125.411075,12.6245204 125.190366,12.6245204 C125.05803,12.6245204 124.830187,12.6085372 124.506838,12.5759826 C124.388948,12.5600974 124.212559,12.5520568 123.977404,12.5520568 C122.874394,12.5520568 121.973099,12.8757404 121.275035,13.5223231 C120.576346,14.1690039 120.227582,15.0104243 120.227582,16.0445252 L120.227582,23.2973516 C120.227582,23.5884805 120.153299,23.8150884 120.006962,23.976587 C119.859555,24.138772 119.654006,24.2191781 119.389334,24.2191781 C119.124572,24.2191781 118.918399,24.138772 118.771616,23.976587 C118.62412,23.8150884 118.550996,23.5884805 118.550996,23.2973516 L118.550996,11.8728214 C118.550996,11.5816925 118.62412,11.355869 118.771616,11.193586 C118.918399,11.0321854 119.124572,10.9510929 119.389334,10.9510929 C119.654006,10.9510929 119.859555,11.0321854 120.006962,11.193586 C120.153299,11.355869 120.227582,11.5816925 120.227582,11.8728214 L120.227582,12.9402614 C120.653661,12.2609279 121.19772,11.7359349 121.859579,11.3638116 C122.521349,10.9915902 123.234573,10.8054795 123.999787,10.8054795 C124.61688,10.8054795 125.105828,10.8946126 125.466632,11.0726827" id="Fill-35" fill="#91BF4C"></path>
                    <path d="M128.62207,13.5985843 C127.798241,14.3534011 127.295933,15.3491792 127.115146,16.5851395 L136.15819,16.5851395 C136.025546,15.3491792 135.565288,14.3534011 134.77452,13.5985843 C133.983852,12.8443515 132.970346,12.4668944 131.735501,12.4668944 C130.483177,12.4668944 129.4453,12.8443515 128.62207,13.5985843 M134.972187,11.6361382 C135.911181,12.1897161 136.639622,12.9564106 137.158811,13.9357351 C137.6774,14.9156438 137.936694,16.0307828 137.936694,17.283294 C137.936694,17.5406113 137.854091,17.7451605 137.689585,17.8975259 C137.525079,18.05067 137.310432,18.1266093 137.047142,18.1266093 L127.065704,18.1266093 C127.197049,19.4429874 127.723729,20.510713 128.646441,21.3295915 C129.569054,22.1484699 130.721996,22.5575684 132.105865,22.5575684 C132.698766,22.5575684 133.295963,22.4572896 133.897154,22.2567321 C134.498246,22.0560772 134.980278,21.8033357 135.342451,21.4978262 C135.556399,21.3374775 135.779136,21.2569624 136.009964,21.2569624 C136.190552,21.2569624 136.371538,21.3216081 136.552925,21.4497313 C136.766873,21.6423055 136.874446,21.8595113 136.874446,22.1002777 C136.874446,22.3088186 136.783753,22.4936042 136.602266,22.6539529 C136.059406,23.1040391 135.367521,23.476823 134.527411,23.7737651 C133.687301,24.0712912 132.879653,24.2191781 132.105865,24.2191781 C130.787818,24.2191781 129.610505,23.9347952 128.572728,23.3647639 C127.534851,22.7944405 126.723108,21.9999989 126.138996,20.9804655 C125.553986,19.9610295 125.26143,18.8088945 125.26143,17.5240604 C125.26143,16.2235517 125.537105,15.0641148 126.089554,14.0438999 C126.641304,13.025048 127.406902,12.2299249 128.387047,11.6598936 C129.367492,11.0903491 130.483177,10.8054795 131.735501,10.8054795 C132.954065,10.8054795 134.033194,11.0817816 134.972187,11.6361382" id="Fill-37" fill="#91BF4C"></path>
                    <path d="M150.423196,13.1169373 C150.548433,13.2614155 150.611958,13.4304279 150.611958,13.6230007 C150.611958,13.879732 150.478136,14.1047248 150.210494,14.2973949 C150.068851,14.3937787 149.919577,14.4418732 149.762483,14.4418732 C149.526507,14.4418732 149.298257,14.3211501 149.078496,14.0803854 C148.606544,13.5504695 148.087473,13.1532515 147.521093,12.8886343 C146.954808,12.6234329 146.325094,12.4907349 145.633381,12.4907349 C144.768454,12.4907349 143.997193,12.7038501 143.320932,13.1294963 C142.644671,13.5550453 142.121785,14.1529166 141.751988,14.9236946 C141.38219,15.6943753 141.197912,16.5607582 141.197912,17.5243037 C141.197912,18.4717853 141.394495,19.3268747 141.78747,20.0890853 C142.18054,20.85188 142.731183,21.4497514 143.439206,21.8832836 C144.147134,22.3168158 144.95712,22.5339226 145.869357,22.5339226 C147.127355,22.5339226 148.142414,22.1887909 148.913008,21.4978459 C149.117317,21.3216291 149.329924,21.2332287 149.550448,21.2332287 C149.739209,21.2332287 149.911851,21.2972898 150.068851,21.4259962 C150.289375,21.6186664 150.399255,21.8350917 150.399255,22.0758564 C150.399255,22.2850773 150.320374,22.4612941 150.163184,22.6057724 C149.031282,23.682155 147.599402,24.2191781 145.869357,24.2191781 C144.642359,24.2191781 143.541456,23.926814 142.565885,23.3402361 C141.590887,22.7542423 140.823536,21.9519205 140.26574,20.9323945 C139.707086,19.9129659 139.427902,18.7766111 139.427902,17.5243037 C139.427902,16.2400631 139.695449,15.0879365 140.230162,14.0684105 C140.76478,13.0489818 141.50428,12.2498728 142.448183,11.6724465 C143.392087,11.0945334 144.453597,10.8054795 145.633381,10.8054795 C147.599402,10.8054795 149.196198,11.5761601 150.423196,13.1169373" id="Fill-39" fill="#91BF4C"></path>
                    <g id="Group-43" transform="translate(151.357562, 7.079452)">
                        <mask id="mask-2" fill="white">
                            <use xlink:href="#path-1"></use>
                        </mask>
                        <g id="Clip-42"></g>
                        <path d="M7.95483862,15.5374585 C8.11181422,15.7113453 8.19077886,15.9327255 8.19077886,16.2007371 C8.19077886,16.4538114 8.09636462,16.6667653 7.9076315,16.8406522 C7.71880302,17.0146348 7.48362572,17.1009079 7.20047836,17.1009079 L6.7047559,17.1009079 C5.8708588,17.1009079 5.12431871,16.8997316 4.46370511,16.4967086 C3.80309152,16.0941644 3.28791401,15.5491403 2.91817257,14.862498 C2.54852651,14.1758557 2.36427568,13.3977696 2.36427568,12.5293887 L2.36427568,6.20502128 L0.830378031,6.20502128 C0.578892822,6.20502128 0.378620186,6.13042996 0.229274021,5.98028979 C0.0792602797,5.83053263 0.00496866872,5.64496398 0.00496866872,5.42358383 C0.00496866872,5.18669175 0.0792602797,4.99336713 0.229274021,4.84341847 C0.378620186,4.6934698 0.578892822,4.61820821 0.830378031,4.61820821 L2.36427568,4.61820821 L2.36427568,0.946859747 C2.36427568,0.678848054 2.4462921,0.457563658 2.61185081,0.283581076 C2.77664658,0.110364515 2.99322713,0.0234211005 3.26073415,0.0234211005 C3.52776433,0.0234211005 3.74749202,0.110364515 3.92068017,0.283581076 C4.09405905,0.457563658 4.18065312,0.678848054 4.18065312,0.946859747 L4.18065312,4.61820821 L6.8462819,4.61820821 C7.09776711,4.61820821 7.29803974,4.6934698 7.44805349,4.84341847 C7.59739965,4.99336713 7.67169126,5.18669175 7.67169126,5.42358383 C7.67169126,5.64496398 7.59739965,5.83053263 7.44805349,5.98028979 C7.29803974,6.13042996 7.09776711,6.20502128 6.8462819,6.20502128 L4.18065312,6.20502128 L4.18065312,12.5293887 C4.18065312,13.3347643 4.41649799,13.9942129 4.88837847,14.5075429 C5.36025894,15.0208729 5.96527304,15.2772027 6.7047559,15.2772027 L7.34200436,15.2772027 C7.59282199,15.2772027 7.79776765,15.3640504 7.95483862,15.5374585" id="Fill-41" fill="#91BF4C" mask="url(#mask-2)"></path>
                    </g>
                </g>
            </g>
        </g>
    </g>
</svg>